<?xml version="1.0" encoding="UTF-8"?>
<svg version="1.1" xmlns="http://www.w3.org/2000/svg" width="225" height="225">
<path d="M0 0 C5.2638986 0.58935816 10.58810006 0.42682719 15.87872314 0.44473267 C17.84060268 0.46198965 19.80248234 0.47927017 21.76434898 0.4979353 C26.57002608 0.54327307 31.37557748 0.58130921 36.18145752 0.59487915 C38.88986448 0.60302278 41.59780992 0.62160567 44.30606079 0.65180969 C46.84794835 0.67989227 49.39005875 0.69287937 51.93209839 0.68894958 C58.33601312 0.78038781 62.58226996 0.84733427 67.40216064 5.26895142 C69.73247918 8.23481138 69.87335505 11.50517784 69.79669189 15.23379517 C69.08863882 18.88622739 67.02681432 20.70678949 64.40216064 23.26895142 C61.80617741 24.56694303 59.86737097 24.42936894 56.95977783 24.47427368 C55.81547302 24.4942189 54.67116821 24.51416412 53.4921875 24.53471375 C51.61457733 24.55978249 51.61457733 24.55978249 49.69903564 24.58535767 C48.39686096 24.60613876 47.09468628 24.62691986 45.75305176 24.64833069 C42.97206135 24.6924256 40.19104828 24.73326296 37.40997314 24.77163696 C33.94334551 24.81955083 30.476848 24.87343149 27.01034546 24.92960167 C8.14046622 25.23364058 -10.72520401 25.35451692 -29.59783936 25.26895142 C-30.67134644 25.26420807 -31.74485352 25.25946472 -32.85089111 25.25457764 C-38.67810887 25.22354303 -44.50382394 25.161852 -50.33026123 25.06143188 C-52.21817824 25.03245362 -54.10623394 25.01164175 -55.99432373 24.99795532 C-58.81068251 24.97661927 -61.62564889 24.93023927 -64.44158936 24.87832642 C-65.2789563 24.87709778 -66.11632324 24.87586914 -66.97906494 24.87460327 C-72.2875939 24.74102362 -75.38749697 23.79738345 -79.59783936 20.26895142 C-80.94337389 17.57788235 -80.80378049 15.39729719 -80.84783936 12.39395142 C-80.87362061 11.34465454 -80.89940186 10.29535767 -80.92596436 9.21426392 C-80.55054393 5.84441868 -79.89459459 4.70829917 -77.59783936 2.26895142 C-75.57495117 1.66946411 -75.57495117 1.66946411 -73.22381592 1.53652954 C-71.88727966 1.45350586 -71.88727966 1.45350586 -70.52374268 1.36880493 C-69.55819458 1.33585327 -68.59264648 1.30290161 -67.59783936 1.26895142 C-66.60296509 1.23406616 -65.60809082 1.19918091 -64.58306885 1.16323853 C-61.24934117 1.07505895 -57.91686704 1.02691278 -54.58221436 0.98770142 C-53.36761536 0.96929199 -52.15301636 0.95088257 -50.90161133 0.93191528 C-45.7434709 0.85378803 -40.58521381 0.78543947 -35.42694092 0.71670532 C-31.64530209 0.66488251 -27.86377048 0.60769883 -24.08221436 0.55020142 C-22.91962097 0.53662598 -21.75702759 0.52305054 -20.5592041 0.50906372 C-19.47077209 0.49234619 -18.38234009 0.47562866 -17.26092529 0.45840454 C-15.83390289 0.43961243 -15.83390289 0.43961243 -14.37805176 0.42044067 C-11.5261265 0.31872896 -11.5261265 0.31872896 -8.46469116 -0.26954651 C-5.46249279 -0.7528365 -2.988615 -0.44071803 0 0 Z " fill="#FCFCFC" transform="translate(118.59783935546875,99.73104858398438)"/>
<path d="M0 0 C1.49408638 -0.00262848 1.49408638 -0.00262848 3.01835632 -0.00531006 C6.31718687 -0.00971513 9.6159638 -0.00679102 12.91479492 -0.00341797 C15.22669993 -0.0040924 17.53860487 -0.00506359 19.85050964 -0.00631714 C24.71024242 -0.00779313 29.56995685 -0.00564643 34.4296875 -0.00097656 C40.58934691 0.00466019 46.74896217 0.00148006 52.90861988 -0.00454903 C57.69545304 -0.00820942 62.48227622 -0.00699026 67.26910973 -0.00442123 C69.53517347 -0.00376382 71.80123819 -0.00453783 74.0673008 -0.00690079 C81.40675489 -0.01286375 88.74398348 0.02897925 96.08276367 0.12939453 C97.18797237 0.14259987 98.29318108 0.15580521 99.43188095 0.16941071 C102.74055633 0.21905582 106.0471568 0.29854579 109.35498047 0.38769531 C110.86267234 0.40807263 110.86267234 0.40807263 112.40082264 0.42886162 C116.79504396 0.57738936 119.38577174 0.69226329 123.17121887 3.06637573 C126.75352989 6.93255505 127.54374432 9.76892264 127.40307617 15.16455078 C126.88663951 18.33244887 125.37029965 19.96894389 123.08276367 22.12939453 C119.83769141 24.1488761 117.30918578 24.38562787 113.51699829 24.40354919 C112.3842598 24.41352432 111.2515213 24.42349945 110.0844574 24.43377686 C108.84591507 24.43444153 107.60737274 24.4351062 106.33129883 24.43579102 C105.02362045 24.44411453 103.71594208 24.45243805 102.36863708 24.46101379 C98.78386608 24.4829447 95.19918036 24.49175569 91.61434984 24.49684024 C89.37366127 24.5004853 87.13299498 24.50672611 84.89231491 24.51384163 C77.07232432 24.53833064 69.25240002 24.55138696 61.43237305 24.55493164 C54.14771617 24.55856715 46.86348055 24.58846461 39.57895243 24.63033623 C33.32064104 24.66504561 27.06246923 24.68048018 20.80406225 24.68117768 C17.06797605 24.68197024 13.33231913 24.69069881 9.59633255 24.71917534 C5.4282591 24.75023556 1.2611879 24.74129343 -2.90698242 24.72875977 C-4.14147629 24.74359406 -5.37597015 24.75842834 -6.64787292 24.77371216 C-15.96878193 24.69376859 -15.96878193 24.69376859 -19.64053345 21.74427795 C-21.92143976 19.12456672 -23.17493976 17.51096779 -23.91723633 14.12939453 C-23.54223633 10.81689453 -23.54223633 10.81689453 -22.91723633 8.12939453 C-22.25723633 8.12939453 -21.59723633 8.12939453 -20.91723633 8.12939453 C-20.91723633 7.46939453 -20.91723633 6.80939453 -20.91723633 6.12939453 C-14.34470918 -0.13743368 -8.79860893 -0.01903846 0 0 Z " fill="#FBFBFB" transform="translate(60.917236328125,55.87060546875)"/>
<path d="M0 0 C5.44982841 -0.00560971 10.8994224 -0.02999737 16.34917545 -0.05797195 C20.60335519 -0.07654148 24.85747558 -0.08179962 29.11169243 -0.08333588 C31.12470299 -0.08634668 33.13771291 -0.09432152 35.15068245 -0.10752106 C37.93300714 -0.12455419 40.71471485 -0.12271487 43.49707031 -0.11621094 C44.3118988 -0.12542572 45.12672729 -0.1346405 45.96624756 -0.14413452 C51.63052271 -0.10260829 55.70489343 1.03311762 60.18432617 4.74023438 C62.94163527 8.22315113 62.8023389 12.00685919 62.37182617 16.24023438 C60.4323013 19.55619625 59.16008779 21.56332985 55.54966259 22.92997169 C48.91813899 24.39893944 42.46982549 24.53607742 35.6953125 24.53076172 C34.45517899 24.53747894 33.21504547 24.54419617 31.93733215 24.55111694 C28.56146121 24.56677836 25.18583636 24.5734668 21.8099463 24.57474852 C19.69737539 24.57617626 17.58482982 24.5804573 15.47226524 24.58574295 C8.09314728 24.6041948 0.71410121 24.61241864 -6.66503906 24.61083984 C-13.53110427 24.60963597 -20.39685642 24.63079853 -27.26284236 24.66232717 C-33.17306241 24.68849508 -39.08318009 24.69920711 -44.99345762 24.69792902 C-48.51701846 24.69742005 -52.0402999 24.70306896 -55.56380272 24.72428513 C-59.48927425 24.74728241 -63.41431584 24.73814346 -67.33984375 24.72607422 C-69.08161896 24.74293274 -69.08161896 24.74293274 -70.85858154 24.76013184 C-78.50622056 24.70029908 -81.8429963 23.64689415 -87.50317383 18.55273438 C-89.30188562 14.85538235 -89.29524402 11.26417391 -88.62817383 7.24023438 C-86.83423715 4.36993569 -85.64554107 2.74891799 -82.62817383 1.24023438 C-80.30890117 1.08522386 -77.9852291 0.99506526 -75.66162109 0.93261719 C-74.93600164 0.912463 -74.21038219 0.89230881 -73.46277428 0.87154388 C-71.01932116 0.80622515 -68.57576766 0.74918386 -66.13208008 0.69335938 C-64.85260089 0.66231991 -64.85260089 0.66231991 -63.54727364 0.63065338 C-42.36720928 0.1232522 -21.18538008 0.01859866 0 0 Z " fill="#FBFBFB" transform="translate(125.628173828125,144.759765625)"/>
</svg>
