<svg xmlns="http://www.w3.org/2000/svg" xmlns:xlink="http://www.w3.org/1999/xlink" width="300" zoomAndPan="magnify" viewBox="0 0 224.87999 225" height="300" preserveAspectRatio="xMidYMid meet" version="1.0"><defs><clipPath id="ba0799b77e"><path d="M 2.605469 2.667969 L 222.238281 2.667969 L 222.238281 222.300781 L 2.605469 222.300781 Z M 2.605469 2.667969 " clip-rule="nonzero"/></clipPath></defs><g clip-path="url(#ba0799b77e)"><path fill="#31a4e5" d="M 112.378906 2.667969 C 51.699219 2.667969 2.605469 51.8125 2.605469 112.496094 C 2.605469 173.175781 51.699219 222.324219 112.378906 222.324219 C 173.058594 222.324219 222.261719 173.175781 222.261719 112.496094 C 222.261719 51.8125 173.058594 2.667969 112.378906 2.667969 Z M 112.433594 200.355469 C 63.890625 200.355469 24.570312 161.039062 24.570312 112.496094 C 24.570312 63.949219 63.890625 24.632812 112.433594 24.632812 C 160.976562 24.632812 200.296875 63.949219 200.296875 112.496094 C 200.296875 161.039062 160.976562 200.355469 112.433594 200.355469 Z M 112.433594 200.355469 " fill-opacity="1" fill-rule="nonzero"/></g><path fill="#31a4e5" d="M 117.925781 57.582031 L 101.453125 57.582031 L 101.453125 123.476562 L 159.054688 158.074219 L 167.347656 144.5625 L 117.925781 115.238281 Z M 117.925781 57.582031 " fill-opacity="1" fill-rule="nonzero"/></svg>