<svg xmlns="http://www.w3.org/2000/svg" xmlns:xlink="http://www.w3.org/1999/xlink" width="200" zoomAndPan="magnify" viewBox="0 0 150 157.92" height="200" preserveAspectRatio="xMidYMid meet" version="1.0"><defs><clipPath id="27459a565c"><path d="M 6 0 L 144 0 L 144 149.925781 L 6 149.925781 Z M 6 0 " clip-rule="nonzero"/></clipPath></defs><path fill="#7ed957" d="M 75 49.828125 C 70.542969 49.828125 66.914062 53.453125 66.914062 57.910156 C 66.914062 62.371094 70.542969 65.996094 75 65.996094 C 79.457031 65.996094 83.085938 62.371094 83.085938 57.910156 C 83.085938 53.453125 79.457031 49.828125 75 49.828125 Z M 75 61.585938 C 72.972656 61.585938 71.324219 59.9375 71.324219 57.910156 C 71.324219 55.886719 72.972656 54.238281 75 54.238281 C 77.027344 54.238281 78.675781 55.886719 78.675781 57.910156 C 78.675781 59.9375 77.027344 61.585938 75 61.585938 Z M 75 61.585938 " fill-opacity="1" fill-rule="nonzero"/><path fill="#7ed957" d="M 75 80.695312 C 70.542969 80.695312 66.914062 84.320312 66.914062 88.777344 C 66.914062 93.234375 70.542969 96.863281 75 96.863281 C 79.457031 96.863281 83.085938 93.234375 83.085938 88.777344 C 83.085938 84.320312 79.457031 80.695312 75 80.695312 Z M 75 92.453125 C 72.972656 92.453125 71.324219 90.804688 71.324219 88.777344 C 71.324219 86.753906 72.972656 85.105469 75 85.105469 C 77.027344 85.105469 78.675781 86.753906 78.675781 88.777344 C 78.675781 90.804688 77.027344 92.453125 75 92.453125 Z M 75 92.453125 " fill-opacity="1" fill-rule="nonzero"/><path fill="#7ed957" d="M 75 111.5625 C 70.542969 111.5625 66.914062 115.1875 66.914062 119.644531 C 66.914062 124.101562 70.542969 127.730469 75 127.730469 C 79.457031 127.730469 83.085938 124.101562 83.085938 119.644531 C 83.085938 115.1875 79.457031 111.5625 75 111.5625 Z M 75 123.320312 C 72.972656 123.320312 71.324219 121.671875 71.324219 119.644531 C 71.324219 117.617188 72.972656 115.96875 75 115.96875 C 77.027344 115.96875 78.675781 117.617188 78.675781 119.644531 C 78.675781 121.671875 77.027344 123.320312 75 123.320312 Z M 75 123.320312 " fill-opacity="1" fill-rule="nonzero"/><path fill="#7ed957" d="M 125.855469 54.925781 C 121.234375 52.929688 119.808594 51.5 117.8125 46.882812 C 117.046875 45.109375 114.527344 45.109375 113.765625 46.882812 C 111.769531 51.5 110.339844 52.929688 105.71875 54.925781 C 103.949219 55.691406 103.949219 58.207031 105.71875 58.972656 C 110.339844 60.96875 111.769531 62.398438 113.765625 67.015625 C 114.527344 68.789062 117.046875 68.789062 117.8125 67.015625 C 119.808594 62.398438 121.234375 60.96875 125.855469 58.972656 C 127.628906 58.207031 127.625 55.6875 125.855469 54.925781 Z M 115.789062 61.332031 C 114.605469 59.476562 113.257812 58.132812 111.40625 56.949219 C 113.257812 55.765625 114.605469 54.421875 115.789062 52.570312 C 116.972656 54.421875 118.316406 55.765625 120.167969 56.949219 C 118.316406 58.132812 116.972656 59.476562 115.789062 61.332031 Z M 115.789062 61.332031 " fill-opacity="1" fill-rule="nonzero"/><path fill="#7ed957" d="M 32.1875 133.160156 C 32.953125 134.929688 35.472656 134.929688 36.234375 133.160156 C 38.230469 128.539062 39.660156 127.113281 44.28125 125.117188 C 46.050781 124.351562 46.050781 121.832031 44.28125 121.066406 C 39.660156 119.074219 38.230469 117.644531 36.234375 113.023438 C 35.472656 111.253906 32.953125 111.253906 32.1875 113.023438 C 30.191406 117.644531 28.765625 119.074219 24.144531 121.066406 C 22.371094 121.832031 22.375 124.351562 24.144531 125.117188 C 28.765625 127.109375 30.191406 128.539062 32.1875 133.160156 Z M 34.210938 118.710938 C 35.394531 120.5625 36.742188 121.90625 38.59375 123.089844 C 36.742188 124.277344 35.394531 125.621094 34.210938 127.472656 C 33.027344 125.621094 31.683594 124.277344 29.832031 123.089844 C 31.683594 121.90625 33.027344 120.5625 34.210938 118.710938 Z M 34.210938 118.710938 " fill-opacity="1" fill-rule="nonzero"/><g clip-path="url(#27459a565c)"><path fill="#7ed957" d="M 123.503906 11.023438 L 117.664062 11.023438 C 115.152344 4.316406 108.90625 0 101.804688 0 L 48.195312 0 C 41.074219 0 34.839844 4.335938 32.335938 11.023438 L 26.496094 11.023438 C 15.554688 11.023438 6.652344 19.925781 6.652344 30.867188 L 6.652344 90.835938 C 6.652344 92.054688 7.640625 93.042969 8.855469 93.042969 C 10.074219 93.042969 11.0625 92.054688 11.0625 90.835938 L 11.0625 30.867188 C 11.0625 22.355469 17.984375 15.433594 26.496094 15.433594 L 31.324219 15.433594 C 30.945312 19.628906 32.148438 23.871094 34.859375 27.339844 L 44.132812 39.207031 C 47.242188 43.1875 52.679688 44.589844 57.363281 42.460938 L 57.363281 145.515625 L 26.496094 145.515625 C 17.984375 145.515625 11.0625 138.589844 11.0625 130.082031 L 11.0625 108.472656 C 11.0625 107.257812 10.074219 106.269531 8.855469 106.269531 C 7.640625 106.269531 6.652344 107.257812 6.652344 108.472656 L 6.652344 130.082031 C 6.652344 141.023438 15.554688 149.925781 26.496094 149.925781 L 123.503906 149.925781 C 134.445312 149.925781 143.347656 141.023438 143.347656 130.082031 L 143.347656 30.867188 C 143.347656 19.925781 134.445312 11.023438 123.503906 11.023438 Z M 102.6875 4.4375 C 112.605469 5.089844 117.878906 16.671875 111.664062 24.625 L 102.394531 36.492188 C 100.308594 39.164062 96.566406 39.828125 93.6875 38.039062 L 78.523438 28.605469 Z M 96.480469 4.410156 L 75 25.890625 L 53.519531 4.410156 Z M 56.3125 38.039062 C 53.4375 39.828125 49.691406 39.164062 47.605469 36.492188 L 38.335938 24.625 C 32.144531 16.699219 37.355469 5.09375 47.3125 4.4375 L 71.476562 28.605469 Z M 138.9375 130.082031 C 138.9375 138.589844 132.015625 145.515625 123.503906 145.515625 L 92.636719 145.515625 L 92.636719 83.78125 C 92.636719 82.5625 91.652344 81.578125 90.433594 81.578125 C 89.214844 81.578125 88.230469 82.5625 88.230469 83.78125 L 88.230469 145.515625 L 61.769531 145.515625 L 61.769531 39.835938 L 75 31.605469 L 88.230469 39.835938 L 88.230469 66.144531 C 88.230469 67.359375 89.214844 68.347656 90.433594 68.347656 C 91.652344 68.347656 92.636719 67.359375 92.636719 66.144531 L 92.636719 42.460938 C 97.324219 44.59375 102.761719 43.183594 105.867188 39.207031 L 115.140625 27.339844 C 117.851562 23.871094 119.054688 19.628906 118.675781 15.433594 L 123.503906 15.433594 C 132.015625 15.433594 138.9375 22.355469 138.9375 30.867188 Z M 138.9375 130.082031 " fill-opacity="1" fill-rule="nonzero"/></g><path fill="#7ed957" d="M 92.636719 74.960938 C 92.636719 75.253906 92.582031 75.535156 92.46875 75.804688 C 92.359375 76.074219 92.199219 76.3125 91.992188 76.519531 C 91.785156 76.726562 91.546875 76.886719 91.277344 77 C 91.007812 77.109375 90.726562 77.167969 90.433594 77.167969 C 90.140625 77.167969 89.859375 77.109375 89.589844 77 C 89.320312 76.886719 89.082031 76.726562 88.875 76.519531 C 88.667969 76.3125 88.507812 76.074219 88.394531 75.804688 C 88.285156 75.535156 88.230469 75.253906 88.230469 74.960938 C 88.230469 74.667969 88.285156 74.386719 88.394531 74.117188 C 88.507812 73.847656 88.667969 73.609375 88.875 73.402344 C 89.082031 73.195312 89.320312 73.035156 89.589844 72.925781 C 89.859375 72.8125 90.140625 72.757812 90.433594 72.757812 C 90.726562 72.757812 91.007812 72.8125 91.277344 72.925781 C 91.546875 73.035156 91.785156 73.195312 91.992188 73.402344 C 92.199219 73.609375 92.359375 73.847656 92.46875 74.117188 C 92.582031 74.386719 92.636719 74.667969 92.636719 74.960938 Z M 92.636719 74.960938 " fill-opacity="1" fill-rule="nonzero"/><path fill="#7ed957" d="M 11.0625 99.65625 C 11.0625 99.949219 11.003906 100.230469 10.894531 100.5 C 10.78125 100.769531 10.621094 101.007812 10.417969 101.214844 C 10.210938 101.421875 9.972656 101.582031 9.699219 101.691406 C 9.429688 101.804688 9.148438 101.859375 8.855469 101.859375 C 8.566406 101.859375 8.285156 101.804688 8.011719 101.691406 C 7.742188 101.582031 7.503906 101.421875 7.296875 101.214844 C 7.089844 101.007812 6.933594 100.769531 6.820312 100.5 C 6.707031 100.230469 6.652344 99.949219 6.652344 99.65625 C 6.652344 99.363281 6.707031 99.082031 6.820312 98.8125 C 6.933594 98.542969 7.089844 98.304688 7.296875 98.097656 C 7.503906 97.890625 7.742188 97.730469 8.011719 97.617188 C 8.285156 97.507812 8.566406 97.449219 8.855469 97.449219 C 9.148438 97.449219 9.429688 97.507812 9.699219 97.617188 C 9.972656 97.730469 10.210938 97.890625 10.417969 98.097656 C 10.621094 98.304688 10.78125 98.542969 10.894531 98.8125 C 11.003906 99.082031 11.0625 99.363281 11.0625 99.65625 Z M 11.0625 99.65625 " fill-opacity="1" fill-rule="nonzero"/></svg>