<svg xmlns="http://www.w3.org/2000/svg" xmlns:xlink="http://www.w3.org/1999/xlink" width="200" zoomAndPan="magnify" viewBox="0 0 150 157.92" height="200" preserveAspectRatio="xMidYMid meet" version="1.0"><defs><clipPath id="2790b16778"><path d="M 0.0390625 15 L 149.960938 15 L 149.960938 134.933594 L 0.0390625 134.933594 Z M 0.0390625 15 " clip-rule="nonzero"/></clipPath></defs><path fill="#ff5757" d="M 59.367188 93.957031 C 59.367188 95.570312 60.675781 96.878906 62.289062 96.878906 C 68.132812 96.878906 113.390625 96.878906 120.738281 96.878906 C 122.351562 96.878906 123.660156 95.570312 123.660156 93.957031 L 123.660156 55.964844 C 123.660156 54.351562 122.351562 53.042969 120.738281 53.042969 L 100.28125 53.042969 C 77.722656 53.042969 59.367188 71.398438 59.367188 93.957031 Z M 98.820312 91.035156 L 84.207031 91.035156 L 84.207031 85.191406 L 98.820312 85.191406 Z M 100.28125 58.886719 L 117.816406 58.886719 L 117.816406 91.035156 L 104.664062 91.035156 L 104.664062 82.269531 C 104.664062 80.65625 103.355469 79.347656 101.742188 79.347656 L 81.285156 79.347656 C 79.671875 79.347656 78.363281 80.65625 78.363281 82.269531 L 78.363281 91.035156 L 65.332031 91.035156 C 66.824219 73.0625 81.929688 58.886719 100.28125 58.886719 Z M 100.28125 58.886719 " fill-opacity="1" fill-rule="nonzero"/><g clip-path="url(#2790b16778)"><path fill="#ff5757" d="M 126.582031 20.894531 L 106.125 20.894531 C 104.515625 20.894531 103.203125 19.585938 103.203125 17.972656 C 103.203125 16.359375 101.894531 15.050781 100.28125 15.050781 C 98.667969 15.050781 97.359375 16.359375 97.359375 17.972656 C 97.359375 22.808594 101.292969 26.742188 106.125 26.742188 L 126.582031 26.742188 C 135.257812 26.742188 142.472656 33.070312 143.871094 41.351562 C 133.5 41.351562 104.367188 41.351562 94.4375 41.351562 C 53.371094 41.351562 20.039062 73.828125 18.511719 114.414062 L 15.527344 114.414062 C 14.640625 114.414062 13.800781 114.820312 13.246094 115.511719 L 1.558594 130.125 C 0.0273438 132.035156 1.394531 134.875 3.839844 134.875 L 133.890625 134.875 C 139.53125 134.875 144.117188 130.285156 144.117188 124.644531 C 144.117188 119.5 140.300781 115.234375 135.351562 114.523438 L 135.351562 58.886719 L 147.042969 58.886719 C 148.65625 58.886719 149.964844 57.578125 149.964844 55.964844 L 149.964844 44.277344 C 149.964844 31.382812 139.476562 20.894531 126.582031 20.894531 Z M 129.507812 114.414062 L 24.355469 114.414062 C 25.894531 77.089844 56.742188 47.199219 94.4375 47.199219 L 129.507812 47.199219 C 129.507812 49.691406 129.507812 111.953125 129.507812 114.414062 Z M 129.507812 114.414062 " fill-opacity="1" fill-rule="nonzero"/></g><path fill="#ff5757" d="M 109.050781 102.703125 C 107.433594 102.703125 106.125 104.015625 106.125 105.632812 C 106.125 107.246094 107.433594 108.558594 109.050781 108.558594 C 110.667969 108.558594 111.976562 107.246094 111.976562 105.632812 C 111.976562 104.015625 110.667969 102.703125 109.050781 102.703125 Z M 109.050781 102.703125 " fill-opacity="1" fill-rule="nonzero"/><path fill="#ff5757" d="M 120.742188 102.703125 C 119.125 102.703125 117.816406 104.015625 117.816406 105.632812 C 117.816406 107.246094 119.125 108.558594 120.742188 108.558594 C 122.359375 108.558594 123.671875 107.246094 123.671875 105.632812 C 123.671875 104.015625 122.359375 102.703125 120.742188 102.703125 Z M 120.742188 102.703125 " fill-opacity="1" fill-rule="nonzero"/></svg>