<svg xmlns="http://www.w3.org/2000/svg" xmlns:xlink="http://www.w3.org/1999/xlink" width="200" zoomAndPan="magnify" viewBox="0 0 150 157.92" height="200" preserveAspectRatio="xMidYMid meet" version="1.0"><defs><clipPath id="45f688ac28"><path d="M 0.0390625 0 L 149.960938 0 L 149.960938 149.925781 L 0.0390625 149.925781 Z M 0.0390625 0 " clip-rule="nonzero"/></clipPath></defs><path fill="#31a4e5" d="M 61.769531 97.007812 L 33.109375 97.007812 C 28.246094 97.007812 24.289062 100.964844 24.289062 105.828125 C 24.289062 110.691406 28.246094 114.648438 33.109375 114.648438 L 61.769531 114.648438 C 66.632812 114.648438 70.589844 110.691406 70.589844 105.828125 C 70.589844 100.964844 66.632812 97.007812 61.769531 97.007812 Z M 61.769531 110.238281 L 33.109375 110.238281 C 30.679688 110.238281 28.699219 108.261719 28.699219 105.828125 C 28.699219 103.398438 30.679688 101.417969 33.109375 101.417969 L 61.769531 101.417969 C 64.203125 101.417969 66.179688 103.398438 66.179688 105.828125 C 66.179688 108.261719 64.203125 110.238281 61.769531 110.238281 Z M 61.769531 110.238281 " fill-opacity="1" fill-rule="nonzero"/><path fill="#31a4e5" d="M 61.769531 121.261719 L 59.566406 121.261719 C 58.347656 121.261719 57.363281 122.25 57.363281 123.46875 C 57.363281 124.683594 58.347656 125.671875 59.566406 125.671875 L 61.769531 125.671875 C 64.203125 125.671875 66.179688 127.648438 66.179688 130.082031 C 66.179688 132.519531 64.207031 134.492188 61.769531 134.492188 L 33.109375 134.492188 C 30.679688 134.492188 28.699219 132.511719 28.699219 130.082031 C 28.699219 127.644531 30.671875 125.671875 33.109375 125.671875 L 41.929688 125.671875 C 43.144531 125.671875 44.132812 124.683594 44.132812 123.46875 C 44.132812 122.25 43.144531 121.261719 41.929688 121.261719 L 33.109375 121.261719 C 28.234375 121.261719 24.289062 125.207031 24.289062 130.082031 C 24.289062 134.945312 28.246094 138.898438 33.109375 138.898438 L 61.769531 138.898438 C 66.644531 138.898438 70.589844 134.957031 70.589844 130.082031 C 70.589844 125.21875 66.632812 121.261719 61.769531 121.261719 Z M 61.769531 121.261719 " fill-opacity="1" fill-rule="nonzero"/><path fill="#31a4e5" d="M 116.890625 97.007812 L 88.230469 97.007812 C 83.367188 97.007812 79.410156 100.964844 79.410156 105.828125 C 79.410156 110.691406 83.367188 114.648438 88.230469 114.648438 L 116.890625 114.648438 C 121.753906 114.648438 125.710938 110.691406 125.710938 105.828125 C 125.710938 100.964844 121.753906 97.007812 116.890625 97.007812 Z M 116.890625 110.238281 L 88.230469 110.238281 C 85.796875 110.238281 83.820312 108.261719 83.820312 105.828125 C 83.820312 103.398438 85.796875 101.417969 88.230469 101.417969 L 116.890625 101.417969 C 119.320312 101.417969 121.300781 103.398438 121.300781 105.828125 C 121.300781 108.261719 119.320312 110.238281 116.890625 110.238281 Z M 116.890625 110.238281 " fill-opacity="1" fill-rule="nonzero"/><path fill="#31a4e5" d="M 116.890625 121.261719 L 88.230469 121.261719 C 83.367188 121.261719 79.410156 125.21875 79.410156 130.082031 C 79.410156 134.945312 83.367188 138.898438 88.230469 138.898438 L 116.890625 138.898438 C 121.753906 138.898438 125.710938 134.945312 125.710938 130.082031 C 125.710938 125.21875 121.753906 121.261719 116.890625 121.261719 Z M 116.890625 134.492188 L 88.230469 134.492188 C 85.796875 134.492188 83.820312 132.511719 83.820312 130.082031 C 83.820312 127.648438 85.796875 125.671875 88.230469 125.671875 L 116.890625 125.671875 C 119.320312 125.671875 121.300781 127.648438 121.300781 130.082031 C 121.300781 132.511719 119.320312 134.492188 116.890625 134.492188 Z M 116.890625 134.492188 " fill-opacity="1" fill-rule="nonzero"/><path fill="#31a4e5" d="M 52.953125 123.46875 C 52.953125 123.757812 52.894531 124.039062 52.785156 124.3125 C 52.671875 124.582031 52.511719 124.820312 52.304688 125.027344 C 52.101562 125.234375 51.863281 125.390625 51.589844 125.503906 C 51.320312 125.617188 51.039062 125.671875 50.746094 125.671875 C 50.457031 125.671875 50.175781 125.617188 49.902344 125.503906 C 49.632812 125.390625 49.394531 125.234375 49.1875 125.027344 C 48.980469 124.820312 48.824219 124.582031 48.710938 124.3125 C 48.597656 124.039062 48.542969 123.757812 48.542969 123.46875 C 48.542969 123.175781 48.597656 122.894531 48.710938 122.625 C 48.824219 122.351562 48.980469 122.113281 49.1875 121.90625 C 49.394531 121.699219 49.632812 121.542969 49.902344 121.429688 C 50.175781 121.316406 50.457031 121.261719 50.746094 121.261719 C 51.039062 121.261719 51.320312 121.316406 51.589844 121.429688 C 51.863281 121.542969 52.101562 121.699219 52.304688 121.90625 C 52.511719 122.113281 52.671875 122.351562 52.785156 122.625 C 52.894531 122.894531 52.953125 123.175781 52.953125 123.46875 Z M 52.953125 123.46875 " fill-opacity="1" fill-rule="nonzero"/><g clip-path="url(#45f688ac28)"><path fill="#31a4e5" d="M 138.808594 66.183594 C 137.429688 54.84375 125.644531 47.746094 114.925781 51.898438 C 114.664062 52 114.378906 51.933594 114.179688 51.726562 C 112.429688 49.898438 110.347656 48.503906 108.070312 47.582031 L 108.070312 27.644531 L 115.886719 31.117188 C 118.789062 32.410156 122 32.441406 124.929688 31.214844 C 130.101562 29.046875 131.339844 24.199219 131.476562 23.96875 C 133.535156 18.484375 131.136719 12.375 125.898438 9.753906 L 109.957031 1.785156 C 107.617188 0.617188 105.003906 0 102.398438 0 L 90.433594 0 C 89.214844 0 88.230469 0.988281 88.230469 2.203125 C 88.230469 9.5 82.292969 15.433594 75 15.433594 C 67.707031 15.433594 61.769531 9.5 61.769531 2.203125 C 61.769531 0.988281 60.785156 0 59.566406 0 L 47.601562 0 C 44.996094 0 42.382812 0.617188 40.042969 1.785156 L 24.101562 9.753906 C 18.863281 12.375 16.464844 18.484375 18.523438 23.96875 C 18.695312 24.257812 19.800781 29.007812 25.070312 31.214844 C 28 32.441406 31.210938 32.410156 34.113281 31.117188 L 41.929688 27.644531 L 41.929688 46.300781 C 36.671875 46.300781 31.726562 48.625 28.359375 52.671875 C 28.226562 52.832031 28.039062 52.929688 27.839844 52.9375 C 20.0625 53.3125 13.527344 58.757812 11.636719 66.15625 C 5.175781 66.429688 0.0390625 71.742188 0.0390625 78.269531 C 0.0390625 82.996094 2.757812 87.097656 6.714844 89.097656 L 9.859375 131.546875 C 10.621094 141.851562 19.3125 149.925781 29.648438 149.925781 L 120.34375 149.925781 C 130.683594 149.925781 139.375 141.847656 140.132812 131.535156 L 143.246094 89.125 C 147.230469 87.132812 149.960938 83.035156 149.960938 78.269531 C 149.960938 71.910156 145.039062 66.683594 138.808594 66.183594 Z M 32.324219 27.089844 C 30.542969 27.878906 28.570312 27.902344 26.773438 27.148438 C 23.449219 25.753906 22.820312 22.710938 22.652344 22.417969 C 21.390625 19.054688 22.863281 15.304688 26.074219 13.699219 L 42.015625 5.730469 C 43.742188 4.867188 45.675781 4.410156 47.601562 4.410156 L 57.5 4.410156 C 58.585938 13.097656 66.019531 19.84375 75 19.84375 C 83.980469 19.84375 91.414062 13.097656 92.5 4.410156 L 102.398438 4.410156 C 104.324219 4.410156 106.257812 4.867188 107.984375 5.730469 L 123.925781 13.699219 C 127.140625 15.304688 128.609375 19.054688 127.347656 22.417969 C 127.171875 22.726562 126.582031 25.738281 123.226562 27.148438 C 121.429688 27.902344 119.457031 27.878906 117.675781 27.089844 L 106.761719 22.238281 C 105.300781 21.589844 103.660156 22.660156 103.660156 24.253906 L 103.660156 46.4375 C 98.386719 45.78125 93.121094 47.492188 89.246094 51.214844 C 89.078125 51.375 88.820312 51.429688 88.566406 51.359375 C 84.511719 50.226562 79.980469 50.539062 75.929688 52.566406 C 75.664062 52.703125 75.34375 52.660156 75.097656 52.457031 C 69.308594 47.746094 61.148438 47.195312 54.789062 51.085938 C 54.511719 51.257812 54.160156 51.234375 53.9375 51.027344 C 51.765625 49.003906 49.15625 47.589844 46.339844 46.863281 L 46.339844 24.253906 C 46.339844 22.660156 44.695312 21.589844 43.238281 22.238281 Z M 135.734375 131.210938 C 135.144531 139.230469 128.386719 145.515625 120.34375 145.515625 L 29.648438 145.515625 C 21.609375 145.515625 14.847656 139.234375 14.253906 131.222656 L 11.226562 90.355469 C 11.539062 90.378906 11.847656 90.394531 12.164062 90.394531 L 137.835938 90.394531 C 138.136719 90.394531 138.4375 90.378906 138.734375 90.359375 Z M 137.835938 85.984375 L 12.164062 85.984375 C 7.910156 85.984375 4.449219 82.523438 4.449219 78.269531 C 4.449219 74.042969 7.855469 70.550781 12.164062 70.550781 C 16.339844 70.550781 89.441406 70.550781 93.742188 70.550781 C 94.957031 70.550781 95.945312 69.566406 95.945312 68.347656 C 95.945312 67.128906 94.957031 66.144531 93.742188 66.144531 L 16.242188 66.144531 C 17.992188 61.167969 22.617188 57.605469 28.050781 57.34375 C 29.480469 57.273438 30.832031 56.601562 31.75 55.492188 C 36.640625 49.609375 45.402344 49.101562 50.933594 54.253906 C 52.597656 55.804688 55.128906 56.046875 57.089844 54.847656 C 61.855469 51.933594 67.976562 52.347656 72.316406 55.878906 C 73.902344 57.167969 76.097656 57.417969 77.90625 56.507812 C 80.949219 54.984375 84.355469 54.761719 87.378906 55.605469 C 89.128906 56.09375 91.011719 55.628906 92.300781 54.394531 C 97.566406 49.335938 105.933594 49.5 111 54.78125 C 112.429688 56.273438 114.597656 56.753906 116.519531 56.007812 C 124.335938 52.980469 132.976562 57.929688 134.347656 66.144531 L 111.378906 66.144531 C 110.160156 66.144531 109.175781 67.128906 109.175781 68.347656 C 109.175781 69.566406 110.160156 70.550781 111.378906 70.550781 L 137.835938 70.550781 C 142.089844 70.550781 145.550781 74.015625 145.550781 78.269531 C 145.550781 82.492188 142.144531 85.984375 137.835938 85.984375 Z M 137.835938 85.984375 " fill-opacity="1" fill-rule="nonzero"/></g><path fill="#31a4e5" d="M 104.765625 68.347656 C 104.765625 68.640625 104.707031 68.921875 104.597656 69.191406 C 104.484375 69.460938 104.324219 69.699219 104.117188 69.90625 C 103.910156 70.113281 103.671875 70.273438 103.402344 70.382812 C 103.132812 70.496094 102.851562 70.550781 102.558594 70.550781 C 102.265625 70.550781 101.984375 70.496094 101.714844 70.382812 C 101.445312 70.273438 101.207031 70.113281 101 69.90625 C 100.792969 69.699219 100.632812 69.460938 100.523438 69.191406 C 100.410156 68.921875 100.355469 68.640625 100.355469 68.347656 C 100.355469 68.054688 100.410156 67.773438 100.523438 67.503906 C 100.632812 67.234375 100.792969 66.996094 101 66.789062 C 101.207031 66.582031 101.445312 66.421875 101.714844 66.3125 C 101.984375 66.199219 102.265625 66.144531 102.558594 66.144531 C 102.851562 66.144531 103.132812 66.199219 103.402344 66.3125 C 103.671875 66.421875 103.910156 66.582031 104.117188 66.789062 C 104.324219 66.996094 104.484375 67.234375 104.597656 67.503906 C 104.707031 67.773438 104.765625 68.054688 104.765625 68.347656 Z M 104.765625 68.347656 " fill-opacity="1" fill-rule="nonzero"/></svg>