<svg xmlns="http://www.w3.org/2000/svg" xmlns:xlink="http://www.w3.org/1999/xlink" width="300" zoomAndPan="magnify" viewBox="0 0 224.87999 225" height="300" preserveAspectRatio="xMidYMid meet" version="1.0"><defs><clipPath id="d0765e3455"><path d="M 0 0.0585938 L 224.761719 0.0585938 L 224.761719 224.9375 L 0 224.9375 Z M 0 0.0585938 " clip-rule="nonzero"/></clipPath><clipPath id="d4a3e7348e"><path d="M 41.207031 3.203125 L 183.671875 3.203125 L 183.671875 145.664062 L 41.207031 145.664062 Z M 41.207031 3.203125 " clip-rule="nonzero"/></clipPath><clipPath id="552a887054"><path d="M 112.441406 3.203125 C 73.101562 3.203125 41.207031 35.09375 41.207031 74.433594 C 41.207031 113.773438 73.101562 145.664062 112.441406 145.664062 C 151.78125 145.664062 183.671875 113.773438 183.671875 74.433594 C 183.671875 35.09375 151.78125 3.203125 112.441406 3.203125 Z M 112.441406 3.203125 " clip-rule="nonzero"/></clipPath><clipPath id="70b281d728"><path d="M 0.207031 0.203125 L 142.671875 0.203125 L 142.671875 142.664062 L 0.207031 142.664062 Z M 0.207031 0.203125 " clip-rule="nonzero"/></clipPath><clipPath id="281347a950"><path d="M 71.441406 0.203125 C 32.101562 0.203125 0.207031 32.09375 0.207031 71.433594 C 0.207031 110.773438 32.101562 142.664062 71.441406 142.664062 C 110.78125 142.664062 142.671875 110.773438 142.671875 71.433594 C 142.671875 32.09375 110.78125 0.203125 71.441406 0.203125 Z M 71.441406 0.203125 " clip-rule="nonzero"/></clipPath><clipPath id="5ff3d30374"><rect x="0" width="143" y="0" height="143"/></clipPath><clipPath id="eb3ed8dc28"><path d="M 41.207031 3.203125 L 183.664062 3.203125 L 183.664062 145.660156 L 41.207031 145.660156 Z M 41.207031 3.203125 " clip-rule="nonzero"/></clipPath><clipPath id="7e8d533b2a"><path d="M 112.4375 3.203125 C 73.097656 3.203125 41.207031 35.09375 41.207031 74.429688 C 41.207031 113.769531 73.097656 145.660156 112.4375 145.660156 C 151.777344 145.660156 183.664062 113.769531 183.664062 74.429688 C 183.664062 35.09375 151.777344 3.203125 112.4375 3.203125 Z M 112.4375 3.203125 " clip-rule="nonzero"/></clipPath><clipPath id="92044598eb"><path d="M 92.1875 54.183594 L 132.691406 54.183594 L 132.691406 94.683594 L 92.1875 94.683594 Z M 92.1875 54.183594 " clip-rule="nonzero"/></clipPath><clipPath id="cf7ccd4f75"><path d="M 112.441406 54.183594 C 101.253906 54.183594 92.1875 63.25 92.1875 74.433594 C 92.1875 85.617188 101.253906 94.683594 112.441406 94.683594 C 123.625 94.683594 132.691406 85.617188 132.691406 74.433594 C 132.691406 63.25 123.625 54.183594 112.441406 54.183594 Z M 112.441406 54.183594 " clip-rule="nonzero"/></clipPath><clipPath id="a7ad4edf08"><path d="M 0.1875 0.183594 L 40.691406 0.183594 L 40.691406 40.683594 L 0.1875 40.683594 Z M 0.1875 0.183594 " clip-rule="nonzero"/></clipPath><clipPath id="04ff62203f"><path d="M 20.441406 0.183594 C 9.253906 0.183594 0.1875 9.25 0.1875 20.433594 C 0.1875 31.617188 9.253906 40.683594 20.441406 40.683594 C 31.625 40.683594 40.691406 31.617188 40.691406 20.433594 C 40.691406 9.25 31.625 0.183594 20.441406 0.183594 Z M 20.441406 0.183594 " clip-rule="nonzero"/></clipPath><clipPath id="a528b1b04d"><rect x="0" width="41" y="0" height="41"/></clipPath><clipPath id="2298ec5dfa"><rect x="0" width="225" y="0" height="225"/></clipPath></defs><g clip-path="url(#d0765e3455)"><g transform="matrix(1, 0, 0, 1, 0, -0.000000000000003234)"><g clip-path="url(#2298ec5dfa)"><g clip-path="url(#d4a3e7348e)"><g clip-path="url(#552a887054)"><g transform="matrix(1, 0, 0, 1, 41, 3)"><g clip-path="url(#5ff3d30374)"><g clip-path="url(#70b281d728)"><g clip-path="url(#281347a950)"><path fill="#f8fbfd" d="M 0.207031 0.203125 L 142.671875 0.203125 L 142.671875 142.664062 L 0.207031 142.664062 Z M 0.207031 0.203125 " fill-opacity="1" fill-rule="nonzero"/></g></g></g></g></g></g><g clip-path="url(#eb3ed8dc28)"><g clip-path="url(#7e8d533b2a)"><path stroke-linecap="butt" transform="matrix(1.55691, 0, 0, 1.55691, 41.208615, 3.202039)" fill="none" stroke-linejoin="miter" d="M 45.750149 0.00069723 C 20.482258 0.00069723 -0.00101711 20.483972 -0.00101711 45.749354 C -0.00101711 71.017245 20.482258 91.50052 45.750149 91.50052 C 71.01804 91.50052 91.498806 71.017245 91.498806 45.749354 C 91.498806 20.483972 71.01804 0.00069723 45.750149 0.00069723 Z M 45.750149 0.00069723 " stroke="#31a4e5" stroke-width="28.887978" stroke-opacity="1" stroke-miterlimit="4"/></g></g><g clip-path="url(#92044598eb)"><g clip-path="url(#cf7ccd4f75)"><g transform="matrix(1, 0, 0, 1, 92, 54)"><g clip-path="url(#a528b1b04d)"><g clip-path="url(#a7ad4edf08)"><g clip-path="url(#04ff62203f)"><path fill="#31a4e5" d="M 0.1875 0.183594 L 40.691406 0.183594 L 40.691406 40.683594 L 0.1875 40.683594 Z M 0.1875 0.183594 " fill-opacity="1" fill-rule="nonzero"/></g></g></g></g></g></g><path stroke-linecap="round" transform="matrix(0, -1.55691, 1.55691, 0, 100.757042, 221.791837)" fill="none" stroke-linejoin="miter" d="M 7.501109 7.499822 L 50.382007 7.499822 " stroke="#31a4e5" stroke-width="15" stroke-opacity="1" stroke-miterlimit="4"/></g></g></g></svg>