<svg xmlns="http://www.w3.org/2000/svg" xmlns:xlink="http://www.w3.org/1999/xlink" width="300" zoomAndPan="magnify" viewBox="0 0 224.87999 225" height="300" preserveAspectRatio="xMidYMid meet" version="1.0"><defs><clipPath id="1090fa6e55"><path d="M 0.636719 46 L 208.363281 46 L 208.363281 190.550781 L 0.636719 190.550781 Z M 0.636719 46 " clip-rule="nonzero"/></clipPath><clipPath id="96983d8c53"><path d="M 0.820312 0.535156 L 98.671875 0.535156 L 98.671875 133.96875 L 0.820312 133.96875 Z M 0.820312 0.535156 " clip-rule="nonzero"/></clipPath><clipPath id="d4a5615295"><path d="M 16.621094 16.1875 L 83 16.1875 L 83 106.257812 L 16.621094 106.257812 Z M 16.621094 16.1875 " clip-rule="nonzero"/></clipPath><clipPath id="299f2da905"><path d="M 32.539062 32.675781 L 67.113281 32.675781 L 67.113281 67.25 L 32.539062 67.25 Z M 32.539062 32.675781 " clip-rule="nonzero"/></clipPath><clipPath id="c233feba76"><path d="M 49.828125 32.675781 C 40.277344 32.675781 32.539062 40.414062 32.539062 49.964844 C 32.539062 59.511719 40.277344 67.25 49.828125 67.25 C 59.375 67.25 67.113281 59.511719 67.113281 49.964844 C 67.113281 40.414062 59.375 32.675781 49.828125 32.675781 Z M 49.828125 32.675781 " clip-rule="nonzero"/></clipPath><clipPath id="6efab390fb"><path d="M 0.539062 0.675781 L 35.113281 0.675781 L 35.113281 35.25 L 0.539062 35.25 Z M 0.539062 0.675781 " clip-rule="nonzero"/></clipPath><clipPath id="5b6ef6dec8"><path d="M 17.828125 0.675781 C 8.277344 0.675781 0.539062 8.414062 0.539062 17.964844 C 0.539062 27.511719 8.277344 35.25 17.828125 35.25 C 27.375 35.25 35.113281 27.511719 35.113281 17.964844 C 35.113281 8.414062 27.375 0.675781 17.828125 0.675781 Z M 17.828125 0.675781 " clip-rule="nonzero"/></clipPath><clipPath id="9c78e82b73"><rect x="0" width="36" y="0" height="36"/></clipPath><clipPath id="c69bd083fb"><path d="M 32.539062 32.675781 L 67.007812 32.675781 L 67.007812 67.144531 L 32.539062 67.144531 Z M 32.539062 32.675781 " clip-rule="nonzero"/></clipPath><clipPath id="f5456cce53"><path d="M 49.824219 32.675781 C 40.277344 32.675781 32.539062 40.414062 32.539062 49.960938 C 32.539062 59.507812 40.277344 67.25 49.824219 67.25 C 59.371094 67.25 67.113281 59.507812 67.113281 49.960938 C 67.113281 40.414062 59.371094 32.675781 49.824219 32.675781 Z M 49.824219 32.675781 " clip-rule="nonzero"/></clipPath><clipPath id="84554b9f09"><path d="M 110.046875 53.464844 L 207.898438 53.464844 L 207.898438 186.894531 L 110.046875 186.894531 Z M 110.046875 53.464844 " clip-rule="nonzero"/></clipPath><clipPath id="b5952cba23"><path d="M 125.847656 69.117188 L 192.5625 69.117188 L 192.5625 159.183594 L 125.847656 159.183594 Z M 125.847656 69.117188 " clip-rule="nonzero"/></clipPath><clipPath id="f30efccced"><path d="M 141.765625 85.601562 L 176.34375 85.601562 L 176.34375 120.179688 L 141.765625 120.179688 Z M 141.765625 85.601562 " clip-rule="nonzero"/></clipPath><clipPath id="ebd4b28342"><path d="M 159.054688 85.601562 C 149.503906 85.601562 141.765625 93.34375 141.765625 102.890625 C 141.765625 112.441406 149.503906 120.179688 159.054688 120.179688 C 168.601562 120.179688 176.34375 112.441406 176.34375 102.890625 C 176.34375 93.34375 168.601562 85.601562 159.054688 85.601562 Z M 159.054688 85.601562 " clip-rule="nonzero"/></clipPath><clipPath id="f5061903e8"><path d="M 0.765625 0.601562 L 35.34375 0.601562 L 35.34375 35.179688 L 0.765625 35.179688 Z M 0.765625 0.601562 " clip-rule="nonzero"/></clipPath><clipPath id="01fee43333"><path d="M 18.054688 0.601562 C 8.503906 0.601562 0.765625 8.34375 0.765625 17.890625 C 0.765625 27.441406 8.503906 35.179688 18.054688 35.179688 C 27.601562 35.179688 35.34375 27.441406 35.34375 17.890625 C 35.34375 8.34375 27.601562 0.601562 18.054688 0.601562 Z M 18.054688 0.601562 " clip-rule="nonzero"/></clipPath><clipPath id="3042b1139a"><rect x="0" width="36" y="0" height="36"/></clipPath><clipPath id="39375e3f26"><path d="M 141.765625 85.601562 L 176.234375 85.601562 L 176.234375 120.074219 L 141.765625 120.074219 Z M 141.765625 85.601562 " clip-rule="nonzero"/></clipPath><clipPath id="6eae0c56d0"><path d="M 159.050781 85.601562 C 149.503906 85.601562 141.765625 93.34375 141.765625 102.890625 C 141.765625 112.4375 149.503906 120.175781 159.050781 120.175781 C 168.597656 120.175781 176.339844 112.4375 176.339844 102.890625 C 176.339844 93.34375 168.597656 85.601562 159.050781 85.601562 Z M 159.050781 85.601562 " clip-rule="nonzero"/></clipPath><clipPath id="8c7e33c73f"><rect x="0" width="209" y="0" height="191"/></clipPath></defs><g transform="matrix(1, 0, 0, 1, 8, 17)"><g clip-path="url(#8c7e33c73f)"><g clip-path="url(#1090fa6e55)"><path stroke-linecap="round" transform="matrix(-0.984558, -0.51677, 0.51677, -0.984558, 157.425199, 190.461199)" fill="none" stroke-linejoin="miter" d="M 6.501168 6.498816 L 107.340786 6.501241 " stroke="#31a4e5" stroke-width="13" stroke-opacity="1" stroke-miterlimit="4"/></g><g clip-path="url(#96983d8c53)"><path fill="#31a4e5" d="M 98.789062 49.53125 C 98.789062 22.480469 76.871094 0.542969 49.808594 0.542969 C 22.75 0.542969 0.832031 22.480469 0.832031 49.53125 C 0.828125 52.082031 1.023438 54.617188 1.417969 57.136719 C 1.808594 59.65625 2.398438 62.128906 3.179688 64.554688 C 3.964844 66.984375 4.929688 69.335938 6.082031 71.609375 C 7.234375 73.882812 8.558594 76.054688 10.050781 78.121094 L 10.035156 78.121094 L 44.414062 126.375 L 49.808594 133.960938 L 55.199219 126.375 L 89.585938 78.121094 L 89.566406 78.121094 C 91.0625 76.054688 92.386719 73.882812 93.539062 71.609375 C 94.6875 69.335938 95.65625 66.984375 96.441406 64.554688 C 97.222656 62.128906 97.808594 59.65625 98.203125 57.136719 C 98.597656 54.617188 98.792969 52.082031 98.789062 49.53125 Z M 49.808594 63.3125 C 48.90625 63.3125 48.007812 63.226562 47.121094 63.046875 C 46.234375 62.871094 45.371094 62.609375 44.535156 62.265625 C 43.699219 61.917969 42.90625 61.492188 42.152344 60.992188 C 41.402344 60.488281 40.707031 59.917969 40.066406 59.277344 C 39.425781 58.636719 38.855469 57.941406 38.351562 57.1875 C 37.847656 56.4375 37.425781 55.640625 37.078125 54.804688 C 36.730469 53.96875 36.46875 53.109375 36.292969 52.21875 C 36.117188 51.332031 36.027344 50.4375 36.027344 49.53125 C 36.027344 48.625 36.117188 47.730469 36.292969 46.84375 C 36.46875 45.957031 36.730469 45.09375 37.078125 44.257812 C 37.425781 43.421875 37.847656 42.628906 38.351562 41.875 C 38.855469 41.121094 39.425781 40.425781 40.066406 39.785156 C 40.707031 39.144531 41.402344 38.574219 42.152344 38.074219 C 42.90625 37.570312 43.699219 37.144531 44.535156 36.796875 C 45.371094 36.453125 46.234375 36.191406 47.121094 36.015625 C 48.007812 35.839844 48.90625 35.75 49.808594 35.75 C 50.714844 35.75 51.613281 35.839844 52.5 36.015625 C 53.386719 36.191406 54.25 36.453125 55.085938 36.796875 C 55.921875 37.144531 56.714844 37.570312 57.46875 38.074219 C 58.21875 38.574219 58.914062 39.144531 59.554688 39.785156 C 60.195312 40.425781 60.765625 41.121094 61.269531 41.875 C 61.773438 42.628906 62.195312 43.421875 62.542969 44.257812 C 62.890625 45.09375 63.152344 45.957031 63.328125 46.84375 C 63.503906 47.730469 63.59375 48.625 63.59375 49.53125 C 63.59375 50.4375 63.503906 51.332031 63.328125 52.222656 C 63.152344 53.109375 62.890625 53.972656 62.546875 54.808594 C 62.199219 55.644531 61.777344 56.4375 61.273438 57.191406 C 60.769531 57.945312 60.199219 58.640625 59.558594 59.28125 C 58.917969 59.917969 58.222656 60.492188 57.46875 60.992188 C 56.71875 61.496094 55.921875 61.921875 55.085938 62.265625 C 54.25 62.613281 53.386719 62.875 52.5 63.050781 C 51.613281 63.226562 50.714844 63.3125 49.808594 63.3125 Z M 49.808594 63.3125 " fill-opacity="1" fill-rule="nonzero"/></g><g clip-path="url(#d4a5615295)"><path fill="#f8fbfd" d="M 82.996094 49.390625 C 82.996094 31.0625 68.148438 16.199219 49.8125 16.199219 C 31.476562 16.199219 16.628906 31.0625 16.628906 49.390625 C 16.621094 52.867188 17.152344 56.261719 18.21875 59.570312 C 19.285156 62.878906 20.835938 65.945312 22.875 68.761719 L 22.863281 68.761719 L 46.15625 101.457031 L 49.8125 106.59375 L 53.464844 101.457031 L 76.761719 68.761719 L 76.75 68.761719 C 78.785156 65.945312 80.339844 62.878906 81.40625 59.570312 C 82.472656 56.261719 83.003906 52.867188 82.996094 49.390625 Z M 49.8125 58.726562 C 49.199219 58.726562 48.589844 58.667969 47.992188 58.546875 C 47.390625 58.429688 46.804688 58.253906 46.238281 58.015625 C 45.671875 57.78125 45.132812 57.496094 44.625 57.15625 C 44.113281 56.8125 43.644531 56.425781 43.210938 55.992188 C 42.777344 55.558594 42.386719 55.089844 42.046875 54.578125 C 41.707031 54.070312 41.417969 53.53125 41.183594 52.964844 C 40.949219 52.398438 40.773438 51.8125 40.652344 51.210938 C 40.535156 50.609375 40.472656 50.003906 40.472656 49.390625 C 40.472656 48.777344 40.535156 48.171875 40.652344 47.570312 C 40.773438 46.96875 40.949219 46.382812 41.183594 45.816406 C 41.417969 45.25 41.707031 44.710938 42.046875 44.203125 C 42.386719 43.691406 42.777344 43.222656 43.210938 42.789062 C 43.644531 42.355469 44.113281 41.96875 44.625 41.625 C 45.132812 41.285156 45.671875 41 46.238281 40.761719 C 46.804688 40.527344 47.390625 40.351562 47.992188 40.230469 C 48.589844 40.113281 49.199219 40.050781 49.8125 40.050781 C 50.425781 40.050781 51.03125 40.113281 51.632812 40.230469 C 52.234375 40.351562 52.820312 40.527344 53.386719 40.761719 C 53.953125 41 54.488281 41.285156 55 41.625 C 55.507812 41.96875 55.980469 42.355469 56.414062 42.789062 C 56.847656 43.222656 57.234375 43.691406 57.574219 44.203125 C 57.917969 44.710938 58.203125 45.25 58.4375 45.816406 C 58.671875 46.382812 58.851562 46.96875 58.96875 47.570312 C 59.089844 48.171875 59.148438 48.777344 59.148438 49.390625 C 59.148438 50.003906 59.089844 50.609375 58.972656 51.210938 C 58.851562 51.8125 58.675781 52.398438 58.441406 52.964844 C 58.207031 53.53125 57.917969 54.070312 57.578125 54.578125 C 57.238281 55.089844 56.851562 55.5625 56.417969 55.996094 C 55.984375 56.429688 55.511719 56.816406 55 57.15625 C 54.492188 57.496094 53.953125 57.785156 53.386719 58.019531 C 52.820312 58.253906 52.234375 58.429688 51.632812 58.550781 C 51.03125 58.667969 50.425781 58.730469 49.8125 58.726562 Z M 49.8125 58.726562 " fill-opacity="1" fill-rule="nonzero"/></g><g clip-path="url(#299f2da905)"><g clip-path="url(#c233feba76)"><g transform="matrix(1, 0, 0, 1, 32, 32)"><g clip-path="url(#9c78e82b73)"><g clip-path="url(#6efab390fb)"><g clip-path="url(#5b6ef6dec8)"><path fill="#f8fbfd" d="M 0.539062 0.675781 L 35.113281 0.675781 L 35.113281 35.25 L 0.539062 35.25 Z M 0.539062 0.675781 " fill-opacity="1" fill-rule="nonzero"/></g></g></g></g></g></g><g clip-path="url(#c69bd083fb)"><g clip-path="url(#f5456cce53)"><path stroke-linecap="butt" transform="matrix(1.111938, 0, 0, 1.111938, 32.537962, 32.674589)" fill="none" stroke-linejoin="miter" d="M 15.54606 0.00107222 C 6.960263 0.00107222 0.000989711 6.960346 0.000989711 15.546143 C 0.000989711 24.13194 6.960263 31.094726 15.54606 31.094726 C 24.131858 31.094726 31.094644 24.13194 31.094644 15.546143 C 31.094644 6.960346 24.131858 0.00107222 15.54606 0.00107222 Z M 15.54606 0.00107222 " stroke="#31a4e5" stroke-width="13.482762" stroke-opacity="1" stroke-miterlimit="4"/></g></g><g clip-path="url(#84554b9f09)"><path fill="#31a4e5" d="M 208.015625 102.460938 C 208.015625 75.410156 186.097656 53.472656 159.039062 53.472656 C 131.976562 53.472656 110.0625 75.410156 110.0625 102.460938 C 110.054688 105.011719 110.25 107.542969 110.644531 110.066406 C 111.035156 112.585938 111.625 115.058594 112.40625 117.484375 C 113.191406 119.910156 114.15625 122.261719 115.308594 124.539062 C 116.460938 126.8125 117.785156 128.984375 119.28125 131.050781 L 119.261719 131.050781 L 153.640625 179.304688 L 159.039062 186.886719 L 164.425781 179.304688 L 198.8125 131.050781 L 198.796875 131.050781 C 200.289062 128.984375 201.613281 126.8125 202.765625 124.539062 C 203.917969 122.261719 204.882812 119.910156 205.667969 117.484375 C 206.449219 115.058594 207.039062 112.585938 207.429688 110.0625 C 207.824219 107.542969 208.019531 105.011719 208.015625 102.460938 Z M 159.039062 116.242188 C 158.132812 116.242188 157.234375 116.152344 156.347656 115.976562 C 155.460938 115.800781 154.597656 115.539062 153.761719 115.191406 C 152.925781 114.847656 152.132812 114.421875 151.378906 113.917969 C 150.628906 113.417969 149.933594 112.84375 149.292969 112.203125 C 148.652344 111.566406 148.082031 110.867188 147.578125 110.117188 C 147.074219 109.363281 146.652344 108.570312 146.304688 107.734375 C 145.957031 106.898438 145.695312 106.035156 145.519531 105.148438 C 145.34375 104.261719 145.253906 103.363281 145.253906 102.460938 C 145.253906 101.554688 145.34375 100.660156 145.519531 99.769531 C 145.695312 98.882812 145.957031 98.023438 146.304688 97.1875 C 146.652344 96.351562 147.074219 95.554688 147.578125 94.804688 C 148.082031 94.050781 148.652344 93.355469 149.292969 92.714844 C 149.933594 92.074219 150.628906 91.503906 151.378906 91 C 152.132812 90.496094 152.925781 90.074219 153.761719 89.726562 C 154.597656 89.378906 155.460938 89.121094 156.347656 88.941406 C 157.234375 88.765625 158.132812 88.679688 159.039062 88.679688 C 159.941406 88.679688 160.839844 88.765625 161.726562 88.941406 C 162.613281 89.121094 163.476562 89.378906 164.3125 89.726562 C 165.148438 90.074219 165.941406 90.496094 166.695312 91 C 167.445312 91.503906 168.144531 92.074219 168.78125 92.714844 C 169.421875 93.355469 169.992188 94.050781 170.496094 94.804688 C 171 95.554688 171.425781 96.351562 171.769531 97.1875 C 172.117188 98.023438 172.378906 98.882812 172.554688 99.769531 C 172.730469 100.660156 172.820312 101.554688 172.820312 102.460938 C 172.820312 103.363281 172.730469 104.261719 172.554688 105.148438 C 172.378906 106.035156 172.117188 106.898438 171.773438 107.734375 C 171.425781 108.570312 171.003906 109.367188 170.5 110.117188 C 169.996094 110.871094 169.425781 111.566406 168.785156 112.207031 C 168.144531 112.847656 167.449219 113.417969 166.695312 113.921875 C 165.945312 114.425781 165.148438 114.847656 164.3125 115.195312 C 163.476562 115.542969 162.613281 115.800781 161.726562 115.980469 C 160.839844 116.15625 159.941406 116.242188 159.039062 116.242188 Z M 159.039062 116.242188 " fill-opacity="1" fill-rule="nonzero"/></g><g clip-path="url(#b5952cba23)"><path fill="#f8fbfd" d="M 192.222656 102.320312 C 192.222656 83.992188 177.375 69.128906 159.039062 69.128906 C 140.703125 69.128906 125.855469 83.992188 125.855469 102.320312 C 125.847656 105.796875 126.378906 109.1875 127.445312 112.5 C 128.511719 115.808594 130.066406 118.871094 132.101562 121.691406 L 132.089844 121.691406 L 155.382812 154.382812 L 159.039062 159.523438 L 162.691406 154.382812 L 185.988281 121.691406 L 185.976562 121.691406 C 188.011719 118.871094 189.566406 115.808594 190.632812 112.5 C 191.699219 109.1875 192.230469 105.796875 192.222656 102.320312 Z M 159.039062 111.65625 C 158.425781 111.65625 157.820312 111.597656 157.21875 111.476562 C 156.617188 111.355469 156.03125 111.179688 155.464844 110.945312 C 154.898438 110.710938 154.359375 110.421875 153.851562 110.082031 C 153.339844 109.742188 152.871094 109.355469 152.4375 108.921875 C 152.003906 108.488281 151.617188 108.015625 151.273438 107.507812 C 150.933594 106.996094 150.648438 106.457031 150.410156 105.890625 C 150.175781 105.324219 150 104.742188 149.878906 104.140625 C 149.761719 103.539062 149.703125 102.933594 149.703125 102.320312 C 149.703125 101.707031 149.761719 101.097656 149.878906 100.496094 C 150 99.894531 150.175781 99.3125 150.410156 98.746094 C 150.648438 98.179688 150.933594 97.640625 151.273438 97.132812 C 151.617188 96.621094 152.003906 96.148438 152.4375 95.714844 C 152.871094 95.28125 153.339844 94.894531 153.851562 94.554688 C 154.359375 94.214844 154.898438 93.925781 155.464844 93.691406 C 156.03125 93.457031 156.617188 93.28125 157.21875 93.160156 C 157.820312 93.039062 158.425781 92.980469 159.039062 92.980469 C 159.652344 92.980469 160.257812 93.039062 160.859375 93.160156 C 161.460938 93.28125 162.046875 93.457031 162.613281 93.691406 C 163.179688 93.925781 163.71875 94.214844 164.226562 94.554688 C 164.738281 94.894531 165.207031 95.28125 165.640625 95.714844 C 166.074219 96.148438 166.460938 96.621094 166.804688 97.132812 C 167.144531 97.640625 167.429688 98.179688 167.664062 98.746094 C 167.902344 99.3125 168.078125 99.894531 168.195312 100.496094 C 168.316406 101.097656 168.375 101.707031 168.375 102.320312 C 168.378906 102.933594 168.316406 103.539062 168.199219 104.140625 C 168.078125 104.742188 167.902344 105.328125 167.667969 105.894531 C 167.433594 106.460938 167.144531 107 166.804688 107.507812 C 166.464844 108.019531 166.078125 108.488281 165.644531 108.921875 C 165.210938 109.355469 164.738281 109.746094 164.226562 110.085938 C 163.71875 110.425781 163.179688 110.714844 162.613281 110.949219 C 162.046875 111.183594 161.460938 111.359375 160.859375 111.476562 C 160.257812 111.597656 159.652344 111.65625 159.039062 111.65625 Z M 159.039062 111.65625 " fill-opacity="1" fill-rule="nonzero"/></g><g clip-path="url(#f30efccced)"><g clip-path="url(#ebd4b28342)"><g transform="matrix(1, 0, 0, 1, 141, 85)"><g clip-path="url(#3042b1139a)"><g clip-path="url(#f5061903e8)"><g clip-path="url(#01fee43333)"><path fill="#f8fbfd" d="M 0.765625 0.601562 L 35.34375 0.601562 L 35.34375 35.179688 L 0.765625 35.179688 Z M 0.765625 0.601562 " fill-opacity="1" fill-rule="nonzero"/></g></g></g></g></g></g><g clip-path="url(#39375e3f26)"><g clip-path="url(#6eae0c56d0)"><path stroke-linecap="butt" transform="matrix(1.111938, 0, 0, 1.111938, 141.764883, 85.602856)" fill="none" stroke-linejoin="miter" d="M 15.545737 -0.00116352 C 6.95994 -0.00116352 0.000666884 6.961623 0.000666884 15.54742 C 0.000666884 24.133217 6.95994 31.092491 15.545737 31.092491 C 24.131535 31.092491 31.094321 24.133217 31.094321 15.54742 C 31.094321 6.961623 24.131535 -0.00116352 15.545737 -0.00116352 Z M 15.545737 -0.00116352 " stroke="#31a4e5" stroke-width="13.482762" stroke-opacity="1" stroke-miterlimit="4"/></g></g></g></g></svg>