<?xml version="1.0" encoding="UTF-8"?>
<svg version="1.1" xmlns="http://www.w3.org/2000/svg" width="200" height="200">
<path d="M0 0 C0.82639481 -0.00817749 1.65278961 -0.01635498 2.50422668 -0.02478027 C5.24149862 -0.04960893 7.97871871 -0.06614548 10.71606445 -0.08056641 C11.65212839 -0.08589008 12.58819233 -0.09121376 13.55262184 -0.09669876 C18.50903123 -0.12342174 23.46541552 -0.14279775 28.421875 -0.15722656 C32.51813127 -0.17055644 36.6138883 -0.19839271 40.70996094 -0.23925781 C45.66070968 -0.28864764 50.61100615 -0.31335564 55.56199074 -0.32045364 C57.44499459 -0.32715499 59.3279888 -0.34234792 61.21085167 -0.36634445 C63.85333741 -0.39809565 66.49409099 -0.39801799 69.13671875 -0.390625 C69.90740692 -0.40703033 70.67809509 -0.42343567 71.47213745 -0.44033813 C77.30565815 -0.37388952 81.41077721 1.44333683 85.8918457 5.19287109 C86.6343457 6.26537109 87.3768457 7.33787109 88.1418457 8.44287109 C91.93856458 12.23958997 95.03724751 11.91265509 100.24731445 11.98974609 C102.8918457 12.19287109 102.8918457 12.19287109 104.8918457 14.19287109 C106.25276677 14.788627 107.6304468 15.34658336 109.0168457 15.88037109 C116.5088702 19.1498375 121.80563674 23.82368453 125.20043945 31.29833984 C126.6460951 35.25959966 127.02137455 38.73581912 127.03901672 42.95950317 C127.04974968 44.72566734 127.04974968 44.72566734 127.06069946 46.5275116 C127.06338837 47.81587418 127.06607727 49.10423676 127.06884766 50.43164062 C127.07511577 51.80515209 127.08176288 53.17866186 127.08876038 54.5521698 C127.10976635 59.0599958 127.12016131 63.567822 127.13012695 68.07568359 C127.13417617 69.63067518 127.13829314 71.18566658 127.14247704 72.74065781 C127.16152317 80.04917706 127.17575394 87.35768626 127.184089 94.66622555 C127.19385171 103.0863797 127.22014821 111.5062703 127.2605899 119.92633164 C127.29081611 126.44456355 127.30556413 132.96272021 127.30887002 139.48102081 C127.31121359 143.36920178 127.32008279 147.25710103 127.34533119 151.14520645 C127.36873056 154.80772882 127.37279811 158.46978633 127.36256981 162.13236427 C127.36184382 164.10330329 127.38085242 166.07421933 127.40063477 168.0450592 C127.34404279 177.779084 125.57516634 186.41330086 118.68551636 193.67122841 C110.80914548 200.35306941 102.67382704 200.91783137 92.6965332 200.83984375 C91.29257072 200.84663311 89.88861715 200.8555436 88.48468018 200.86639404 C84.69937219 200.88903809 80.91475148 200.88041368 77.12943268 200.86449862 C73.15161914 200.85176163 69.17386099 200.86360123 65.19604492 200.87142944 C58.51836681 200.88050347 51.840966 200.86859746 45.16333008 200.84472656 C37.46391767 200.81751938 29.76516748 200.82633515 22.0657711 200.85385859 C15.43271439 200.87661308 8.79985601 200.87971893 2.16677284 200.86666524 C-1.78502619 200.85890538 -5.73651487 200.85773275 -9.68829346 200.87434769 C-13.40524243 200.88888619 -17.12134505 200.87860245 -20.83820343 200.8498764 C-22.83766037 200.84020732 -24.83718965 200.85488543 -26.83660889 200.87051392 C-35.44556072 200.77027829 -42.36893987 199.35837716 -48.97903442 193.54847145 C-56.85620231 185.46716038 -57.63617639 175.65988166 -57.55737305 164.97021484 C-57.54496582 164.18630371 -57.53255859 163.40239258 -57.51977539 162.59472656 C-57.48280544 160.16999071 -57.47876002 157.74676826 -57.47924805 155.32177734 C-57.46943147 153.77879532 -57.45778088 152.23582362 -57.4440918 150.69287109 C-57.44186615 149.96898193 -57.4396405 149.24509277 -57.43734741 148.49926758 C-57.34046884 143.42518564 -57.34046884 143.42518564 -55.1081543 141.19287109 C-52.4831543 141.56787109 -52.4831543 141.56787109 -50.1081543 142.19287109 C-50.09357178 143.1809375 -50.07898926 144.16900391 -50.06396484 145.18701172 C-50.00559094 148.88495422 -49.92836406 152.58231245 -49.84570312 156.27978516 C-49.81263632 157.87408907 -49.7845487 159.46850492 -49.76171875 161.06298828 C-49.72783357 163.36718036 -49.67550693 165.67036334 -49.61987305 167.97412109 C-49.61348312 168.67653931 -49.6070932 169.37895752 -49.60050964 170.10266113 C-49.39011664 177.33148871 -47.33844566 183.96257974 -42.1081543 189.19287109 C-26.85619632 196.81885008 -8.15615285 192.81402668 8.8918457 193.19287109 C8.5618457 148.97287109 8.2318457 104.75287109 7.8918457 59.19287109 C7.5618457 59.19287109 7.2318457 59.19287109 6.8918457 59.19287109 C0.72830298 58.70945598 -3.30776197 57.13989725 -7.6328125 52.58837891 C-9.19497459 50.74115443 -10.69060351 48.85643354 -12.1706543 46.94287109 C-12.6740332 46.31251953 -13.17741211 45.68216797 -13.69604492 45.03271484 C-23.64125004 32.39857328 -23.64125004 32.39857328 -23.9206543 25.69287109 C-23.96834961 24.83693359 -24.01604492 23.98099609 -24.06518555 23.09912109 C-24.07936523 22.47005859 -24.09354492 21.84099609 -24.1081543 21.19287109 C-32.85743417 22.17943678 -39.02613586 22.99746325 -45.3581543 29.50537109 C-49.05852315 35.1880804 -49.40834606 41.13239334 -49.42700195 47.69848633 C-49.43704758 48.51880844 -49.4470932 49.33913055 -49.45744324 50.18431091 C-49.48812925 52.87335564 -49.50526952 55.56230147 -49.5222168 58.25146484 C-49.5409402 60.12476951 -49.56051448 61.99806585 -49.5809021 63.87135315 C-49.63210549 68.785096 -49.67179419 73.69886615 -49.70904541 78.61273193 C-49.74915916 83.63365367 -49.80021781 88.65446296 -49.8503418 93.67529297 C-49.94696138 103.51440655 -50.03141068 113.3535838 -50.1081543 123.19287109 C-52.0881543 124.18287109 -52.0881543 124.18287109 -54.1081543 125.19287109 C-55.58389282 124.19290161 -55.58389282 124.19290161 -57.1081543 122.19287109 C-57.40433291 119.45062678 -57.51797403 116.93538215 -57.49633789 114.19238281 C-57.50159485 113.37734787 -57.50685181 112.56231293 -57.51226807 111.72257996 C-57.52549276 109.02237893 -57.51671648 106.32276588 -57.5065918 103.62255859 C-57.508613 101.7426848 -57.51152482 99.86281178 -57.51528931 97.98294067 C-57.51971697 94.03689126 -57.51327174 90.09104531 -57.49926758 86.14501953 C-57.48224589 81.10467593 -57.49196935 76.06481404 -57.50998497 71.02448845 C-57.52087118 67.13809643 -57.51735314 63.25181686 -57.50960159 59.3654213 C-57.50760926 57.50841336 -57.51002466 55.65139501 -57.51704025 53.79439926 C-57.52472658 51.18590408 -57.512948 48.57816593 -57.49633789 45.96972656 C-57.50241058 45.21198441 -57.50848328 44.45424225 -57.51473999 43.67353821 C-57.40782115 34.53254984 -54.56100085 27.75752713 -48.3034668 21.14208984 C-42.46530804 15.95838661 -36.1198658 14.05414128 -28.4206543 14.13037109 C-26.65141602 14.14390625 -26.65141602 14.14390625 -24.84643555 14.15771484 C-23.94280273 14.16931641 -23.03916992 14.18091797 -22.1081543 14.19287109 C-21.86967773 13.45552734 -21.63120117 12.71818359 -21.38549805 11.95849609 C-19.91903521 8.78340225 -18.30995825 7.21379929 -15.6706543 4.94287109 C-14.88819336 4.25708984 -14.10573242 3.57130859 -13.29956055 2.86474609 C-9.15261869 -0.29905268 -4.9866384 0.02720616 0 0 Z M-14.1081543 12.19287109 C-16.83490289 16.94269122 -17.77632545 20.75204887 -17.1081543 26.19287109 C-14.71769387 32.48050639 -10.75392411 37.51593358 -6.4831543 42.63037109 C-5.60530273 43.70834961 -5.60530273 43.70834961 -4.7097168 44.80810547 C-0.87845982 49.72413665 -0.87845982 49.72413665 4.86450195 51.63037109 C10.4332829 51.54951765 14.78815922 48.09609183 19.3293457 45.19287109 C20.25166992 44.62052734 21.17399414 44.04818359 22.12426758 43.45849609 C24.38917759 42.05026189 26.6441412 40.62834777 28.8918457 39.19287109 C27.20548566 34.8477633 23.99280949 31.93436376 20.7824707 28.67724609 C19.87582672 27.75350189 19.87582672 27.75350189 18.9508667 26.81109619 C17.67263334 25.51400655 16.3914951 24.21977402 15.10766602 22.92822266 C13.14854832 20.9496403 11.21178262 18.95077193 9.2746582 16.95068359 C8.02858834 15.69155749 6.78123414 14.43370084 5.5324707 13.17724609 C4.9572467 12.57732849 4.38202271 11.97741089 3.78936768 11.35931396 C0.95878624 8.55941801 -0.34557786 7.2918651 -4.39746094 6.76586914 C-8.59894277 7.42770754 -11.13389433 9.21110037 -14.1081543 12.19287109 Z M10.8918457 7.19287109 C10.56558714 10.35326194 10.56558714 10.35326194 13.00317383 12.64477539 C13.96881672 13.6099431 14.94272174 14.56688893 15.9230957 15.51708984 C16.43360474 16.02335403 16.94411377 16.52961823 17.47009277 17.05122375 C19.10377978 18.66810514 20.74758314 20.27425235 22.3918457 21.88037109 C23.5006004 22.97408141 24.60868217 24.06847435 25.71606445 25.16357422 C28.4335771 27.84799268 31.16020932 30.52282919 33.8918457 33.19287109 C37.75513198 31.6081353 40.18061493 29.13330222 43.0949707 26.18505859 C43.8189505 25.45683395 43.8189505 25.45683395 44.55755615 24.71389771 C46.09043132 23.16987243 47.61618574 21.61902285 49.1418457 20.06787109 C50.18304931 19.01663101 51.22471111 17.96584452 52.2668457 16.91552734 C54.81384035 14.34654106 57.35449747 11.77138948 59.8918457 9.19287109 C59.3968457 8.20287109 59.3968457 8.20287109 58.8918457 7.19287109 C43.0518457 7.19287109 27.2118457 7.19287109 10.8918457 7.19287109 Z M63.7434082 13.68505859 C63.08601654 14.34619659 62.42862488 15.00733459 61.75131226 15.68850708 C60.36774401 17.08549863 58.99137984 18.48965705 57.62182617 19.90039062 C55.51763347 22.06705993 53.39268112 24.21149472 51.26293945 26.35302734 C49.92183683 27.71246368 48.58194965 29.07310038 47.2434082 30.43505859 C46.60601715 31.0809494 45.9686261 31.72684021 45.31192017 32.39230347 C42.04288869 35.27999681 42.04288869 35.27999681 40.8918457 39.19287109 C43.8936387 41.50508022 47.21121037 43.36428433 50.4543457 45.31787109 C51.34959961 45.88119141 52.24485352 46.44451172 53.16723633 47.02490234 C60.02439692 51.19435893 60.02439692 51.19435893 67.8918457 51.19287109 C75.27448394 46.6598652 84.77521031 34.71021191 86.8918457 26.19287109 C87.25760508 19.87610777 86.14632147 15.03824627 81.8918457 10.19287109 C79.25915655 8.11443229 77.47007575 7.29417824 74.17456055 6.71679688 C69.28180622 7.42636633 67.08486317 10.2116354 63.7434082 13.68505859 Z M93.8918457 21.19287109 C93.77969727 21.91990234 93.66754883 22.64693359 93.55200195 23.39599609 C91.76601216 32.50104208 87.72465231 38.13460512 81.8918457 45.19287109 C81.20348633 46.14033203 80.51512695 47.08779297 79.8059082 48.06396484 C76.38301224 52.72478564 73.64772489 56.09799503 68.04418945 57.88818359 C65.02185093 58.31602825 61.94431703 58.19287109 58.8918457 58.19287109 C58.5618457 68.75287109 58.2318457 79.31287109 57.8918457 90.19287109 C55.9118457 90.68787109 55.9118457 90.68787109 53.8918457 91.19287109 C53.5618457 90.86287109 53.2318457 90.53287109 52.8918457 90.19287109 C52.92983301 87.57251041 53.02227413 84.97015785 53.13793945 82.35302734 C54.37796498 65.91093648 54.37796498 65.91093648 50.35913086 50.43115234 C46.48255113 46.40938607 41.48805406 43.76219971 35.8918457 43.19287109 C33.21149303 43.68476659 33.21149303 43.68476659 30.8918457 45.19287109 C29.86446289 45.76263672 28.83708008 46.33240234 27.77856445 46.91943359 C26.72282227 47.54591797 25.66708008 48.17240234 24.5793457 48.81787109 C22.97639648 49.76533203 22.97639648 49.76533203 21.34106445 50.73193359 C20.53282227 51.21404297 19.72458008 51.69615234 18.8918457 52.19287109 C19.2218457 52.85287109 19.5518457 53.51287109 19.8918457 54.19287109 C19.98538078 56.03009061 20.01375752 57.87075945 20.01210022 59.71035767 C20.01347488 60.88267441 20.01484955 62.05499115 20.01626587 63.26283264 C20.01267059 64.55539474 20.00907532 65.84795685 20.00537109 67.1796875 C20.00508913 68.5494232 20.00524713 69.91915904 20.0058136 71.28889465 C20.00610123 75.0138772 20.00020998 78.73882773 19.99323964 82.46380281 C19.98700046 86.35423401 19.98640186 90.24466589 19.98521423 94.13510132 C19.98210259 101.50510461 19.97389143 108.87509312 19.96386474 116.24508989 C19.95269845 124.63433374 19.94719185 133.0235783 19.94216931 141.41282773 C19.93170869 158.67285074 19.91411246 175.93285936 19.8918457 193.19287109 C20.79016113 193.18763428 21.68847656 193.18239746 22.61401367 193.17700195 C25.94247069 193.15997384 29.27088151 193.14742772 32.59936523 193.13793945 C34.04077891 193.13290636 35.48218747 193.12607937 36.92358398 193.11743164 C38.99374656 193.10532126 41.06384171 193.09963262 43.1340332 193.09521484 C44.38039551 193.08997803 45.62675781 193.08474121 46.91088867 193.0793457 C49.8918457 193.19287109 49.8918457 193.19287109 51.8918457 194.19287109 C52.2218457 166.47287109 52.5518457 138.75287109 52.8918457 110.19287109 C54.8718457 109.69787109 54.8718457 109.69787109 56.8918457 109.19287109 C58.89927043 111.20029582 58.07689848 115.26376888 58.09716797 118.01733398 C58.10706757 118.83677994 58.11696716 119.65622589 58.12716675 120.50050354 C58.15887625 123.22214827 58.18357632 125.94381048 58.20825195 128.66552734 C58.22881333 130.54740363 58.24980958 132.42927521 58.27122498 134.31114197 C58.32652996 139.27430421 58.37590194 144.2375087 58.42407227 149.20074463 C58.47422593 154.2613096 58.52994394 159.3218129 58.58520508 164.38232422 C58.69288965 174.31912054 58.79431159 184.25597032 58.8918457 194.19287109 C59.5518457 193.86287109 60.2118457 193.53287109 60.8918457 193.19287109 C62.3007401 193.12848083 63.71279282 193.12704387 65.12280273 193.15869141 C65.99776398 193.1749054 66.87272522 193.19111938 67.77420044 193.20782471 C68.7231015 193.22867126 69.67200256 193.24951782 70.6496582 193.27099609 C72.6574543 193.29827306 74.66526807 193.32427357 76.6730957 193.34912109 C79.83991895 193.39223379 83.00582384 193.44261866 86.17211914 193.51513672 C89.22727356 193.58211474 92.28143978 193.61662412 95.3371582 193.64599609 C96.27391388 193.67493958 97.21066956 193.70388306 98.17581177 193.73370361 C105.98232357 193.76519035 110.72473425 191.27663751 116.2668457 185.88037109 C120.69104123 178.56343233 120.18333515 170.32487705 120.16650391 162.05078125 C120.1741703 160.09802528 120.1741703 160.09802528 120.18199158 158.1058197 C120.19531569 154.55405348 120.19596761 151.0023941 120.19342828 147.45060778 C120.192354 144.47620244 120.19725359 141.50181831 120.2020337 138.52741754 C120.21310626 131.50507843 120.2135791 124.48279282 120.20751953 117.46044922 C120.20148208 110.23724378 120.21379004 103.01423324 120.2350896 95.79106104 C120.25275373 89.56997559 120.25869937 83.34895189 120.25545186 77.12784231 C120.25364639 73.42087394 120.25620093 69.71404461 120.2701664 66.00709915 C120.28517389 61.86918909 120.27573273 57.73167114 120.26416016 53.59375 C120.27180389 52.37992142 120.27944763 51.16609283 120.287323 49.91548157 C120.23940843 42.14117967 119.85749317 34.21583635 115.0949707 27.75537109 C108.24925726 22.27880034 102.55760645 20.88880931 93.8918457 21.19287109 Z M17.8918457 53.19287109 C17.8918457 99.72287109 17.8918457 146.25287109 17.8918457 194.19287109 C18.2218457 194.19287109 18.5518457 194.19287109 18.8918457 194.19287109 C18.8918457 147.66287109 18.8918457 101.13287109 18.8918457 53.19287109 C18.5618457 53.19287109 18.2318457 53.19287109 17.8918457 53.19287109 Z " fill="#7DD856" transform="translate(65.108154296875,-0.19287109375)"/>
<path d="M0 0 C2.58357819 1.82370225 3.4141288 3.92420793 4.84375 6.6796875 C7.15614888 9.9649859 10.62882964 11.65857046 14.125 13.5 C14 15.75 14 15.75 13.125 18.5 C8.04391892 22.5 8.04391892 22.5 5.125 22.5 C4.856875 23.2425 4.58875 23.985 4.3125 24.75 C3.18270579 27.36636554 1.91606798 29.30187111 0.125 31.5 C-1.625 31.375 -1.625 31.375 -3.875 30.5 C-7.875 25.27777778 -7.875 25.27777778 -7.875 22.5 C-8.6175 22.231875 -9.36 21.96375 -10.125 21.6875 C-12.74136554 20.55770579 -14.67687111 19.29106798 -16.875 17.5 C-16.875 15.3125 -16.875 15.3125 -15.875 12.5 C-14.16796875 11.30078125 -14.16796875 11.30078125 -12.0625 10.125 C-7.57035802 7.6016859 -6.15097376 5.05194752 -3.875 0.5 C-1.875 -0.5 -1.875 -0.5 0 0 Z M-1.875 10.5 C-3.855 13.47 -3.855 13.47 -5.875 16.5 C-3.4 18.48 -3.4 18.48 -0.875 20.5 C0.445 18.85 1.765 17.2 3.125 15.5 C1.475 13.85 -0.175 12.2 -1.875 10.5 Z " fill="#7DD856" transform="translate(46.875,148.5)"/>
<path d="M0 0 C1.859375 0.265625 1.859375 0.265625 4 1 C5.203125 2.671875 5.203125 2.671875 6.25 4.75 C8.92201378 9.40717762 12.30221672 11.57533766 17 14 C17 16.1875 17 16.1875 16 19 C14.328125 20.1640625 14.328125 20.1640625 12.25 21.3125 C7.56332386 23.94243337 5.42577929 27.30005263 3 32 C1.140625 31.734375 1.140625 31.734375 -1 31 C-2.203125 29.328125 -2.203125 29.328125 -3.25 27.25 C-5.92201378 22.59282238 -9.30221672 20.42466234 -14 18 C-13.875 15.75 -13.875 15.75 -13 13 C-7.91891892 9 -7.91891892 9 -5 9 C-4.731875 8.2575 -4.46375 7.515 -4.1875 6.75 C-3.05770579 4.13363446 -1.79106798 2.19812889 0 0 Z M1 11 C-0.32 12.32 -1.64 13.64 -3 15 C-1.63016497 18.16115776 -1.0109362 18.9927092 2 21 C3.37562854 19.71034824 4.70766393 18.37310707 6 17 C6 16.34 6 15.68 6 15 C4.37373596 13.61767557 2.7074998 12.28062485 1 11 Z " fill="#7DD856" transform="translate(153,60)"/>
<path d="M0 0 C3.02508145 1.73602105 5.41790069 3.83580137 7 7 C7.54016597 11.50728651 7.60322525 14.94994123 5.3125 18.9375 C1.66907369 22.18704239 -0.59743193 23.02504586 -5.5 22.9375 C-9.64571647 21.82704023 -11.25502616 20.22938099 -14 17 C-14.33 16.67 -14.66 16.34 -15 16 C-15.55720584 12.21896039 -15.84003776 8.52021759 -13.953125 5.10546875 C-9.92368602 0.2345881 -6.23482876 -1.06420083 0 0 Z M-6 7 C-8.26839983 8.83265325 -8.26839983 8.83265325 -8.1875 11.5625 C-8.27003323 13.94689723 -8.27003323 13.94689723 -7 15 C-4 15.16666667 -4 15.16666667 -1 15 C0.27003323 13.94689723 0.27003323 13.94689723 0.1875 11.5625 C0.26839983 8.83265325 0.26839983 8.83265325 -2 7 C-3.32 7 -4.64 7 -6 7 Z " fill="#7DD856" transform="translate(104,66)"/>
<path d="M0 0 C3.27634314 2.67456583 4.63024101 4.12149228 5.4375 8.22265625 C5.65082201 12.21577755 5.32202438 14.45945908 3.25 17.9375 C0.14683856 20.78206465 -1.68973926 21.82909642 -5.875 22.375 C-9.84487514 21.89861498 -11.89536536 20.46959574 -15 18 C-17.68408645 13.97387033 -17.80610406 10.73183082 -17 6 C-13.15654123 -1.1399638 -7.31075222 -2.03574361 0 0 Z M-8 6 C-10.28728734 7.83883881 -10.28728734 7.83883881 -10.125 10.625 C-10.08375 11.40875 -10.0425 12.1925 -10 13 C-7.67145537 14.19838209 -7.67145537 14.19838209 -5 15 C-4.01 14.34 -3.02 13.68 -2 13 C-1.58333333 10.5 -1.58333333 10.5 -2 8 C-2.66 7.34 -3.32 6.68 -4 6 C-5.32 6 -6.64 6 -8 6 Z " fill="#7DD856" transform="translate(106,108)"/>
<path d="M0 0 C2.875 2.5 2.875 2.5 5 5 C5.33 5.33 5.66 5.66 6 6 C6.66298348 10.49881649 6.76319636 14.68561442 4.0625 18.5 C0.11317573 21.72393818 -2.95706396 22.40343488 -8 22 C-11.68489434 20.47797842 -14.20815609 18.58368781 -16 15 C-16.70049781 10.44676421 -16.63033372 7.09724759 -14.3125 3.0625 C-9.6480254 -1.09770707 -6.0606283 -1.62338258 0 0 Z M-6 6 C-6.99 6.66 -7.98 7.32 -9 8 C-9.41666667 10.5 -9.41666667 10.5 -9 13 C-8.34 13.66 -7.68 14.32 -7 15 C-3.69316534 14.71016731 -3.69316534 14.71016731 -1 13 C-0.95936168 11.33382885 -0.957279 9.66611905 -1 8 C-3.32854463 6.80161791 -3.32854463 6.80161791 -6 6 Z " fill="#7DD856" transform="translate(105,149)"/>
<path d="M0 0 C0.33 0 0.66 0 1 0 C1 45.54 1 91.08 1 138 C0.67 138 0.34 138 0 138 C0 92.46 0 46.92 0 0 Z " fill="#7DD955" transform="translate(193,39)"/>
<path d="M0 0 C0.33 0 0.66 0 1 0 C1 43.89 1 87.78 1 133 C0.67 133 0.34 133 0 133 C0 89.11 0 45.22 0 0 Z " fill="#80D856" transform="translate(183,41)"/>
<path d="M0 0 C0.33 0 0.66 0 1 0 C1 27.72 1 55.44 1 84 C0.67 84 0.34 84 0 84 C0 56.28 0 28.56 0 0 Z " fill="#7DD856" transform="translate(6,38)"/>
<path d="M0 0 C0.33 0 0.66 0 1 0 C1 27.39 1 54.78 1 83 C0.67 83 0.34 83 0 83 C0 55.61 0 28.22 0 0 Z " fill="#7DDA57" transform="translate(16,40)"/>
<path d="M0 0 C2.125 0.9375 2.125 0.9375 4 2 C3.67 3.65 3.34 5.3 3 7 C2.01 7.33 1.02 7.66 0 8 C-0.99 7.34 -1.98 6.68 -3 6 C-2.625 3.5625 -2.625 3.5625 -2 1 C-1.34 0.67 -0.68 0.34 0 0 Z " fill="#7CD856" transform="translate(120,96)"/>
<path d="M0 0 C2.125 0.9375 2.125 0.9375 4 2 C3.67 3.65 3.34 5.3 3 7 C2.01 7.33 1.02 7.66 0 8 C-1.5625 6.75 -1.5625 6.75 -3 5 C-2.8125 2.875 -2.8125 2.875 -2 1 C-1.34 0.67 -0.68 0.34 0 0 Z " fill="#7CD855" transform="translate(11,129)"/>
<path d="M0 0 C0.66 0 1.32 0 2 0 C2 12.21 2 24.42 2 37 C1.67 37 1.34 37 1 37 C0.67 24.79 0.34 12.58 0 0 Z " fill="#7DD856" transform="translate(114,53)"/>
<path d="M0 0 C0.33 0 0.66 0 1 0 C1 10.89 1 21.78 1 33 C0.67 33 0.34 33 0 33 C0 22.11 0 11.22 0 0 Z " fill="#7DD856" transform="translate(6,144)"/>
<path d="M0 0 C0.99 0.495 0.99 0.495 2 1 C1.67 10.9 1.34 20.8 1 31 C0.67 31 0.34 31 0 31 C0 20.77 0 10.54 0 0 Z " fill="#7DD856" transform="translate(125,59)"/>
<path d="M0 0 C0.33 0 0.66 0 1 0 C1 10.23 1 20.46 1 31 C0.67 31 0.34 31 0 31 C0 20.77 0 10.54 0 0 Z " fill="#7DDA56" transform="translate(16,143)"/>
<path d="M0 0 C1.98 0 3.96 0 6 0 C6 0.33 6 0.66 6 1 C4.35 1 2.7 1 1 1 C0.67 2.32 0.34 3.64 0 5 C0 3.35 0 1.7 0 0 Z " fill="#7DD756" transform="translate(160,22)"/>
<path d="M0 0 C1.98 0 3.96 0 6 0 C6 1.65 6 3.3 6 5 C5.67 3.68 5.34 2.36 5 1 C3.35 1 1.7 1 0 1 C0 0.67 0 0.34 0 0 Z " fill="#7ED756" transform="translate(34,22)"/>
<path d="M0 0 C3.3 0 6.6 0 10 0 C10 0.33 10 0.66 10 1 C6.7 1 3.4 1 0 1 C0 0.67 0 0.34 0 0 Z " fill="#7DD855" transform="translate(32,12)"/>
<path d="M0 0 C1.98 0 3.96 0 6 0 C6 0.33 6 0.66 6 1 C4.02 1 2.04 1 0 1 C0 0.67 0 0.34 0 0 Z " fill="#7DD856" transform="translate(97,172)"/>
<path d="M0 0 C0.66 0 1.32 0 2 0 C2 1.65 2 3.3 2 5 C0 1.125 0 1.125 0 0 Z " fill="#7DD856" transform="translate(101,157)"/>
<path d="M0 0 C0.99 0.495 0.99 0.495 2 1 C1.34 2.32 0.68 3.64 0 5 C0 3.35 0 1.7 0 0 Z " fill="#7DD856" transform="translate(97,157)"/>
<path d="M0 0 C0.33 0 0.66 0 1 0 C1 1.65 1 3.3 1 5 C0.34 4.67 -0.32 4.34 -1 4 C-0.67 2.68 -0.34 1.36 0 0 Z " fill="#7DD856" transform="translate(102,116)"/>
<path d="M0 0 C0.66 1.32 1.32 2.64 2 4 C1.01 4.495 1.01 4.495 0 5 C0 3.35 0 1.7 0 0 Z " fill="#7DD855" transform="translate(97,116)"/>
<path d="M0 0 C1.98 0 3.96 0 6 0 C6 0.33 6 0.66 6 1 C4.02 1 2.04 1 0 1 C0 0.67 0 0.34 0 0 Z " fill="#7DD856" transform="translate(97,105)"/>
<path d="M0 0 C0.33 0 0.66 0 1 0 C1 1.65 1 3.3 1 5 C0.34 4.67 -0.32 4.34 -1 4 C-0.67 2.68 -0.34 1.36 0 0 Z " fill="#7DD856" transform="translate(102,75)"/>
<path d="M0 0 C0.66 1.32 1.32 2.64 2 4 C1.01 4.495 1.01 4.495 0 5 C0 3.35 0 1.7 0 0 Z " fill="#7DD856" transform="translate(97,75)"/>
<path d="M0 0 C1.98 0 3.96 0 6 0 C6 0.33 6 0.66 6 1 C4.02 1 2.04 1 0 1 C0 0.67 0 0.34 0 0 Z " fill="#7DD856" transform="translate(97,64)"/>
<path d="M0 0 C1.98 0 3.96 0 6 0 C6 0.33 6 0.66 6 1 C4.02 1 2.04 1 0 1 C0 0.67 0 0.34 0 0 Z " fill="#7DD856" transform="translate(58,8)"/>
<path d="M0 0 C0.33 0 0.66 0 1 0 C1 1.65 1 3.3 1 5 C0.67 5 0.34 5 0 5 C0 3.35 0 1.7 0 0 Z " fill="#7ED757" transform="translate(49,20)"/>
<path d="M0 0 C1 4 1 4 1 4 Z " fill="#7DD856" transform="translate(28,162)"/>
<path d="M0 0 C4 1 4 1 4 1 Z " fill="#7DD856" transform="translate(98,162)"/>
<path d="M0 0 C4 1 4 1 4 1 Z " fill="#7DD856" transform="translate(98,146)"/>
<path d="M0 0 C1 4 1 4 1 4 Z " fill="#7DD856" transform="translate(16,131)"/>
<path d="M0 0 C4 1 4 1 4 1 Z " fill="#7DD955" transform="translate(98,131)"/>
<path d="M0 0 C1 4 1 4 1 4 Z " fill="#7DD756" transform="translate(112,114)"/>
<path d="M0 0 C4 1 4 1 4 1 Z " fill="#7ED857" transform="translate(98,115)"/>
<path d="M0 0 C1 4 1 4 1 4 Z " fill="#7DD856" transform="translate(125,98)"/>
<path d="M0 0 C1 4 1 4 1 4 Z " fill="#7DD856" transform="translate(171,74)"/>
<path d="M0 0 C1 4 1 4 1 4 Z " fill="#7ED856" transform="translate(112,73)"/>
<path d="M0 0 C4 1 4 1 4 1 Z " fill="#7DD856" transform="translate(98,74)"/>
<path d="M0 0 C1 4 1 4 1 4 Z " fill="#7ED756" transform="translate(150,21)"/>
<path d="M0 0 C4 1 4 1 4 1 Z " fill="#7ED757" transform="translate(138,8)"/>
<path d="M0 0 C3 1 3 1 3 1 Z " fill="#7DD855" transform="translate(167,191)"/>
<path d="M0 0 C3 1 3 1 3 1 Z " fill="#7DD856" transform="translate(30,191)"/>
<path d="M0 0 C3 1 3 1 3 1 Z " fill="#7DD956" transform="translate(44,181)"/>
<path d="" fill="#7DD856" transform="translate(0,0)"/>
<path d="" fill="#7ED756" transform="translate(0,0)"/>
<path d="" fill="#7DD856" transform="translate(0,0)"/>
<path d="" fill="#7DD856" transform="translate(0,0)"/>
<path d="M0 0 C0.99 0.495 0.99 0.495 2 1 C1.01 1.495 1.01 1.495 0 2 C0 1.34 0 0.68 0 0 Z " fill="#7DD857" transform="translate(45,166)"/>
<path d="" fill="#7DD756" transform="translate(0,0)"/>
<path d="" fill="#7DD856" transform="translate(0,0)"/>
<path d="" fill="#7ED756" transform="translate(0,0)"/>
<path d="" fill="#7DD856" transform="translate(0,0)"/>
<path d="M0 0 C0.66 0.66 1.32 1.32 2 2 C1.34 2 0.68 2 0 2 C0 1.34 0 0.68 0 0 Z " fill="#7CD856" transform="translate(53,155)"/>
<path d="M0 0 C3 1 3 1 3 1 Z " fill="#7DD956" transform="translate(10,139)"/>
<path d="" fill="#7DD856" transform="translate(0,0)"/>
<path d="" fill="#7ED957" transform="translate(0,0)"/>
<path d="" fill="#7DD856" transform="translate(0,0)"/>
<path d="M0 0 C3 1 3 1 3 1 Z " fill="#7DD856" transform="translate(119,93)"/>
<path d="M0 0 C3 1 3 1 3 1 Z " fill="#7ED756" transform="translate(102,89)"/>
<path d="" fill="#7ED857" transform="translate(0,0)"/>
<path d="" fill="#7ED957" transform="translate(0,0)"/>
<path d="M0 0 C0.66 0 1.32 0 2 0 C1.67 0.66 1.34 1.32 1 2 C0.67 1.34 0.34 0.68 0 0 Z " fill="#7ED957" transform="translate(151,75)"/>
<path d="" fill="#7DD857" transform="translate(0,0)"/>
<path d="M0 0 C3 1 3 1 3 1 Z " fill="#7DD856" transform="translate(132,59)"/>
<path d="M0 0 C3 1 3 1 3 1 Z " fill="#7DD856" transform="translate(65,59)"/>
<path d="M0 0 C3 1 3 1 3 1 Z " fill="#7DD856" transform="translate(153,58)"/>
<path d="M0 0 C3 1 3 1 3 1 Z " fill="#7DD856" transform="translate(130,49)"/>
<path d="" fill="#7DD856" transform="translate(0,0)"/>
<path d="" fill="#7DD856" transform="translate(0,0)"/>
<path d="" fill="#7DD856" transform="translate(0,0)"/>
<path d="M0 0 C3 1 3 1 3 1 Z " fill="#7ED956" transform="translate(169,23)"/>
<path d="M0 0 C3 1 3 1 3 1 Z " fill="#7ED758" transform="translate(28,23)"/>
<path d="" fill="#7ED856" transform="translate(0,0)"/>
<path d="M0 0 C3 1 3 1 3 1 Z " fill="#7DD856" transform="translate(170,13)"/>
<path d="M0 0 C3 1 3 1 3 1 Z " fill="#7DD856" transform="translate(27,13)"/>
<path d="M0 0 C2 1 2 1 2 1 Z " fill="#7ED956" transform="translate(175,199)"/>
<path d="M0 0 C2 1 2 1 2 1 Z " fill="#7ED855" transform="translate(23,199)"/>
<path d="M0 0 C2 1 2 1 2 1 Z " fill="#7DD856" transform="translate(177,198)"/>
<path d="M0 0 C2 1 2 1 2 1 Z " fill="#7CD757" transform="translate(21,198)"/>
<path d="M0 0 C2 1 2 1 2 1 Z " fill="#7DD855" transform="translate(180,196)"/>
<path d="M0 0 C2 1 2 1 2 1 Z " fill="#7ED956" transform="translate(18,196)"/>
<path d="" fill="#7DD858" transform="translate(0,0)"/>
<path d="M0 0 C2 1 2 1 2 1 Z " fill="#7DD956" transform="translate(171,190)"/>
<path d="M0 0 C2 1 2 1 2 1 Z " fill="#7ED856" transform="translate(27,190)"/>
<path d="M0 0 C2 1 2 1 2 1 Z " fill="#7DD857" transform="translate(175,188)"/>
<path d="M0 0 C2 1 2 1 2 1 Z " fill="#7DD856" transform="translate(23,188)"/>
<path d="" fill="#7ED857" transform="translate(0,0)"/>
<path d="" fill="#7ED858" transform="translate(0,0)"/>
<path d="" fill="#7ED756" transform="translate(0,0)"/>
<path d="" fill="#7DD857" transform="translate(0,0)"/>
<path d="" fill="#7DD758" transform="translate(0,0)"/>
<path d="" fill="#7DD856" transform="translate(0,0)"/>
<path d="" fill="#7ED856" transform="translate(0,0)"/>
<path d="" fill="#7DD856" transform="translate(0,0)"/>
<path d="" fill="#7DD856" transform="translate(0,0)"/>
<path d="M0 0 C2 1 2 1 2 1 Z " fill="#7FD857" transform="translate(103,171)"/>
<path d="M0 0 C2 1 2 1 2 1 Z " fill="#7DD856" transform="translate(55,170)"/>
<path d="M0 0 C2 1 2 1 2 1 Z " fill="#7CD856" transform="translate(34,170)"/>
<path d="M0 0 C2 1 2 1 2 1 Z " fill="#7CD856" transform="translate(57,169)"/>
<path d="M0 0 C2 1 2 1 2 1 Z " fill="#7DD856" transform="translate(32,169)"/>
<path d="" fill="#7DD856" transform="translate(0,0)"/>
<path d="" fill="#7DD856" transform="translate(0,0)"/>
<path d="" fill="#7DD856" transform="translate(0,0)"/>
<path d="M0 0 C2 1 2 1 2 1 Z " fill="#7DD857" transform="translate(58,159)"/>
<path d="M0 0 C2 1 2 1 2 1 Z " fill="#7DD957" transform="translate(31,159)"/>
<path d="M0 0 C2 1 2 1 2 1 Z " fill="#7DD757" transform="translate(56,158)"/>
<path d="M0 0 C2 1 2 1 2 1 Z " fill="#7DD855" transform="translate(33,158)"/>
<path d="M0 0 C2 1 2 1 2 1 Z " fill="#7DD856" transform="translate(36,156)"/>
<path d="" fill="#7DD757" transform="translate(0,0)"/>
<path d="" fill="#7DD856" transform="translate(0,0)"/>
<path d="" fill="#7ED956" transform="translate(0,0)"/>
<path d="" fill="#7DD856" transform="translate(0,0)"/>
<path d="" fill="#7DD856" transform="translate(0,0)"/>
<path d="M0 0 C2 1 2 1 2 1 Z " fill="#7CD856" transform="translate(105,148)"/>
<path d="M0 0 C2 1 2 1 2 1 Z " fill="#7DD857" transform="translate(93,148)"/>
<path d="M0 0 C2 1 2 1 2 1 Z " fill="#7DD856" transform="translate(103,147)"/>
<path d="M0 0 C2 1 2 1 2 1 Z " fill="#7DD856" transform="translate(95,147)"/>
<path d="M0 0 C2 1 2 1 2 1 Z " fill="#7ED957" transform="translate(43,147)"/>
<path d="M0 0 C2 1 2 1 2 1 Z " fill="#7ED757" transform="translate(12,137)"/>
<path d="" fill="#7CD656" transform="translate(0,0)"/>
<path d="" fill="#7DD956" transform="translate(0,0)"/>
<path d="" fill="#7CD657" transform="translate(0,0)"/>
<path d="M0 0 C2 1 2 1 2 1 Z " fill="#7DD856" transform="translate(103,130)"/>
<path d="M0 0 C2 1 2 1 2 1 Z " fill="#7DD856" transform="translate(95,130)"/>
<path d="M0 0 C2 1 2 1 2 1 Z " fill="#7ED756" transform="translate(105,129)"/>
<path d="M0 0 C2 1 2 1 2 1 Z " fill="#7ED857" transform="translate(93,129)"/>
<path d="M0 0 C2 1 2 1 2 1 Z " fill="#7DD856" transform="translate(9,128)"/>
<path d="M0 0 C2 1 2 1 2 1 Z " fill="#7DD957" transform="translate(11,126)"/>
<path d="" fill="#7DD856" transform="translate(0,0)"/>
<path d="" fill="#7DD856" transform="translate(0,0)"/>
<path d="M0 0 C2 1 2 1 2 1 Z " fill="#7DD856" transform="translate(120,106)"/>
<path d="M0 0 C2 1 2 1 2 1 Z " fill="#7FD755" transform="translate(118,104)"/>
<path d="" fill="#7DD856" transform="translate(0,0)"/>
<path d="M0 0 C2 1 2 1 2 1 Z " fill="#7DD856" transform="translate(118,95)"/>
<path d="" fill="#7DD855" transform="translate(0,0)"/>
<path d="" fill="#7DD757" transform="translate(0,0)"/>
<path d="M0 0 C2 1 2 1 2 1 Z " fill="#7ED856" transform="translate(95,89)"/>
<path d="M0 0 C2 1 2 1 2 1 Z " fill="#7DD857" transform="translate(105,88)"/>
<path d="M0 0 C2 1 2 1 2 1 Z " fill="#7DD856" transform="translate(93,88)"/>
<path d="" fill="#7DD856" transform="translate(0,0)"/>
<path d="" fill="#7CD856" transform="translate(0,0)"/>
<path d="" fill="#7DD757" transform="translate(0,0)"/>
<path d="" fill="#7BDA56" transform="translate(0,0)"/>
<path d="M0 0 C2 1 2 1 2 1 Z " fill="#7DD956" transform="translate(162,83)"/>
<path d="M0 0 C2 1 2 1 2 1 Z " fill="#7ED857" transform="translate(165,81)"/>
<path d="" fill="#7FD958" transform="translate(0,0)"/>
<path d="" fill="#7DD855" transform="translate(0,0)"/>
<path d="" fill="#7ED957" transform="translate(0,0)"/>
<path d="" fill="#7DD956" transform="translate(0,0)"/>
<path d="M0 0 C2 1 2 1 2 1 Z " fill="#7DD956" transform="translate(141,70)"/>
<path d="M0 0 C2 1 2 1 2 1 Z " fill="#7DD856" transform="translate(143,69)"/>
<path d="" fill="#7DD856" transform="translate(0,0)"/>
<path d="" fill="#7DD857" transform="translate(0,0)"/>
<path d="M0 0 C2 1 2 1 2 1 Z " fill="#7DD856" transform="translate(104,65)"/>
<path d="M0 0 C2 1 2 1 2 1 Z " fill="#7DD956" transform="translate(94,65)"/>
<path d="" fill="#7DD856" transform="translate(0,0)"/>
<path d="" fill="#7ED757" transform="translate(0,0)"/>
<path d="M0 0 C2 1 2 1 2 1 Z " fill="#7DD957" transform="translate(135,58)"/>
<path d="M0 0 C2 1 2 1 2 1 Z " fill="#7CD856" transform="translate(63,58)"/>
<path d="M0 0 C2 1 2 1 2 1 Z " fill="#7DD956" transform="translate(137,57)"/>
<path d="M0 0 C2 1 2 1 2 1 Z " fill="#7DD856" transform="translate(61,57)"/>
<path d="M0 0 C2 1 2 1 2 1 Z " fill="#7CD857" transform="translate(112,52)"/>
<path d="M0 0 C2 1 2 1 2 1 Z " fill="#7DD855" transform="translate(86,52)"/>
<path d="" fill="#7DD855" transform="translate(0,0)"/>
<path d="" fill="#7DD856" transform="translate(0,0)"/>
<path d="M0 0 C2 1 2 1 2 1 Z " fill="#7DD855" transform="translate(109,50)"/>
<path d="M0 0 C2 1 2 1 2 1 Z " fill="#7ED857" transform="translate(89,50)"/>
<path d="M0 0 C2 1 2 1 2 1 Z " fill="#7DD856" transform="translate(126,49)"/>
<path d="M0 0 C2 1 2 1 2 1 Z " fill="#7DD856" transform="translate(72,49)"/>
<path d="M0 0 C2 1 2 1 2 1 Z " fill="#7DD856" transform="translate(67,49)"/>
<path d="M0 0 C2 1 2 1 2 1 Z " fill="#7CD856" transform="translate(133,48)"/>
<path d="M0 0 C2 1 2 1 2 1 Z " fill="#7DD855" transform="translate(124,48)"/>
<path d="M0 0 C2 1 2 1 2 1 Z " fill="#7DD856" transform="translate(74,48)"/>
<path d="M0 0 C2 1 2 1 2 1 Z " fill="#7DD856" transform="translate(65,48)"/>
<path d="" fill="#7DD957" transform="translate(0,0)"/>
<path d="" fill="#7DD856" transform="translate(0,0)"/>
<path d="M0 0 C2 1 2 1 2 1 Z " fill="#7ED756" transform="translate(122,47)"/>
<path d="M0 0 C2 1 2 1 2 1 Z " fill="#7DD856" transform="translate(104,47)"/>
<path d="M0 0 C2 1 2 1 2 1 Z " fill="#7DD856" transform="translate(94,47)"/>
<path d="M0 0 C2 1 2 1 2 1 Z " fill="#7DD756" transform="translate(76,47)"/>
<path d="" fill="#7ED857" transform="translate(0,0)"/>
<path d="" fill="#7ED958" transform="translate(0,0)"/>
<path d="M0 0 C2 1 2 1 2 1 Z " fill="#7DD755" transform="translate(119,45)"/>
<path d="M0 0 C2 1 2 1 2 1 Z " fill="#7DD756" transform="translate(101,45)"/>
<path d="M0 0 C2 1 2 1 2 1 Z " fill="#7DD756" transform="translate(97,45)"/>
<path d="M0 0 C2 1 2 1 2 1 Z " fill="#7DD856" transform="translate(79,45)"/>
<path d="M0 0 C2 1 2 1 2 1 Z " fill="#7DD956" transform="translate(99,44)"/>
<path d="M0 0 C2 1 2 1 2 1 Z " fill="#7DD855" transform="translate(116,43)"/>
<path d="M0 0 C2 1 2 1 2 1 Z " fill="#7DD855" transform="translate(82,43)"/>
<path d="" fill="#7DD756" transform="translate(0,0)"/>
<path d="" fill="#7DD657" transform="translate(0,0)"/>
<path d="M0 0 C2 1 2 1 2 1 Z " fill="#7ED65A" transform="translate(114,42)"/>
<path d="M0 0 C2 1 2 1 2 1 Z " fill="#7ED559" transform="translate(84,42)"/>
<path d="" fill="#7DD656" transform="translate(0,0)"/>
<path d="" fill="#7DD756" transform="translate(0,0)"/>
<path d="M0 0 C2 1 2 1 2 1 Z " fill="#7CD756" transform="translate(111,40)"/>
<path d="M0 0 C2 1 2 1 2 1 Z " fill="#7DD756" transform="translate(87,40)"/>
<path d="M0 0 C2 1 2 1 2 1 Z " fill="#7DD855" transform="translate(108,38)"/>
<path d="M0 0 C2 1 2 1 2 1 Z " fill="#7DD855" transform="translate(90,38)"/>
<path d="" fill="#7DD856" transform="translate(0,0)"/>
<path d="" fill="#7DD856" transform="translate(0,0)"/>
<path d="" fill="#7DD857" transform="translate(0,0)"/>
<path d="" fill="#7DD756" transform="translate(0,0)"/>
<path d="" fill="#7CD756" transform="translate(0,0)"/>
<path d="" fill="#7DD856" transform="translate(0,0)"/>
<path d="" fill="#7DD856" transform="translate(0,0)"/>
<path d="" fill="#7DD856" transform="translate(0,0)"/>
<path d="" fill="#7DD856" transform="translate(0,0)"/>
<path d="" fill="#7DD956" transform="translate(0,0)"/>
<path d="M0 0 C2 1 2 1 2 1 Z " fill="#7DD956" transform="translate(99,31)"/>
<path d="" fill="#7DD856" transform="translate(0,0)"/>
<path d="" fill="#7DD856" transform="translate(0,0)"/>
<path d="" fill="#7DD855" transform="translate(0,0)"/>
<path d="" fill="#7DD856" transform="translate(0,0)"/>
<path d="" fill="#7ED856" transform="translate(0,0)"/>
<path d="" fill="#7DD956" transform="translate(0,0)"/>
<path d="" fill="#7ED857" transform="translate(0,0)"/>
<path d="" fill="#7DD856" transform="translate(0,0)"/>
<path d="" fill="#7DD855" transform="translate(0,0)"/>
<path d="" fill="#7DD956" transform="translate(0,0)"/>
<path d="M0 0 C2 1 2 1 2 1 Z " fill="#7DD757" transform="translate(174,25)"/>
<path d="M0 0 C2 1 2 1 2 1 Z " fill="#7DD856" transform="translate(24,25)"/>
<path d="M0 0 C2 1 2 1 2 1 Z " fill="#7DD856" transform="translate(172,24)"/>
<path d="M0 0 C2 1 2 1 2 1 Z " fill="#7DD856" transform="translate(26,24)"/>
<path d="M0 0 C2 1 2 1 2 1 Z " fill="#7FD656" transform="translate(179,17)"/>
<path d="" fill="#7DD856" transform="translate(0,0)"/>
<path d="M0 0 C2 1 2 1 2 1 Z " fill="#7DD657" transform="translate(19,17)"/>
<path d="" fill="#7CD756" transform="translate(0,0)"/>
<path d="" fill="#7DD856" transform="translate(0,0)"/>
<path d="M0 0 C2 1 2 1 2 1 Z " fill="#7DD857" transform="translate(173,14)"/>
<path d="M0 0 C2 1 2 1 2 1 Z " fill="#7DD856" transform="translate(25,14)"/>
<path d="" fill="#7DD855" transform="translate(0,0)"/>
<path d="M0 0 C2 1 2 1 2 1 Z " fill="#7DD856" transform="translate(142,9)"/>
<path d="M0 0 C2 1 2 1 2 1 Z " fill="#7DD857" transform="translate(56,9)"/>
<path d="" fill="#7DD957" transform="translate(0,0)"/>
<path d="" fill="#7ED856" transform="translate(0,0)"/>
<path d="M0 0 C2 1 2 1 2 1 Z " fill="#7FD756" transform="translate(151,4)"/>
<path d="M0 0 C2 1 2 1 2 1 Z " fill="#7ED956" transform="translate(48,3)"/>
<path d="M0 0 C2 1 2 1 2 1 Z " fill="#7DD856" transform="translate(147,1)"/>
<path d="M0 0 C2 1 2 1 2 1 Z " fill="#7ED856" transform="translate(51,1)"/>
<path d="" fill="#7DD856" transform="translate(0,0)"/>
<path d="" fill="#7DD857" transform="translate(0,0)"/>
<path d="" fill="#7DD856" transform="translate(0,0)"/>
<path d="" fill="#7DD956" transform="translate(0,0)"/>
<path d="" fill="#7DD856" transform="translate(0,0)"/>
<path d="" fill="#7ED856" transform="translate(0,0)"/>
<path d="" fill="#7DD856" transform="translate(0,0)"/>
<path d="" fill="#7DD857" transform="translate(0,0)"/>
<path d="" fill="#7DD956" transform="translate(0,0)"/>
<path d="" fill="#7DD857" transform="translate(0,0)"/>
<path d="" fill="#7DD856" transform="translate(0,0)"/>
<path d="" fill="#7ED856" transform="translate(0,0)"/>
<path d="" fill="#7DD856" transform="translate(0,0)"/>
<path d="" fill="#7ED857" transform="translate(0,0)"/>
<path d="" fill="#7DD856" transform="translate(0,0)"/>
<path d="" fill="#7DD957" transform="translate(0,0)"/>
<path d="" fill="#7DD856" transform="translate(0,0)"/>
<path d="" fill="#7DD856" transform="translate(0,0)"/>
<path d="" fill="#7DD856" transform="translate(0,0)"/>
<path d="" fill="#7CD856" transform="translate(0,0)"/>
<path d="" fill="#7DD757" transform="translate(0,0)"/>
<path d="" fill="#7DD857" transform="translate(0,0)"/>
<path d="" fill="#7ED756" transform="translate(0,0)"/>
<path d="" fill="#7DD856" transform="translate(0,0)"/>
<path d="" fill="#7DD856" transform="translate(0,0)"/>
<path d="" fill="#7DD857" transform="translate(0,0)"/>
<path d="" fill="#7DD858" transform="translate(0,0)"/>
<path d="" fill="#82DB59" transform="translate(0,0)"/>
<path d="" fill="#7ED856" transform="translate(0,0)"/>
<path d="" fill="#7DD856" transform="translate(0,0)"/>
<path d="" fill="#7ED956" transform="translate(0,0)"/>
<path d="" fill="#7DD856" transform="translate(0,0)"/>
<path d="" fill="#7ED856" transform="translate(0,0)"/>
<path d="" fill="#7DD856" transform="translate(0,0)"/>
<path d="" fill="#7DD855" transform="translate(0,0)"/>
<path d="" fill="#7ED856" transform="translate(0,0)"/>
<path d="" fill="#7DD855" transform="translate(0,0)"/>
<path d="" fill="#7DD956" transform="translate(0,0)"/>
<path d="" fill="#7DD956" transform="translate(0,0)"/>
<path d="" fill="#7DD756" transform="translate(0,0)"/>
<path d="" fill="#7DD956" transform="translate(0,0)"/>
<path d="" fill="#7FD856" transform="translate(0,0)"/>
<path d="" fill="#7DD857" transform="translate(0,0)"/>
<path d="" fill="#7ED858" transform="translate(0,0)"/>
<path d="" fill="#7ED957" transform="translate(0,0)"/>
<path d="" fill="#7DD857" transform="translate(0,0)"/>
<path d="" fill="#7CD857" transform="translate(0,0)"/>
<path d="" fill="#7DD858" transform="translate(0,0)"/>
<path d="" fill="#7DD857" transform="translate(0,0)"/>
<path d="" fill="#7DD856" transform="translate(0,0)"/>
<path d="" fill="#80D757" transform="translate(0,0)"/>
<path d="" fill="#7DD856" transform="translate(0,0)"/>
<path d="" fill="#80D759" transform="translate(0,0)"/>
<path d="" fill="#7DD756" transform="translate(0,0)"/>
<path d="" fill="#7ED857" transform="translate(0,0)"/>
<path d="" fill="#7DD856" transform="translate(0,0)"/>
<path d="" fill="#7DD955" transform="translate(0,0)"/>
<path d="" fill="#7ED856" transform="translate(0,0)"/>
<path d="" fill="#7DD955" transform="translate(0,0)"/>
<path d="" fill="#7ED857" transform="translate(0,0)"/>
<path d="" fill="#7ED857" transform="translate(0,0)"/>
<path d="" fill="#7DD956" transform="translate(0,0)"/>
<path d="" fill="#7ED957" transform="translate(0,0)"/>
<path d="" fill="#7DD857" transform="translate(0,0)"/>
<path d="" fill="#7ED957" transform="translate(0,0)"/>
<path d="" fill="#7DD856" transform="translate(0,0)"/>
<path d="" fill="#7DD856" transform="translate(0,0)"/>
<path d="" fill="#7ED857" transform="translate(0,0)"/>
<path d="" fill="#7DD857" transform="translate(0,0)"/>
<path d="" fill="#7DD856" transform="translate(0,0)"/>
<path d="" fill="#7DD856" transform="translate(0,0)"/>
<path d="" fill="#7DD956" transform="translate(0,0)"/>
<path d="" fill="#7DD856" transform="translate(0,0)"/>
<path d="" fill="#7ED856" transform="translate(0,0)"/>
<path d="" fill="#7DD856" transform="translate(0,0)"/>
<path d="" fill="#7ED856" transform="translate(0,0)"/>
<path d="" fill="#7DD856" transform="translate(0,0)"/>
<path d="" fill="#7DD856" transform="translate(0,0)"/>
<path d="" fill="#7DD755" transform="translate(0,0)"/>
<path d="" fill="#7ED857" transform="translate(0,0)"/>
<path d="" fill="#7DD754" transform="translate(0,0)"/>
<path d="" fill="#7ED857" transform="translate(0,0)"/>
<path d="" fill="#7DD856" transform="translate(0,0)"/>
<path d="" fill="#7DD956" transform="translate(0,0)"/>
<path d="" fill="#7DD855" transform="translate(0,0)"/>
<path d="" fill="#7DDA58" transform="translate(0,0)"/>
<path d="" fill="#7DD856" transform="translate(0,0)"/>
<path d="" fill="#7ED857" transform="translate(0,0)"/>
<path d="" fill="#7ED857" transform="translate(0,0)"/>
<path d="" fill="#7DD756" transform="translate(0,0)"/>
<path d="" fill="#7DD758" transform="translate(0,0)"/>
<path d="" fill="#7FD659" transform="translate(0,0)"/>
<path d="" fill="#80D759" transform="translate(0,0)"/>
<path d="" fill="#7DD856" transform="translate(0,0)"/>
<path d="" fill="#7DD856" transform="translate(0,0)"/>
<path d="" fill="#7DD857" transform="translate(0,0)"/>
<path d="" fill="#7DD955" transform="translate(0,0)"/>
<path d="" fill="#7DD856" transform="translate(0,0)"/>
<path d="" fill="#7ED856" transform="translate(0,0)"/>
<path d="" fill="#7DD856" transform="translate(0,0)"/>
<path d="" fill="#7ED856" transform="translate(0,0)"/>
<path d="" fill="#7DD855" transform="translate(0,0)"/>
<path d="" fill="#7DD956" transform="translate(0,0)"/>
<path d="" fill="#7ED957" transform="translate(0,0)"/>
<path d="" fill="#7DD857" transform="translate(0,0)"/>
<path d="" fill="#7DD857" transform="translate(0,0)"/>
<path d="" fill="#7DD856" transform="translate(0,0)"/>
<path d="" fill="#7ED956" transform="translate(0,0)"/>
<path d="" fill="#7DD957" transform="translate(0,0)"/>
<path d="" fill="#7FDA5A" transform="translate(0,0)"/>
<path d="" fill="#7DD855" transform="translate(0,0)"/>
<path d="" fill="#7ED756" transform="translate(0,0)"/>
<path d="" fill="#7DD756" transform="translate(0,0)"/>
<path d="" fill="#7DD855" transform="translate(0,0)"/>
<path d="" fill="#7ED757" transform="translate(0,0)"/>
<path d="" fill="#7ED756" transform="translate(0,0)"/>
<path d="" fill="#7ED657" transform="translate(0,0)"/>
<path d="" fill="#7ED757" transform="translate(0,0)"/>
<path d="" fill="#7ED856" transform="translate(0,0)"/>
<path d="" fill="#7DD857" transform="translate(0,0)"/>
<path d="" fill="#7DD756" transform="translate(0,0)"/>
<path d="" fill="#7DD856" transform="translate(0,0)"/>
<path d="" fill="#7CD955" transform="translate(0,0)"/>
<path d="" fill="#7DD957" transform="translate(0,0)"/>
<path d="" fill="#7DD956" transform="translate(0,0)"/>
<path d="" fill="#7ED856" transform="translate(0,0)"/>
<path d="" fill="#7DD756" transform="translate(0,0)"/>
<path d="" fill="#7DD855" transform="translate(0,0)"/>
<path d="" fill="#7DD956" transform="translate(0,0)"/>
<path d="" fill="#7ED855" transform="translate(0,0)"/>
<path d="" fill="#7DDA57" transform="translate(0,0)"/>
<path d="" fill="#7ED856" transform="translate(0,0)"/>
<path d="" fill="#7ED957" transform="translate(0,0)"/>
<path d="" fill="#7ED755" transform="translate(0,0)"/>
<path d="" fill="#7FD756" transform="translate(0,0)"/>
<path d="" fill="#7DD755" transform="translate(0,0)"/>
<path d="" fill="#7DD856" transform="translate(0,0)"/>
<path d="" fill="#7DD957" transform="translate(0,0)"/>
<path d="" fill="#7DD955" transform="translate(0,0)"/>
<path d="" fill="#7ED957" transform="translate(0,0)"/>
<path d="" fill="#7FD857" transform="translate(0,0)"/>
<path d="" fill="#7DD957" transform="translate(0,0)"/>
<path d="" fill="#7DD856" transform="translate(0,0)"/>
<path d="" fill="#7DDA57" transform="translate(0,0)"/>
<path d="" fill="#7CD857" transform="translate(0,0)"/>
<path d="" fill="#7DD857" transform="translate(0,0)"/>
<path d="" fill="#7DD958" transform="translate(0,0)"/>
<path d="" fill="#7ED857" transform="translate(0,0)"/>
<path d="" fill="#7DD856" transform="translate(0,0)"/>
<path d="" fill="#7DD856" transform="translate(0,0)"/>
<path d="" fill="#7DD856" transform="translate(0,0)"/>
<path d="" fill="#7DD856" transform="translate(0,0)"/>
<path d="" fill="#7ED856" transform="translate(0,0)"/>
<path d="" fill="#7DD856" transform="translate(0,0)"/>
<path d="" fill="#7DD856" transform="translate(0,0)"/>
<path d="" fill="#7DD856" transform="translate(0,0)"/>
<path d="" fill="#7DD857" transform="translate(0,0)"/>
<path d="" fill="#7DD956" transform="translate(0,0)"/>
<path d="" fill="#7DD956" transform="translate(0,0)"/>
<path d="" fill="#7DD957" transform="translate(0,0)"/>
<path d="" fill="#7DD856" transform="translate(0,0)"/>
<path d="" fill="#7ED857" transform="translate(0,0)"/>
<path d="" fill="#7DD856" transform="translate(0,0)"/>
<path d="" fill="#7ED956" transform="translate(0,0)"/>
<path d="" fill="#7ED857" transform="translate(0,0)"/>
<path d="" fill="#7ED756" transform="translate(0,0)"/>
<path d="" fill="#7DD856" transform="translate(0,0)"/>
<path d="" fill="#7DD855" transform="translate(0,0)"/>
<path d="" fill="#7CD856" transform="translate(0,0)"/>
<path d="" fill="#7DD956" transform="translate(0,0)"/>
<path d="" fill="#7CD956" transform="translate(0,0)"/>
<path d="" fill="#7DD855" transform="translate(0,0)"/>
<path d="" fill="#7DD856" transform="translate(0,0)"/>
<path d="" fill="#7DD755" transform="translate(0,0)"/>
<path d="" fill="#7DD856" transform="translate(0,0)"/>
<path d="" fill="#7CD856" transform="translate(0,0)"/>
<path d="" fill="#7CD856" transform="translate(0,0)"/>
<path d="" fill="#7CD757" transform="translate(0,0)"/>
<path d="" fill="#7DD856" transform="translate(0,0)"/>
<path d="" fill="#7DD856" transform="translate(0,0)"/>
<path d="" fill="#7DD856" transform="translate(0,0)"/>
<path d="" fill="#7ED957" transform="translate(0,0)"/>
<path d="" fill="#7DD856" transform="translate(0,0)"/>
<path d="" fill="#7DD957" transform="translate(0,0)"/>
<path d="" fill="#7ED858" transform="translate(0,0)"/>
<path d="" fill="#7CD557" transform="translate(0,0)"/>
<path d="" fill="#7DD955" transform="translate(0,0)"/>
<path d="" fill="#7DD856" transform="translate(0,0)"/>
<path d="" fill="#7DD85A" transform="translate(0,0)"/>
<path d="" fill="#7ADA5A" transform="translate(0,0)"/>
<path d="" fill="#7DD956" transform="translate(0,0)"/>
<path d="" fill="#7DD956" transform="translate(0,0)"/>
<path d="" fill="#7ED957" transform="translate(0,0)"/>
<path d="" fill="#7EDA57" transform="translate(0,0)"/>
<path d="" fill="#7DD856" transform="translate(0,0)"/>
<path d="" fill="#7DD857" transform="translate(0,0)"/>
<path d="" fill="#7ED856" transform="translate(0,0)"/>
<path d="" fill="#7ED856" transform="translate(0,0)"/>
<path d="" fill="#7DD857" transform="translate(0,0)"/>
<path d="" fill="#7ED956" transform="translate(0,0)"/>
<path d="" fill="#7DD757" transform="translate(0,0)"/>
<path d="" fill="#7DD857" transform="translate(0,0)"/>
<path d="" fill="#7ED858" transform="translate(0,0)"/>
<path d="" fill="#7DD956" transform="translate(0,0)"/>
<path d="" fill="#7DD956" transform="translate(0,0)"/>
<path d="" fill="#7ED956" transform="translate(0,0)"/>
<path d="" fill="#7DD856" transform="translate(0,0)"/>
<path d="" fill="#7DD856" transform="translate(0,0)"/>
<path d="" fill="#7DD856" transform="translate(0,0)"/>
<path d="" fill="#7DD856" transform="translate(0,0)"/>
<path d="" fill="#7DD856" transform="translate(0,0)"/>
<path d="" fill="#7DD956" transform="translate(0,0)"/>
<path d="" fill="#7DD956" transform="translate(0,0)"/>
<path d="" fill="#7DD856" transform="translate(0,0)"/>
<path d="" fill="#7DD856" transform="translate(0,0)"/>
<path d="" fill="#7ED856" transform="translate(0,0)"/>
<path d="" fill="#7ED856" transform="translate(0,0)"/>
<path d="" fill="#7ED856" transform="translate(0,0)"/>
<path d="" fill="#7ED856" transform="translate(0,0)"/>
<path d="" fill="#7DD856" transform="translate(0,0)"/>
<path d="" fill="#7DD956" transform="translate(0,0)"/>
<path d="" fill="#7DD956" transform="translate(0,0)"/>
<path d="" fill="#7DD856" transform="translate(0,0)"/>
<path d="" fill="#7DD857" transform="translate(0,0)"/>
<path d="" fill="#7DD857" transform="translate(0,0)"/>
<path d="" fill="#7DD857" transform="translate(0,0)"/>
<path d="" fill="#7ED857" transform="translate(0,0)"/>
<path d="" fill="#7ED857" transform="translate(0,0)"/>
<path d="" fill="#7DD857" transform="translate(0,0)"/>
<path d="" fill="#7DD856" transform="translate(0,0)"/>
<path d="" fill="#7DD957" transform="translate(0,0)"/>
<path d="" fill="#7DD756" transform="translate(0,0)"/>
<path d="" fill="#7DD956" transform="translate(0,0)"/>
<path d="" fill="#7ED855" transform="translate(0,0)"/>
<path d="" fill="#7ED856" transform="translate(0,0)"/>
<path d="" fill="#7DD857" transform="translate(0,0)"/>
<path d="" fill="#7DD856" transform="translate(0,0)"/>
<path d="" fill="#7DD856" transform="translate(0,0)"/>
<path d="" fill="#7ED857" transform="translate(0,0)"/>
<path d="" fill="#7ED857" transform="translate(0,0)"/>
<path d="" fill="#7DD856" transform="translate(0,0)"/>
<path d="" fill="#7DD857" transform="translate(0,0)"/>
<path d="" fill="#7DD856" transform="translate(0,0)"/>
<path d="" fill="#7DD857" transform="translate(0,0)"/>
<path d="" fill="#7DD855" transform="translate(0,0)"/>
<path d="" fill="#7DD856" transform="translate(0,0)"/>
<path d="" fill="#7DD756" transform="translate(0,0)"/>
<path d="" fill="#7DD856" transform="translate(0,0)"/>
<path d="" fill="#7ED756" transform="translate(0,0)"/>
<path d="" fill="#7DD956" transform="translate(0,0)"/>
<path d="" fill="#7DD955" transform="translate(0,0)"/>
<path d="" fill="#7ED757" transform="translate(0,0)"/>
<path d="" fill="#7DD856" transform="translate(0,0)"/>
<path d="" fill="#7ED956" transform="translate(0,0)"/>
<path d="" fill="#7DD757" transform="translate(0,0)"/>
<path d="" fill="#7ED857" transform="translate(0,0)"/>
<path d="" fill="#7DD856" transform="translate(0,0)"/>
<path d="" fill="#7DD857" transform="translate(0,0)"/>
<path d="" fill="#7DD857" transform="translate(0,0)"/>
<path d="" fill="#7DD857" transform="translate(0,0)"/>
<path d="" fill="#7DD857" transform="translate(0,0)"/>
<path d="" fill="#7CD856" transform="translate(0,0)"/>
<path d="" fill="#7DD757" transform="translate(0,0)"/>
<path d="" fill="#7DD857" transform="translate(0,0)"/>
<path d="" fill="#7DD756" transform="translate(0,0)"/>
<path d="" fill="#7CD856" transform="translate(0,0)"/>
<path d="" fill="#7DD857" transform="translate(0,0)"/>
<path d="" fill="#7DD857" transform="translate(0,0)"/>
<path d="" fill="#7DD857" transform="translate(0,0)"/>
<path d="" fill="#7DD857" transform="translate(0,0)"/>
<path d="" fill="#7DD956" transform="translate(0,0)"/>
<path d="" fill="#7ED856" transform="translate(0,0)"/>
<path d="" fill="#7DD856" transform="translate(0,0)"/>
<path d="" fill="#7DD856" transform="translate(0,0)"/>
<path d="" fill="#7DD856" transform="translate(0,0)"/>
<path d="" fill="#7DD856" transform="translate(0,0)"/>
<path d="" fill="#7DD756" transform="translate(0,0)"/>
<path d="" fill="#7CD955" transform="translate(0,0)"/>
<path d="" fill="#7DD856" transform="translate(0,0)"/>
<path d="" fill="#7DD856" transform="translate(0,0)"/>
<path d="" fill="#7DD956" transform="translate(0,0)"/>
<path d="" fill="#7DD956" transform="translate(0,0)"/>
<path d="" fill="#7DD856" transform="translate(0,0)"/>
<path d="" fill="#7ED757" transform="translate(0,0)"/>
<path d="" fill="#7DD956" transform="translate(0,0)"/>
<path d="" fill="#7DD856" transform="translate(0,0)"/>
<path d="" fill="#7DD956" transform="translate(0,0)"/>
<path d="" fill="#7DD956" transform="translate(0,0)"/>
<path d="" fill="#7DD956" transform="translate(0,0)"/>
<path d="" fill="#7DD756" transform="translate(0,0)"/>
<path d="" fill="#7ED957" transform="translate(0,0)"/>
<path d="" fill="#7CD856" transform="translate(0,0)"/>
<path d="" fill="#7DD956" transform="translate(0,0)"/>
<path d="" fill="#7ED956" transform="translate(0,0)"/>
<path d="" fill="#7DD856" transform="translate(0,0)"/>
<path d="" fill="#7DD956" transform="translate(0,0)"/>
<path d="" fill="#7DD856" transform="translate(0,0)"/>
<path d="" fill="#7DD856" transform="translate(0,0)"/>
<path d="" fill="#7DD856" transform="translate(0,0)"/>
<path d="" fill="#7DD956" transform="translate(0,0)"/>
<path d="" fill="#7DD856" transform="translate(0,0)"/>
<path d="" fill="#7DD956" transform="translate(0,0)"/>
<path d="" fill="#7DD856" transform="translate(0,0)"/>
<path d="" fill="#7ED856" transform="translate(0,0)"/>
<path d="" fill="#7ED857" transform="translate(0,0)"/>
<path d="" fill="#7DD856" transform="translate(0,0)"/>
<path d="" fill="#7ED956" transform="translate(0,0)"/>
<path d="" fill="#7CD857" transform="translate(0,0)"/>
<path d="" fill="#7DD856" transform="translate(0,0)"/>
<path d="" fill="#7ED856" transform="translate(0,0)"/>
<path d="" fill="#7DD857" transform="translate(0,0)"/>
<path d="" fill="#7ED857" transform="translate(0,0)"/>
<path d="" fill="#7DD956" transform="translate(0,0)"/>
<path d="" fill="#7DD856" transform="translate(0,0)"/>
<path d="" fill="#7DD857" transform="translate(0,0)"/>
<path d="" fill="#7DD856" transform="translate(0,0)"/>
<path d="" fill="#7ED857" transform="translate(0,0)"/>
<path d="" fill="#7DD856" transform="translate(0,0)"/>
<path d="" fill="#7DD956" transform="translate(0,0)"/>
<path d="" fill="#7DD857" transform="translate(0,0)"/>
<path d="" fill="#7ED856" transform="translate(0,0)"/>
<path d="" fill="#7DD856" transform="translate(0,0)"/>
<path d="" fill="#7DD956" transform="translate(0,0)"/>
<path d="" fill="#7DD956" transform="translate(0,0)"/>
<path d="" fill="#7DD857" transform="translate(0,0)"/>
<path d="" fill="#7ED856" transform="translate(0,0)"/>
<path d="" fill="#7DD857" transform="translate(0,0)"/>
<path d="" fill="#7CD855" transform="translate(0,0)"/>
<path d="" fill="#7ED956" transform="translate(0,0)"/>
<path d="" fill="#7ED956" transform="translate(0,0)"/>
<path d="" fill="#7CD955" transform="translate(0,0)"/>
<path d="" fill="#7ED956" transform="translate(0,0)"/>
<path d="" fill="#7ED856" transform="translate(0,0)"/>
<path d="" fill="#7CD856" transform="translate(0,0)"/>
<path d="" fill="#7ED856" transform="translate(0,0)"/>
<path d="" fill="#7ED856" transform="translate(0,0)"/>
<path d="" fill="#7CD856" transform="translate(0,0)"/>
<path d="" fill="#7EDA56" transform="translate(0,0)"/>
<path d="" fill="#7DD757" transform="translate(0,0)"/>
<path d="" fill="#7ED858" transform="translate(0,0)"/>
<path d="" fill="#7ED856" transform="translate(0,0)"/>
<path d="" fill="#7DD856" transform="translate(0,0)"/>
<path d="" fill="#7DD858" transform="translate(0,0)"/>
<path d="" fill="#7FDA58" transform="translate(0,0)"/>
<path d="" fill="#7DD757" transform="translate(0,0)"/>
<path d="" fill="#7DD858" transform="translate(0,0)"/>
<path d="" fill="#7DD856" transform="translate(0,0)"/>
<path d="" fill="#7DD856" transform="translate(0,0)"/>
<path d="" fill="#7ED858" transform="translate(0,0)"/>
<path d="" fill="#7CD956" transform="translate(0,0)"/>
<path d="" fill="#7DD856" transform="translate(0,0)"/>
<path d="" fill="#7DD857" transform="translate(0,0)"/>
<path d="" fill="#7DD856" transform="translate(0,0)"/>
<path d="" fill="#7DD856" transform="translate(0,0)"/>
<path d="" fill="#7ED758" transform="translate(0,0)"/>
<path d="" fill="#7DD856" transform="translate(0,0)"/>
<path d="" fill="#7DD855" transform="translate(0,0)"/>
<path d="" fill="#7CD857" transform="translate(0,0)"/>
<path d="" fill="#7DD856" transform="translate(0,0)"/>
<path d="" fill="#7ED856" transform="translate(0,0)"/>
<path d="" fill="#7CD857" transform="translate(0,0)"/>
<path d="" fill="#7DD856" transform="translate(0,0)"/>
<path d="" fill="#7DD858" transform="translate(0,0)"/>
<path d="" fill="#7ED956" transform="translate(0,0)"/>
<path d="" fill="#7ED956" transform="translate(0,0)"/>
<path d="" fill="#7DD858" transform="translate(0,0)"/>
<path d="" fill="#7ED857" transform="translate(0,0)"/>
<path d="" fill="#7DD857" transform="translate(0,0)"/>
<path d="" fill="#7DD956" transform="translate(0,0)"/>
<path d="" fill="#7DD956" transform="translate(0,0)"/>
<path d="" fill="#7DD757" transform="translate(0,0)"/>
<path d="" fill="#7DD856" transform="translate(0,0)"/>
<path d="" fill="#7DD856" transform="translate(0,0)"/>
<path d="" fill="#7CD857" transform="translate(0,0)"/>
<path d="" fill="#7DD956" transform="translate(0,0)"/>
<path d="" fill="#7DD856" transform="translate(0,0)"/>
<path d="" fill="#7DD857" transform="translate(0,0)"/>
<path d="" fill="#7DD856" transform="translate(0,0)"/>
<path d="" fill="#7DD857" transform="translate(0,0)"/>
<path d="" fill="#7DD956" transform="translate(0,0)"/>
<path d="" fill="#7ED956" transform="translate(0,0)"/>
<path d="" fill="#7DD857" transform="translate(0,0)"/>
<path d="" fill="#7DD956" transform="translate(0,0)"/>
<path d="" fill="#7DD756" transform="translate(0,0)"/>
<path d="" fill="#7ED856" transform="translate(0,0)"/>
<path d="" fill="#7DD856" transform="translate(0,0)"/>
<path d="" fill="#7ED858" transform="translate(0,0)"/>
<path d="" fill="#7DD956" transform="translate(0,0)"/>
<path d="" fill="#7DD956" transform="translate(0,0)"/>
<path d="" fill="#7CD756" transform="translate(0,0)"/>
<path d="" fill="#7DD956" transform="translate(0,0)"/>
<path d="" fill="#7ED956" transform="translate(0,0)"/>
<path d="" fill="#7ED858" transform="translate(0,0)"/>
<path d="" fill="#7DD856" transform="translate(0,0)"/>
<path d="" fill="#7DD956" transform="translate(0,0)"/>
<path d="" fill="#7CD757" transform="translate(0,0)"/>
<path d="" fill="#7ED956" transform="translate(0,0)"/>
<path d="" fill="#7ED956" transform="translate(0,0)"/>
<path d="" fill="#7ED857" transform="translate(0,0)"/>
<path d="" fill="#7DD856" transform="translate(0,0)"/>
<path d="" fill="#7DD956" transform="translate(0,0)"/>
<path d="" fill="#7DD757" transform="translate(0,0)"/>
<path d="" fill="#7DD856" transform="translate(0,0)"/>
<path d="" fill="#7DD856" transform="translate(0,0)"/>
<path d="" fill="#7DD856" transform="translate(0,0)"/>
<path d="" fill="#7DD856" transform="translate(0,0)"/>
<path d="" fill="#7DD957" transform="translate(0,0)"/>
<path d="" fill="#7ED856" transform="translate(0,0)"/>
<path d="" fill="#7ED956" transform="translate(0,0)"/>
<path d="" fill="#7ED956" transform="translate(0,0)"/>
<path d="" fill="#7CD855" transform="translate(0,0)"/>
<path d="" fill="#7ED855" transform="translate(0,0)"/>
<path d="" fill="#7DD856" transform="translate(0,0)"/>
<path d="" fill="#7DD857" transform="translate(0,0)"/>
<path d="" fill="#7ED956" transform="translate(0,0)"/>
<path d="" fill="#7DD856" transform="translate(0,0)"/>
<path d="" fill="#7ED857" transform="translate(0,0)"/>
<path d="" fill="#7ED856" transform="translate(0,0)"/>
<path d="" fill="#7CD856" transform="translate(0,0)"/>
<path d="" fill="#7DD856" transform="translate(0,0)"/>
<path d="" fill="#7FD758" transform="translate(0,0)"/>
<path d="" fill="#7DD857" transform="translate(0,0)"/>
<path d="" fill="#7DD856" transform="translate(0,0)"/>
<path d="" fill="#7ED957" transform="translate(0,0)"/>
<path d="" fill="#7DD856" transform="translate(0,0)"/>
</svg>
