<?xml version="1.0" encoding="UTF-8"?>
<svg version="1.1" xmlns="http://www.w3.org/2000/svg" width="200" height="200">
<path d="M0 0 C2.4375 1.1875 2.4375 1.1875 5 3 C5.66015625 5.61328125 5.66015625 5.61328125 6 8 C7.46638916 7.97643433 7.46638916 7.97643433 8.96240234 7.95239258 C12.63386603 7.8975661 16.30529452 7.86346095 19.97705078 7.83520508 C21.55784211 7.82023729 23.13859278 7.79985563 24.71923828 7.77368164 C37.32258597 7.57040184 48.35994224 7.79529969 58 17 C66.0582788 25.99018859 67.47542861 33.45781437 67.3125 45.3125 C67.31572266 46.50423828 67.31894531 47.69597656 67.32226562 48.92382812 C67.26724107 57.73275893 67.26724107 57.73275893 65 60 C59.39 60 53.78 60 48 60 C48.33 84.09 48.66 108.18 49 133 C50.98 133.99 52.96 134.98 55 136 C58.82888264 139.51843269 59.75982349 142.75902668 60.09375 147.79296875 C59.9206236 151.86865272 58.40836731 154.54835884 55.6015625 157.44140625 C50.43242563 162.04639874 46.59336231 162.12496426 39.85752869 162.13371277 C39.13752247 162.13597833 38.41751625 162.13824388 37.67569166 162.14057809 C35.26286342 162.14690876 32.85009149 162.14608934 30.43725586 162.14526367 C28.70756457 162.14825566 26.97787395 162.15165828 25.2481842 162.15544128 C20.5500188 162.16427939 15.8518716 162.16661926 11.15369868 162.16725707 C7.23441613 162.16820617 3.31513783 162.17188432 -0.60414308 162.17542917 C-9.84685604 162.18357229 -19.08955926 162.18601345 -28.33227539 162.18530273 C-37.87648429 162.18470132 -47.42063679 162.19526612 -56.96483141 162.2110464 C-65.15342891 162.2241044 -73.34200792 162.2294874 -81.53061575 162.22884732 C-86.42396015 162.22859191 -91.31725439 162.23146717 -96.21058846 162.24202538 C-100.80948947 162.25167763 -105.40829203 162.25180539 -110.00719643 162.24450874 C-111.69751376 162.24345945 -113.38783714 162.24584608 -115.07814407 162.2518692 C-117.38038408 162.2595434 -119.68228016 162.25497506 -121.98451233 162.24723816 C-123.2744362 162.24778293 -124.56436007 162.24832769 -125.89337254 162.24888897 C-129 162 -129 162 -132 160 C-132.51171875 157.27734375 -132.51171875 157.27734375 -132 154 C-130.33617591 151.62518979 -128.76819382 149.66047148 -126.8125 147.5625 C-125.79055007 146.42534609 -124.77098536 145.28604374 -123.75390625 144.14453125 C-123.26937988 143.60393066 -122.78485352 143.06333008 -122.28564453 142.50634766 C-120.74194029 140.69763988 -119.48821651 138.77731719 -118.25 136.75 C-116 134 -116 134 -112.1875 133.0625 C-110.6096875 133.0315625 -110.6096875 133.0315625 -109 133 C-109.05027344 131.28490234 -109.05027344 131.28490234 -109.1015625 129.53515625 C-109.09559461 125.00851319 -108.3833599 120.83897888 -107.375 116.4375 C-107.19606201 115.65592529 -107.01712402 114.87435059 -106.83276367 114.0690918 C-102.06961562 94.27922615 -92.41377369 78.17581045 -78 64 C-77.1646875 63.16597656 -76.329375 62.33195312 -75.46875 61.47265625 C-62.98588009 49.61798272 -46.92971523 41.63084748 -30.25 37.625 C-29.60192383 37.4693457 -28.95384766 37.31369141 -28.28613281 37.15332031 C-17.1055856 34.71646289 -5.56064802 34.81848774 5.828125 34.68359375 C7.31313577 34.66296468 8.79814146 34.64196693 10.28314209 34.62062073 C14.14959539 34.56601345 18.01609612 34.51633966 21.88262939 34.46777344 C25.8449718 34.41710384 29.80724724 34.36165764 33.76953125 34.30664062 C41.51296377 34.19981208 49.25645283 34.09820724 57 34 C56.23316448 32.38164774 55.45653108 30.7679356 54.67578125 29.15625 C54.24434814 28.25712891 53.81291504 27.35800781 53.3684082 26.43164062 C50.73549908 21.75300104 47.28750497 20.37554353 42.30126953 18.92114258 C38.19634748 17.93517537 34.2013729 17.73626359 29.9921875 17.76171875 C28.49608453 17.74631322 26.99999058 17.73001066 25.50390625 17.71289062 C23.18224923 17.69640927 20.86126191 17.68754165 18.53955078 17.69458008 C16.27301632 17.69720725 14.0084568 17.66906085 11.7421875 17.63671875 C10.71072098 17.65202888 10.71072098 17.65202888 9.65841675 17.66764832 C4.06420302 17.55491694 1.81357256 15.78888346 -2 12 C-4.04243935 9.02917913 -4.55095218 6.58118917 -4 3 C-2 1.1875 -2 1.1875 0 0 Z M14.39550781 44.26245117 C11.74019792 44.2970727 9.08516553 44.32359449 6.4296875 44.34643555 C-25.31624565 44.62675723 -51.63494945 49.76724605 -75 73 C-90.06252485 88.98839988 -100 110.88196158 -100 133 C-54.13 133 -8.26 133 39 133 C39 103.63 39 74.26 39 44 C30.79881008 44 22.59574891 44.15249202 14.39550781 44.26245117 Z " fill="#FE5656" transform="translate(133,19)"/>
<path d="M0 0 C0.78345291 -0.00807175 1.56690582 -0.01614349 2.37409973 -0.02445984 C4.02045527 -0.03822026 5.66683837 -0.04897794 7.31323242 -0.05688477 C8.99788767 -0.0684783 10.68250414 -0.08904448 12.36694336 -0.1184082 C14.80738133 -0.16089808 17.24673912 -0.17721857 19.6875 -0.1875 C20.81722481 -0.21376213 20.81722481 -0.21376213 21.96977234 -0.24055481 C27.18988717 -0.21877387 27.18988717 -0.21877387 29.34214783 1.94490051 C30.88234187 4.65704448 31.02450493 6.29685033 31.03271484 9.40234375 C31.04217133 10.43020996 31.05162781 11.45807617 31.06137085 12.51708984 C31.05529816 13.62133301 31.04922546 14.72557617 31.04296875 15.86328125 C31.04583893 17.0023291 31.04870911 18.14137695 31.05166626 19.31494141 C31.05370705 21.72233579 31.04817618 24.12974675 31.03564453 26.53710938 C31.01959197 30.22433512 31.03549363 33.91046465 31.0546875 37.59765625 C31.05270507 39.93620034 31.04886141 42.27474375 31.04296875 44.61328125 C31.04904144 45.71752441 31.05511414 46.82176758 31.06137085 47.95947266 C31.04718613 49.50127197 31.04718613 49.50127197 31.03271484 51.07421875 C31.03032806 51.9770459 31.02794128 52.87987305 31.02548218 53.81005859 C30.53984291 56.90557615 30.02519163 58.16653386 27.64453125 60.23828125 C24.90597748 60.6410496 22.56494356 60.78539827 19.82421875 60.75585938 C18.63110077 60.76637329 18.63110077 60.76637329 17.41387939 60.77709961 C14.78207589 60.79471891 12.15134586 60.78304345 9.51953125 60.76953125 C7.69254347 60.77222505 5.86555708 60.77610653 4.03857422 60.78112793 C0.20852008 60.78702829 -3.62116107 60.77844282 -7.45117188 60.75976562 C-12.36444791 60.73697564 -17.27685003 60.75009586 -22.19009399 60.77405548 C-25.96303918 60.788499 -29.73577664 60.78391415 -33.50872803 60.77354431 C-35.32045596 60.77087302 -37.13220266 60.77416091 -38.94390869 60.78346252 C-41.47483381 60.79360455 -44.00433724 60.77816129 -46.53515625 60.75585938 C-47.28641785 60.7639563 -48.03767944 60.77205322 -48.81170654 60.78039551 C-52.11209411 60.72642509 -53.8827823 60.68736847 -56.32861328 58.36364746 C-59.41077693 51.98424289 -56.31327556 43.43066879 -54.23046875 37.11328125 C-48.44755687 22.09423297 -37.71762841 11.28531425 -23.35546875 4.23828125 C-15.70590116 1.05680971 -8.26602462 0.08173261 0 0 Z M-6.35546875 9.23828125 C-6.35546875 9.56828125 -6.35546875 9.89828125 -6.35546875 10.23828125 C2.88453125 10.23828125 12.12453125 10.23828125 21.64453125 10.23828125 C21.64453125 9.90828125 21.64453125 9.57828125 21.64453125 9.23828125 C12.40453125 9.23828125 3.16453125 9.23828125 -6.35546875 9.23828125 Z M-37.16796875 25.05078125 C-43.36182435 32.58858666 -47.35546875 41.45645467 -47.35546875 51.23828125 C-42.07546875 51.23828125 -36.79546875 51.23828125 -31.35546875 51.23828125 C-31.02546875 46.28828125 -30.69546875 41.33828125 -30.35546875 36.23828125 C-19.13546875 36.23828125 -7.91546875 36.23828125 3.64453125 36.23828125 C4.13953125 43.66328125 4.13953125 43.66328125 4.64453125 51.23828125 C10.25453125 51.23828125 15.86453125 51.23828125 21.64453125 51.23828125 C21.64453125 50.90828125 21.64453125 50.57828125 21.64453125 50.23828125 C16.36453125 50.23828125 11.08453125 50.23828125 5.64453125 50.23828125 C5.97453125 49.90828125 6.30453125 49.57828125 6.64453125 49.23828125 C11.26453125 49.23828125 15.88453125 49.23828125 20.64453125 49.23828125 C20.64453125 36.69828125 20.64453125 24.15828125 20.64453125 11.23828125 C12.81734375 10.86703125 12.81734375 10.86703125 4.83203125 10.48828125 C2.39799927 10.35534668 2.39799927 10.35534668 -0.08520508 10.21972656 C-15.17330081 9.63809719 -26.69912975 13.85839399 -37.16796875 25.05078125 Z M-22.35546875 44.23828125 C-22.35546875 46.54828125 -22.35546875 48.85828125 -22.35546875 51.23828125 C-16.41546875 51.23828125 -10.47546875 51.23828125 -4.35546875 51.23828125 C-4.35546875 48.92828125 -4.35546875 46.61828125 -4.35546875 44.23828125 C-10.29546875 44.23828125 -16.23546875 44.23828125 -22.35546875 44.23828125 Z " fill="#FE5656" transform="translate(135.35546875,69.76171875)"/>
<path d="M0 0 C0.33 0 0.66 0 1 0 C1 28.38 1 56.76 1 86 C-44.21 86 -89.42 86 -136 86 C-135.67 84.68 -135.34 83.36 -135 82 C-135 82.99 -135 83.98 -135 85 C-90.45 85 -45.9 85 0 85 C0 56.95 0 28.9 0 0 Z " fill="#FF5656" transform="translate(170,65)"/>
<path d="M0 0 C5.28 0 10.56 0 16 0 C16 0.33 16 0.66 16 1 C11.05 1 6.1 1 1 1 C1 24.1 1 47.2 1 71 C1.66 71.33 2.32 71.66 3 72 C2.01 72 1.02 72 0 72 C0 48.24 0 24.48 0 0 Z " fill="#FE5656" transform="translate(182,80)"/>
<path d="M0 0 C27.06 0 54.12 0 82 0 C82 0.33 82 0.66 82 1 C54.94 1 27.88 1 0 1 C0 0.67 0 0.34 0 0 Z " fill="#FE5656" transform="translate(81,131)"/>
<path d="M0 0 C2.4375 0.75 2.4375 0.75 5 2 C5.9375 3.9375 5.9375 3.9375 6 6 C5.01 7.485 5.01 7.485 4 9 C0.875 9.1875 0.875 9.1875 -2 9 C-2.66 7.35 -3.32 5.7 -4 4 C-2.68 2.68 -1.36 1.36 0 0 Z " fill="#FE5555" transform="translate(160,136)"/>
<path d="M0 0 C2.4375 0.6875 2.4375 0.6875 5 2 C5.8125 4.625 5.8125 4.625 6 7 C3.525 8.485 3.525 8.485 1 10 C-0.32 9.01 -1.64 8.02 -3 7 C-2.25 2.25 -2.25 2.25 0 0 Z " fill="#FE5656" transform="translate(144,136)"/>
<path d="M0 0 C5.28 0 10.56 0 16 0 C16 1.65 16 3.3 16 5 C10.72 5 5.44 5 0 5 C0 3.35 0 1.7 0 0 Z M1 1 C1 1.99 1 2.98 1 4 C5.62 4 10.24 4 15 4 C15 3.01 15 2.02 15 1 C10.38 1 5.76 1 1 1 Z " fill="#FE5656" transform="translate(114,115)"/>
<path d="M0 0 C11.22 0 22.44 0 34 0 C34 0.33 34 0.66 34 1 C22.78 1 11.56 1 0 1 C0 0.67 0 0.34 0 0 Z " fill="#FF5656" transform="translate(128,68)"/>
<path d="M0 0 C10.56 0 21.12 0 32 0 C32 0.33 32 0.66 32 1 C21.44 1 10.88 1 0 1 C0 0.67 0 0.34 0 0 Z " fill="#FE5656" transform="translate(138,37)"/>
<path d="M0 0 C10.56 0 21.12 0 32 0 C32 0.33 32 0.66 32 1 C21.44 1 10.88 1 0 1 C0 0.67 0 0.34 0 0 Z " fill="#FE5656" transform="translate(140,25)"/>
<path d="M0 0 C9.9 0 19.8 0 30 0 C30 0.33 30 0.66 30 1 C20.1 1 10.2 1 0 1 C0 0.67 0 0.34 0 0 Z " fill="#FE5656" transform="translate(107,103)"/>
<path d="M0 0 C0.33 0 0.66 0 1 0 C1 3.96 1 7.92 1 12 C-3.62 12 -8.24 12 -13 12 C-12.67 10.68 -12.34 9.36 -12 8 C-12 8.99 -12 9.98 -12 11 C-8.04 11 -4.08 11 0 11 C0 7.37 0 3.74 0 0 Z " fill="#FE5656" transform="translate(102,108)"/>
<path d="M0 0 C3.63 0 7.26 0 11 0 C11 0.33 11 0.66 11 1 C7.37 1 3.74 1 0 1 C0 0.67 0 0.34 0 0 Z " fill="#FE5656" transform="translate(115,65)"/>
<path d="M0 0 C0.33 0 0.66 0 1 0 C1 1.65 1 3.3 1 5 C-0.32 4.67 -1.64 4.34 -3 4 C-2.01 4 -1.02 4 0 4 C0 2.68 0 1.36 0 0 Z " fill="#FE5656" transform="translate(22,146)"/>
<path d="M0 0 C2.31 0 4.62 0 7 0 C7 0.33 7 0.66 7 1 C4.69 1 2.38 1 0 1 C0 0.67 0 0.34 0 0 Z " fill="#FF5656" transform="translate(113,53)"/>
<path d="M0 0 C0.33 0 0.66 0 1 0 C1 1.65 1 3.3 1 5 C0.67 5 0.34 5 0 5 C0 3.35 0 1.7 0 0 Z " fill="#FF5555" transform="translate(194,164)"/>
<path d="M0 0 C0.33 0 0.66 0 1 0 C1 1.65 1 3.3 1 5 C0.67 5 0.34 5 0 5 C0 3.35 0 1.7 0 0 Z " fill="#FF5656" transform="translate(35,140)"/>
<path d="M0 0 C0.33 0 0.66 0 1 0 C1 1.65 1 3.3 1 5 C0.67 5 0.34 5 0 5 C0 3.35 0 1.7 0 0 Z " fill="#FF5656" transform="translate(23,139)"/>
<path d="M0 0 C0.33 0 0.66 0 1 0 C1 1.65 1 3.3 1 5 C0.67 5 0.34 5 0 5 C0 3.35 0 1.7 0 0 Z " fill="#FF5656" transform="translate(77,115)"/>
<path d="M0 0 C1 4 1 4 1 4 Z " fill="#FE5656" transform="translate(139,139)"/>
<path d="M0 0 C1 4 1 4 1 4 Z " fill="#FF5656" transform="translate(36,135)"/>
<path d="M0 0 C4 1 4 1 4 1 Z " fill="#FF5656" transform="translate(123,81)"/>
<path d="M0 0 C4 1 4 1 4 1 Z " fill="#FF5656" transform="translate(122,69)"/>
<path d="M0 0 C4 1 4 1 4 1 Z " fill="#FF5656" transform="translate(108,66)"/>
<path d="M0 0 C4 1 4 1 4 1 Z " fill="#FF5757" transform="translate(107,54)"/>
<path d="" fill="#FE5656" transform="translate(0,0)"/>
<path d="" fill="#FE5555" transform="translate(0,0)"/>
<path d="" fill="#FF5656" transform="translate(0,0)"/>
<path d="" fill="#FE5656" transform="translate(0,0)"/>
<path d="" fill="#FF5656" transform="translate(0,0)"/>
<path d="" fill="#FE5656" transform="translate(0,0)"/>
<path d="" fill="#FE5656" transform="translate(0,0)"/>
<path d="" fill="#FF5757" transform="translate(0,0)"/>
<path d="M0 0 C3 1 3 1 3 1 Z " fill="#FE5656" transform="translate(119,82)"/>
<path d="M0 0 C3 1 3 1 3 1 Z " fill="#FE5757" transform="translate(112,72)"/>
<path d="M0 0 C3 1 3 1 3 1 Z " fill="#FF5656" transform="translate(118,70)"/>
<path d="M0 0 C3 1 3 1 3 1 Z " fill="#FF5656" transform="translate(96,69)"/>
<path d="M0 0 C3 1 3 1 3 1 Z " fill="#FE5656" transform="translate(103,67)"/>
<path d="M0 0 C3 1 3 1 3 1 Z " fill="#FF5656" transform="translate(98,56)"/>
<path d="M0 0 C3 1 3 1 3 1 Z " fill="#FF5656" transform="translate(102,55)"/>
<path d="" fill="#FE5656" transform="translate(0,0)"/>
<path d="M0 0 C3 1 3 1 3 1 Z " fill="#FE5656" transform="translate(173,38)"/>
<path d="M0 0 C3 1 3 1 3 1 Z " fill="#FF5656" transform="translate(174,26)"/>
<path d="" fill="#FE5656" transform="translate(0,0)"/>
<path d="" fill="#FF5656" transform="translate(0,0)"/>
<path d="M0 0 C2 1 2 1 2 1 Z " fill="#FF5656" transform="translate(181,181)"/>
<path d="M0 0 C2 1 2 1 2 1 Z " fill="#FF5757" transform="translate(2,181)"/>
<path d="M0 0 C2 1 2 1 2 1 Z " fill="#FF5656" transform="translate(184,180)"/>
<path d="" fill="#FF5656" transform="translate(0,0)"/>
<path d="" fill="#FF5555" transform="translate(0,0)"/>
<path d="" fill="#FF5757" transform="translate(0,0)"/>
<path d="" fill="#FF5656" transform="translate(0,0)"/>
<path d="" fill="#FE5757" transform="translate(0,0)"/>
<path d="" fill="#FE5757" transform="translate(0,0)"/>
<path d="" fill="#FF5757" transform="translate(0,0)"/>
<path d="" fill="#FF5858" transform="translate(0,0)"/>
<path d="M0 0 C2 1 2 1 2 1 Z " fill="#FF5858" transform="translate(17,151)"/>
<path d="M0 0 C2 1 2 1 2 1 Z " fill="#FF5555" transform="translate(162,146)"/>
<path d="M0 0 C2 1 2 1 2 1 Z " fill="#FF5656" transform="translate(146,146)"/>
<path d="M0 0 C2 1 2 1 2 1 Z " fill="#FF5656" transform="translate(143,146)"/>
<path d="" fill="#FF5656" transform="translate(0,0)"/>
<path d="" fill="#FF5555" transform="translate(0,0)"/>
<path d="" fill="#FF5656" transform="translate(0,0)"/>
<path d="M0 0 C2 1 2 1 2 1 Z " fill="#FF5656" transform="translate(162,135)"/>
<path d="M0 0 C2 1 2 1 2 1 Z " fill="#FE5656" transform="translate(158,135)"/>
<path d="" fill="#FF5656" transform="translate(0,0)"/>
<path d="" fill="#FF5656" transform="translate(0,0)"/>
<path d="" fill="#FF5656" transform="translate(0,0)"/>
<path d="" fill="#FE5656" transform="translate(0,0)"/>
<path d="" fill="#FE5656" transform="translate(0,0)"/>
<path d="" fill="#FF5757" transform="translate(0,0)"/>
<path d="" fill="#FE5656" transform="translate(0,0)"/>
<path d="" fill="#FF5656" transform="translate(0,0)"/>
<path d="" fill="#FF5555" transform="translate(0,0)"/>
<path d="" fill="#FF5555" transform="translate(0,0)"/>
<path d="" fill="#FF5555" transform="translate(0,0)"/>
<path d="" fill="#FF5656" transform="translate(0,0)"/>
<path d="" fill="#FF5757" transform="translate(0,0)"/>
<path d="" fill="#FF5656" transform="translate(0,0)"/>
<path d="" fill="#FE5656" transform="translate(0,0)"/>
<path d="" fill="#FF5656" transform="translate(0,0)"/>
<path d="" fill="#FE5656" transform="translate(0,0)"/>
<path d="" fill="#FE5858" transform="translate(0,0)"/>
<path d="M0 0 C2 1 2 1 2 1 Z " fill="#FE5757" transform="translate(137,104)"/>
<path d="M0 0 C2 1 2 1 2 1 Z " fill="#FF5656" transform="translate(105,104)"/>
<path d="" fill="#FF5757" transform="translate(0,0)"/>
<path d="" fill="#FF5656" transform="translate(0,0)"/>
<path d="" fill="#FF5757" transform="translate(0,0)"/>
<path d="" fill="#FF5555" transform="translate(0,0)"/>
<path d="" fill="#FE5656" transform="translate(0,0)"/>
<path d="" fill="#FE5555" transform="translate(0,0)"/>
<path d="" fill="#FF5858" transform="translate(0,0)"/>
<path d="" fill="#FF5656" transform="translate(0,0)"/>
<path d="" fill="#FF5656" transform="translate(0,0)"/>
<path d="" fill="#FE5656" transform="translate(0,0)"/>
<path d="M0 0 C2 1 2 1 2 1 Z " fill="#FF5656" transform="translate(103,91)"/>
<path d="M0 0 C2 1 2 1 2 1 Z " fill="#FF5555" transform="translate(107,88)"/>
<path d="" fill="#FF5959" transform="translate(0,0)"/>
<path d="M0 0 C2 1 2 1 2 1 Z " fill="#FF5656" transform="translate(110,86)"/>
<path d="" fill="#FF5656" transform="translate(0,0)"/>
<path d="M0 0 C2 1 2 1 2 1 Z " fill="#FE5656" transform="translate(112,85)"/>
<path d="M0 0 C2 1 2 1 2 1 Z " fill="#FF5656" transform="translate(114,84)"/>
<path d="M0 0 C2 1 2 1 2 1 Z " fill="#FF5757" transform="translate(68,84)"/>
<path d="M0 0 C2 1 2 1 2 1 Z " fill="#FE5656" transform="translate(117,83)"/>
<path d="M0 0 C2 1 2 1 2 1 Z " fill="#FF5757" transform="translate(95,83)"/>
<path d="M0 0 C2 1 2 1 2 1 Z " fill="#FF5555" transform="translate(54,81)"/>
<path d="M0 0 C2 1 2 1 2 1 Z " fill="#FF5757" transform="translate(100,79)"/>
<path d="M0 0 C2 1 2 1 2 1 Z " fill="#FF5757" transform="translate(75,79)"/>
<path d="M0 0 C2 1 2 1 2 1 Z " fill="#FF5656" transform="translate(80,76)"/>
<path d="M0 0 C2 1 2 1 2 1 Z " fill="#FF5656" transform="translate(106,75)"/>
<path d="M0 0 C2 1 2 1 2 1 Z " fill="#FF5656" transform="translate(82,75)"/>
<path d="M0 0 C2 1 2 1 2 1 Z " fill="#FE5757" transform="translate(61,75)"/>
<path d="M0 0 C2 1 2 1 2 1 Z " fill="#FE5656" transform="translate(108,74)"/>
<path d="M0 0 C2 1 2 1 2 1 Z " fill="#FF5757" transform="translate(84,74)"/>
<path d="" fill="#FE5656" transform="translate(0,0)"/>
<path d="M0 0 C2 1 2 1 2 1 Z " fill="#FF5656" transform="translate(110,73)"/>
<path d="M0 0 C2 1 2 1 2 1 Z " fill="#FF5757" transform="translate(86,73)"/>
<path d="M0 0 C2 1 2 1 2 1 Z " fill="#FE5656" transform="translate(65,72)"/>
<path d="M0 0 C2 1 2 1 2 1 Z " fill="#FE5656" transform="translate(115,71)"/>
<path d="M0 0 C2 1 2 1 2 1 Z " fill="#FF5656" transform="translate(91,71)"/>
<path d="M0 0 C2 1 2 1 2 1 Z " fill="#FF5656" transform="translate(94,70)"/>
<path d="M0 0 C2 1 2 1 2 1 Z " fill="#FF5656" transform="translate(100,68)"/>
<path d="M0 0 C2 1 2 1 2 1 Z " fill="#FE5656" transform="translate(71,68)"/>
<path d="M0 0 C2 1 2 1 2 1 Z " fill="#FF5656" transform="translate(74,66)"/>
<path d="M0 0 C2 1 2 1 2 1 Z " fill="#FF5656" transform="translate(76,65)"/>
<path d="M0 0 C2 1 2 1 2 1 Z " fill="#FF5656" transform="translate(78,64)"/>
<path d="M0 0 C2 1 2 1 2 1 Z " fill="#FF5656" transform="translate(80,63)"/>
<path d="M0 0 C2 1 2 1 2 1 Z " fill="#FF5656" transform="translate(82,62)"/>
<path d="M0 0 C2 1 2 1 2 1 Z " fill="#FF5656" transform="translate(84,61)"/>
<path d="M0 0 C2 1 2 1 2 1 Z " fill="#FE5757" transform="translate(87,60)"/>
<path d="M0 0 C2 1 2 1 2 1 Z " fill="#FF5656" transform="translate(89,59)"/>
<path d="M0 0 C2 1 2 1 2 1 Z " fill="#FE5656" transform="translate(92,58)"/>
<path d="M0 0 C2 1 2 1 2 1 Z " fill="#FF5656" transform="translate(95,57)"/>
<path d="" fill="#FE5656" transform="translate(0,0)"/>
<path d="" fill="#FF5656" transform="translate(0,0)"/>
<path d="M0 0 C2 1 2 1 2 1 Z " fill="#FF5757" transform="translate(179,40)"/>
<path d="M0 0 C2 1 2 1 2 1 Z " fill="#FF5656" transform="translate(177,39)"/>
<path d="M0 0 C2 1 2 1 2 1 Z " fill="#FE5656" transform="translate(135,36)"/>
<path d="M0 0 C2 1 2 1 2 1 Z " fill="#FE5656" transform="translate(186,31)"/>
<path d="" fill="#FF5757" transform="translate(0,0)"/>
<path d="M0 0 C2 1 2 1 2 1 Z " fill="#FF5656" transform="translate(178,27)"/>
<path d="M0 0 C2 1 2 1 2 1 Z " fill="#FF5656" transform="translate(131,18)"/>
<path d="" fill="#FF5757" transform="translate(0,0)"/>
<path d="" fill="#FF5656" transform="translate(0,0)"/>
<path d="" fill="#FF5656" transform="translate(0,0)"/>
<path d="" fill="#FF5656" transform="translate(0,0)"/>
<path d="" fill="#FF5B5B" transform="translate(0,0)"/>
<path d="" fill="#FF5959" transform="translate(0,0)"/>
<path d="" fill="#FF5656" transform="translate(0,0)"/>
<path d="" fill="#FF5757" transform="translate(0,0)"/>
<path d="" fill="#FF5656" transform="translate(0,0)"/>
<path d="" fill="#FF5656" transform="translate(0,0)"/>
<path d="" fill="#FF5757" transform="translate(0,0)"/>
<path d="" fill="#FF5656" transform="translate(0,0)"/>
<path d="" fill="#FF5656" transform="translate(0,0)"/>
<path d="" fill="#FF5757" transform="translate(0,0)"/>
<path d="" fill="#FF5656" transform="translate(0,0)"/>
<path d="" fill="#FF5656" transform="translate(0,0)"/>
<path d="" fill="#FF5757" transform="translate(0,0)"/>
<path d="" fill="#FF5656" transform="translate(0,0)"/>
<path d="" fill="#FF5656" transform="translate(0,0)"/>
<path d="" fill="#FF5656" transform="translate(0,0)"/>
<path d="" fill="#FF5656" transform="translate(0,0)"/>
<path d="" fill="#FF5656" transform="translate(0,0)"/>
<path d="" fill="#FF5757" transform="translate(0,0)"/>
<path d="" fill="#FF5656" transform="translate(0,0)"/>
<path d="" fill="#FF5555" transform="translate(0,0)"/>
<path d="" fill="#FF5757" transform="translate(0,0)"/>
<path d="" fill="#FE5656" transform="translate(0,0)"/>
<path d="" fill="#FF5656" transform="translate(0,0)"/>
<path d="" fill="#FF5454" transform="translate(0,0)"/>
<path d="" fill="#FE5555" transform="translate(0,0)"/>
<path d="" fill="#FF5656" transform="translate(0,0)"/>
<path d="" fill="#FF5757" transform="translate(0,0)"/>
<path d="" fill="#FF5454" transform="translate(0,0)"/>
<path d="" fill="#FF5555" transform="translate(0,0)"/>
<path d="" fill="#FF5757" transform="translate(0,0)"/>
<path d="" fill="#FF5A5A" transform="translate(0,0)"/>
<path d="" fill="#FF5757" transform="translate(0,0)"/>
<path d="" fill="#FF5757" transform="translate(0,0)"/>
<path d="" fill="#FF5757" transform="translate(0,0)"/>
<path d="" fill="#FF5757" transform="translate(0,0)"/>
<path d="" fill="#FF5757" transform="translate(0,0)"/>
<path d="" fill="#FF5656" transform="translate(0,0)"/>
<path d="" fill="#FF5656" transform="translate(0,0)"/>
<path d="" fill="#FF5555" transform="translate(0,0)"/>
<path d="" fill="#FF5656" transform="translate(0,0)"/>
<path d="" fill="#FF5656" transform="translate(0,0)"/>
<path d="" fill="#FF5656" transform="translate(0,0)"/>
<path d="" fill="#FF5757" transform="translate(0,0)"/>
<path d="" fill="#FF5757" transform="translate(0,0)"/>
<path d="" fill="#FF5656" transform="translate(0,0)"/>
<path d="" fill="#FF5858" transform="translate(0,0)"/>
<path d="" fill="#FF5858" transform="translate(0,0)"/>
<path d="" fill="#FF5757" transform="translate(0,0)"/>
<path d="" fill="#FF5858" transform="translate(0,0)"/>
<path d="" fill="#FF5656" transform="translate(0,0)"/>
<path d="" fill="#FF5656" transform="translate(0,0)"/>
<path d="" fill="#FF5656" transform="translate(0,0)"/>
<path d="" fill="#FF5757" transform="translate(0,0)"/>
<path d="" fill="#FF5656" transform="translate(0,0)"/>
<path d="" fill="#FF5656" transform="translate(0,0)"/>
<path d="" fill="#FF5656" transform="translate(0,0)"/>
<path d="" fill="#FF5656" transform="translate(0,0)"/>
<path d="" fill="#FF5757" transform="translate(0,0)"/>
<path d="" fill="#FF5656" transform="translate(0,0)"/>
<path d="" fill="#FE5656" transform="translate(0,0)"/>
<path d="" fill="#FE5656" transform="translate(0,0)"/>
<path d="" fill="#FF5656" transform="translate(0,0)"/>
<path d="" fill="#FF5656" transform="translate(0,0)"/>
<path d="" fill="#FF5656" transform="translate(0,0)"/>
<path d="" fill="#FF5656" transform="translate(0,0)"/>
<path d="" fill="#FF5757" transform="translate(0,0)"/>
<path d="" fill="#FE5656" transform="translate(0,0)"/>
<path d="" fill="#FF5656" transform="translate(0,0)"/>
<path d="" fill="#FF5656" transform="translate(0,0)"/>
<path d="" fill="#FF5656" transform="translate(0,0)"/>
<path d="" fill="#FF5656" transform="translate(0,0)"/>
<path d="" fill="#FF5656" transform="translate(0,0)"/>
<path d="" fill="#FF5757" transform="translate(0,0)"/>
<path d="" fill="#FE5656" transform="translate(0,0)"/>
<path d="" fill="#FF5656" transform="translate(0,0)"/>
<path d="" fill="#FF5555" transform="translate(0,0)"/>
<path d="" fill="#FF5656" transform="translate(0,0)"/>
<path d="" fill="#FF5656" transform="translate(0,0)"/>
<path d="" fill="#FE5656" transform="translate(0,0)"/>
<path d="" fill="#FF5656" transform="translate(0,0)"/>
<path d="" fill="#FE5757" transform="translate(0,0)"/>
<path d="" fill="#FF5656" transform="translate(0,0)"/>
<path d="" fill="#FF5656" transform="translate(0,0)"/>
<path d="" fill="#FF5656" transform="translate(0,0)"/>
<path d="" fill="#FF5757" transform="translate(0,0)"/>
<path d="" fill="#FF5656" transform="translate(0,0)"/>
<path d="" fill="#FE5858" transform="translate(0,0)"/>
<path d="" fill="#FF5656" transform="translate(0,0)"/>
<path d="" fill="#FF5656" transform="translate(0,0)"/>
<path d="" fill="#FF5656" transform="translate(0,0)"/>
<path d="" fill="#FF5555" transform="translate(0,0)"/>
<path d="" fill="#FF5757" transform="translate(0,0)"/>
<path d="" fill="#FF5656" transform="translate(0,0)"/>
<path d="" fill="#FF5656" transform="translate(0,0)"/>
<path d="" fill="#FF5656" transform="translate(0,0)"/>
<path d="" fill="#FF5656" transform="translate(0,0)"/>
<path d="" fill="#FF5757" transform="translate(0,0)"/>
<path d="" fill="#FF5656" transform="translate(0,0)"/>
<path d="" fill="#FF5656" transform="translate(0,0)"/>
<path d="" fill="#FF5656" transform="translate(0,0)"/>
<path d="" fill="#FE5757" transform="translate(0,0)"/>
<path d="" fill="#FF5656" transform="translate(0,0)"/>
<path d="" fill="#FF5656" transform="translate(0,0)"/>
<path d="" fill="#FF5757" transform="translate(0,0)"/>
<path d="" fill="#FF5656" transform="translate(0,0)"/>
<path d="" fill="#FF5656" transform="translate(0,0)"/>
<path d="" fill="#FE5656" transform="translate(0,0)"/>
<path d="" fill="#FF5656" transform="translate(0,0)"/>
<path d="" fill="#FF5656" transform="translate(0,0)"/>
<path d="" fill="#FE5656" transform="translate(0,0)"/>
<path d="" fill="#FF5757" transform="translate(0,0)"/>
<path d="" fill="#FF5656" transform="translate(0,0)"/>
<path d="" fill="#FF5757" transform="translate(0,0)"/>
<path d="" fill="#FF5656" transform="translate(0,0)"/>
<path d="" fill="#FF5656" transform="translate(0,0)"/>
<path d="" fill="#FF5757" transform="translate(0,0)"/>
<path d="" fill="#FF5757" transform="translate(0,0)"/>
<path d="" fill="#FE5656" transform="translate(0,0)"/>
<path d="" fill="#FF5757" transform="translate(0,0)"/>
<path d="" fill="#FF5757" transform="translate(0,0)"/>
<path d="" fill="#FF5757" transform="translate(0,0)"/>
<path d="" fill="#FF5757" transform="translate(0,0)"/>
<path d="" fill="#FF5656" transform="translate(0,0)"/>
<path d="" fill="#FF5757" transform="translate(0,0)"/>
<path d="" fill="#FF5757" transform="translate(0,0)"/>
<path d="" fill="#FF5656" transform="translate(0,0)"/>
<path d="" fill="#FF5555" transform="translate(0,0)"/>
<path d="" fill="#FF5656" transform="translate(0,0)"/>
<path d="" fill="#FE5656" transform="translate(0,0)"/>
<path d="" fill="#FF5656" transform="translate(0,0)"/>
<path d="" fill="#FF5656" transform="translate(0,0)"/>
<path d="" fill="#FF5656" transform="translate(0,0)"/>
<path d="" fill="#FE5656" transform="translate(0,0)"/>
<path d="" fill="#FF5757" transform="translate(0,0)"/>
<path d="" fill="#FF5656" transform="translate(0,0)"/>
<path d="" fill="#FF5959" transform="translate(0,0)"/>
<path d="" fill="#FF5656" transform="translate(0,0)"/>
<path d="" fill="#FF5656" transform="translate(0,0)"/>
<path d="" fill="#FF5656" transform="translate(0,0)"/>
<path d="" fill="#FF5656" transform="translate(0,0)"/>
<path d="" fill="#FF5656" transform="translate(0,0)"/>
<path d="" fill="#FF5656" transform="translate(0,0)"/>
<path d="" fill="#FF5656" transform="translate(0,0)"/>
<path d="" fill="#FF5656" transform="translate(0,0)"/>
<path d="" fill="#FE5656" transform="translate(0,0)"/>
<path d="" fill="#FE5656" transform="translate(0,0)"/>
<path d="" fill="#FE5656" transform="translate(0,0)"/>
<path d="" fill="#FF5757" transform="translate(0,0)"/>
<path d="" fill="#FF5656" transform="translate(0,0)"/>
<path d="" fill="#FE5656" transform="translate(0,0)"/>
<path d="" fill="#FF5656" transform="translate(0,0)"/>
<path d="" fill="#FF5656" transform="translate(0,0)"/>
<path d="" fill="#FE5656" transform="translate(0,0)"/>
<path d="" fill="#FF5757" transform="translate(0,0)"/>
<path d="" fill="#FF5656" transform="translate(0,0)"/>
<path d="" fill="#FF5757" transform="translate(0,0)"/>
<path d="" fill="#FF5757" transform="translate(0,0)"/>
<path d="" fill="#FF5757" transform="translate(0,0)"/>
<path d="" fill="#FF5858" transform="translate(0,0)"/>
<path d="" fill="#FF5656" transform="translate(0,0)"/>
<path d="" fill="#FF5656" transform="translate(0,0)"/>
<path d="" fill="#FF5656" transform="translate(0,0)"/>
<path d="" fill="#FE5656" transform="translate(0,0)"/>
<path d="" fill="#FF5656" transform="translate(0,0)"/>
<path d="" fill="#FF5757" transform="translate(0,0)"/>
<path d="" fill="#FE5656" transform="translate(0,0)"/>
<path d="" fill="#FF5757" transform="translate(0,0)"/>
<path d="" fill="#FF5656" transform="translate(0,0)"/>
<path d="" fill="#FF5757" transform="translate(0,0)"/>
<path d="" fill="#FF5858" transform="translate(0,0)"/>
<path d="" fill="#FE5757" transform="translate(0,0)"/>
</svg>
