<?xml version="1.0" encoding="UTF-8"?>
<svg version="1.1" xmlns="http://www.w3.org/2000/svg" width="300" height="300">
<path d="M0 0 C0.66 0 1.32 0 2 0 C3.00460531 2.12282669 4.00355602 4.24833021 5 6.375 C5.556875 7.55835938 6.11375 8.74171875 6.6875 9.9609375 C8 13 8 13 8 15 C8.90363281 15.06058594 9.80726563 15.12117187 10.73828125 15.18359375 C11.91777344 15.26738281 13.09726563 15.35117188 14.3125 15.4375 C15.48425781 15.51871094 16.65601563 15.59992188 17.86328125 15.68359375 C21 16 21 16 24 17 C22.55332886 20.54742232 20.79191734 21.94860629 17.75 24.1875 C15.46406775 26.33775641 14.09960572 27.83690741 13.82617188 31.02978516 C14.03992584 36.10207953 14.96276222 41.03929759 16 46 C12.86735948 44.80014982 9.97802948 43.46403715 7.0625 41.8125 C4.40248565 40.49241825 3.09043282 40.0019241 0.0625 39.9375 C-3.5879688 41.20398918 -6.73990157 42.95609737 -10.046875 44.94140625 C-12 46 -12 46 -14 46 C-13.85492922 44.66658348 -13.7088897 43.33327236 -13.5625 42 C-13.44648438 40.76056641 -13.44648438 40.76056641 -13.328125 39.49609375 C-13 37 -13 37 -12.359375 34.97265625 C-11.69464502 32.65084939 -11.4655883 31.37857012 -12 29 C-14.3885063 26.07257079 -16.95420213 23.61015876 -19.77734375 21.1015625 C-20.51082031 20.40804687 -21.24429688 19.71453125 -22 19 C-22 18.34 -22 17.68 -22 17 C-20.99839844 16.94585937 -19.99679688 16.89171875 -18.96484375 16.8359375 C-11.6118244 16.26936434 -11.6118244 16.26936434 -5.60253906 12.48388672 C-3.09855673 8.58845091 -1.48345821 4.36956369 0 0 Z " fill="#2E9AD7" transform="translate(149,127)"/>
<path d="M0 0 C2.68125418 2.38246339 4.11423459 4.8545504 5.6875 8.0625 C6.34298828 9.37927734 6.34298828 9.37927734 7.01171875 10.72265625 C8 13 8 13 8 15 C9.22976562 15.09087891 9.22976562 15.09087891 10.484375 15.18359375 C11.56203125 15.26738281 12.6396875 15.35117188 13.75 15.4375 C14.81734375 15.51871094 15.8846875 15.59992188 16.984375 15.68359375 C19.43679962 15.94090773 21.63921291 16.31812218 24 17 C22.54815303 20.48750541 20.69099857 22.23049677 17.8125 24.625 C14.76348189 27.55100262 14.76348189 27.55100262 13.6640625 31.49609375 C13.93773881 34.06474138 14.40546088 36.48746138 15 39 C15.20070768 40.37313425 15.39003151 41.74803382 15.5625 43.125 C15.706875 44.07375 15.85125 45.0225 16 46 C12.49262765 44.973452 9.55604595 43.7795318 6.5 41.8125 C3.24963891 39.80410499 3.24963891 39.80410499 0.25 39.9375 C-4.68567219 41.55108514 -9.32725152 43.74677075 -14 46 C-13.85616078 44.47897677 -13.70980986 42.95819103 -13.5625 41.4375 C-13.44068359 40.16712891 -13.44068359 40.16712891 -13.31640625 38.87109375 C-13 36 -13 36 -12.125 32.53125 C-11.62477213 28.82933434 -11.62477213 28.82933434 -14.30859375 25.91015625 C-15.33184666 24.93971639 -16.37578251 23.99070042 -17.4375 23.0625 C-17.96666016 22.56943359 -18.49582031 22.07636719 -19.04101562 21.56835938 C-20.34331382 20.35992051 -21.66945513 19.1772661 -23 18 C-19.63653883 15.97710689 -17.06096233 15.88922586 -13.1875 15.75 C-9.94907311 15.44383955 -9.94907311 15.44383955 -7 14 C-3.83115531 9.60911336 -1.87520362 5.05776752 0 0 Z " fill="#2E9BD9" transform="translate(204,127)"/>
<path d="M0 0 C2.41219097 2.92037727 3.52756631 5.50779151 4.75 9.0625 C5.88946974 11.80610559 5.88946974 11.80610559 8 14 C12.95267412 15.78127127 17.77885827 16.48773704 23 17 C21.55332886 20.54742232 19.79191734 21.94860629 16.75 24.1875 C14.46406775 26.33775641 13.09960572 27.83690741 12.82617188 31.02978516 C13.03992584 36.10207953 13.96276222 41.03929759 15 46 C13.69675781 45.33291016 13.69675781 45.33291016 12.3671875 44.65234375 C11.21476562 44.08644531 10.06234375 43.52054688 8.875 42.9375 C7.73804687 42.36902344 6.60109375 41.80054688 5.4296875 41.21484375 C1.60629771 39.86054509 -0.14976255 39.8669601 -4 41 C-6.48947247 42.14450099 -6.48947247 42.14450099 -8.75 43.5625 C-12.8101983 46 -12.8101983 46 -15 46 C-14.73960938 44.88882813 -14.47921875 43.77765625 -14.2109375 42.6328125 C-12.27687017 33.85063072 -12.27687017 33.85063072 -15.09375 25.71484375 C-17.62554813 23.30039019 -20.2590474 21.16715457 -23 19 C-23 18.34 -23 17.68 -23 17 C-17.61972975 15.80911014 -12.54708616 14.7080481 -7 15 C-6.773125 14.195625 -6.54625 13.39125 -6.3125 12.5625 C-4.66368412 8.08714261 -2.39455588 4.11278682 0 0 Z " fill="#2E9AD7" transform="translate(95,127)"/>
<path d="M0 0 C3.00948463 2.49525896 3.59367051 4.8176057 4.6875 8.5 C5.92482627 11.44545907 6.79131034 13.4594782 9.79394531 14.80224609 C14.45123933 16.10537394 19.19103583 16.61008399 24 17 C23.08552154 18.08518111 22.16829593 19.16804738 21.25 20.25 C20.43402344 21.21679688 20.43402344 21.21679688 19.6015625 22.203125 C18 24 18 24 15.625 26 C11.6965686 30.83499249 14.39991773 40.07418756 15 46 C14.07960938 45.41347656 13.15921875 44.82695312 12.2109375 44.22265625 C5.49292136 40.0753166 5.49292136 40.0753166 -2.08447266 39.35546875 C-6.43497506 40.93861186 -10.22415516 43.35283605 -14 46 C-13.81179687 44.81664062 -13.62359375 43.63328125 -13.4296875 42.4140625 C-11.91361049 33.04116191 -11.91361049 33.04116191 -15.16015625 24.578125 C-17.65987014 22.14521078 -20.14351846 19.99803103 -23 18 C-19.59648662 15.96780512 -16.6767073 15.63108961 -12.75 15.375 C-11.67234375 15.30023438 -10.5946875 15.22546875 -9.484375 15.1484375 C-8.25460938 15.07496094 -8.25460938 15.07496094 -7 15 C-6.773125 14.195625 -6.54625 13.39125 -6.3125 12.5625 C-4.66368412 8.08714261 -2.39455588 4.11278682 0 0 Z " fill="#2E9BD9" transform="translate(259,127)"/>
<path d="M0 0 C2.42523392 2.92794347 3.49527646 5.48582938 4.6875 9.0625 C5.97682446 11.81549154 6.92578936 13.55060921 9.79394531 14.75048828 C14.45755312 16.01395753 19.1976892 16.5598352 24 17 C23.62488281 17.43570313 23.24976563 17.87140625 22.86328125 18.3203125 C21.79148471 19.5675921 20.72956808 20.82340531 19.67578125 22.0859375 C18 24 18 24 16.41796875 25.4140625 C14.70725103 26.90961108 14.70725103 26.90961108 13 30 C13.14999303 32.90129382 13.67230594 35.50265746 14.38671875 38.31640625 C14.99443861 40.9756645 15.10315727 43.28352529 15 46 C14.07960937 45.41347656 13.15921875 44.82695312 12.2109375 44.22265625 C5.49292136 40.0753166 5.49292136 40.0753166 -2.08447266 39.35546875 C-6.43497506 40.93861186 -10.22415516 43.35283605 -14 46 C-14.09610361 41.66999824 -13.78350225 37.90371821 -12.875 33.6875 C-12.4227371 29.65621838 -12.71048846 28.39264675 -15.16015625 25.0703125 C-17.68016173 22.56802858 -20.24151023 20.23490999 -23 18 C-19.59648662 15.96780512 -16.6767073 15.63108961 -12.75 15.375 C-11.67234375 15.30023438 -10.5946875 15.22546875 -9.484375 15.1484375 C-8.25460938 15.07496094 -8.25460938 15.07496094 -7 15 C-6.773125 14.195625 -6.54625 13.39125 -6.3125 12.5625 C-4.66368412 8.08714261 -2.39455588 4.11278682 0 0 Z " fill="#2E9CD9" transform="translate(40,127)"/>
</svg>
