<?xml version="1.0" encoding="UTF-8"?>
<!DOCTYPE svg PUBLIC "-//W3C//DTD SVG 1.1//EN" "http://www.w3.org/Graphics/SVG/1.1/DTD/svg11.dtd">
<svg xmlns="http://www.w3.org/2000/svg" version="1.1" width="300px" height="300px" style="shape-rendering:geometricPrecision; text-rendering:geometricPrecision; image-rendering:optimizeQuality; fill-rule:evenodd; clip-rule:evenodd" xmlns:xlink="http://www.w3.org/1999/xlink">
<g><path style="opacity:0.994" fill="#2fa0e0" d="M 139.5,15.5 C 199.342,14.3221 243.176,39.9888 271,92.5C 292.581,144.861 285.915,193.194 251,237.5C 212.514,278.085 166.014,291.585 111.5,278C 64.8266,262.66 34.3266,231.493 20,184.5C 7.33762,128.155 22.8376,81.3213 66.5,44C 88.2471,27.7901 112.58,18.2901 139.5,15.5 Z M 137.5,34.5 C 199.906,32.9337 241.073,61.6004 261,120.5C 270.184,160.608 261.35,196.108 234.5,227C 233.551,227.617 232.718,227.451 232,226.5C 218.301,201.224 197.134,186.724 168.5,183C 155.5,182.333 142.5,182.333 129.5,183C 100.871,187.48 79.5376,202.314 65.5,227.5C 38.8698,198.085 29.3698,163.751 37,124.5C 51.4914,73.1708 84.9914,43.1708 137.5,34.5 Z"/></g>
<g><path style="opacity:0.995" fill="#30a1e2" d="M 141.5,70.5 C 169.835,68.7009 187.668,81.3675 195,108.5C 197.445,136.376 185.279,154.209 158.5,162C 130.128,164.907 111.962,152.74 104,125.5C 101.364,96.6654 113.864,78.332 141.5,70.5 Z"/></g>
</svg>
