<?xml version="1.0" encoding="UTF-8"?>
<!DOCTYPE svg PUBLIC "-//W3C//DTD SVG 1.1//EN" "http://www.w3.org/Graphics/SVG/1.1/DTD/svg11.dtd">
<svg xmlns="http://www.w3.org/2000/svg" version="1.1" width="200px" height="200px" style="shape-rendering:geometricPrecision; text-rendering:geometricPrecision; image-rendering:optimizeQuality; fill-rule:evenodd; clip-rule:evenodd" xmlns:xlink="http://www.w3.org/1999/xlink">
<g><path style="opacity:0.864" fill="#30a3e4" d="M 55.5,-0.5 C 64.1667,-0.5 72.8333,-0.5 81.5,-0.5C 81.5,0.166667 81.8333,0.5 82.5,0.5C 82.2053,2.73535 82.5386,4.73535 83.5,6.5C 83.4021,8.55292 84.0687,10.2196 85.5,11.5C 86.1667,14.1667 87.8333,15.8333 90.5,16.5C 90.8417,17.3382 91.5084,17.6716 92.5,17.5C 96.9531,19.9632 101.62,20.1299 106.5,18C 107.942,17.6232 108.942,16.7899 109.5,15.5C 111.5,15.5 112.5,14.5 112.5,12.5C 115.598,9.20699 116.931,5.20699 116.5,0.5C 117.167,0.5 117.5,0.166667 117.5,-0.5C 125.833,-0.5 134.167,-0.5 142.5,-0.5C 151.408,3.95406 160.408,8.45406 169.5,13C 172.885,15.529 175.218,18.6956 176.5,22.5C 176.54,25.8806 176.207,29.2139 175.5,32.5C 174.662,32.8417 174.328,33.5084 174.5,34.5C 173.662,34.8417 173.328,35.5084 173.5,36.5C 172.833,36.5 172.5,36.8333 172.5,37.5C 171.833,37.5 171.5,37.8333 171.5,38.5C 170.833,38.5 170.5,38.8333 170.5,39.5C 169.833,39.5 169.5,39.8333 169.5,40.5C 168.508,40.3284 167.842,40.6618 167.5,41.5C 166.508,41.3284 165.842,41.6618 165.5,42.5C 163.901,42.2322 162.568,42.5655 161.5,43.5C 159.236,42.7814 156.903,42.448 154.5,42.5C 151.6,40.4654 148.434,38.7987 145,37.5C 144.168,46.1858 144.335,54.8525 145.5,63.5C 146.86,64.1799 148.193,64.8466 149.5,65.5C 150.315,66.8366 151.482,67.8366 153,68.5C 167.28,64.5551 177.78,69.2218 184.5,82.5C 184.232,84.099 184.566,85.4324 185.5,86.5C 187.649,87.7362 189.982,88.7362 192.5,89.5C 194.167,91.8333 196.167,93.8333 198.5,95.5C 198.263,96.791 198.596,97.791 199.5,98.5C 199.5,102.167 199.5,105.833 199.5,109.5C 198.662,109.842 198.328,110.508 198.5,111.5C 197.662,111.842 197.328,112.508 197.5,113.5C 196.833,113.5 196.5,113.833 196.5,114.5C 195.833,114.5 195.5,114.833 195.5,115.5C 194.833,115.5 194.5,115.833 194.5,116.5C 193.833,116.5 193.5,116.833 193.5,117.5C 192.833,117.5 192.5,117.833 192.5,118.5C 191.732,119.263 191.232,120.263 191,121.5C 189.594,141.183 188.094,160.849 186.5,180.5C 185.596,181.209 185.263,182.209 185.5,183.5C 184.662,183.842 184.328,184.508 184.5,185.5C 183.662,185.842 183.328,186.508 183.5,187.5C 182.833,187.5 182.5,187.833 182.5,188.5C 181.094,188.973 180.427,189.973 180.5,191.5C 179.833,191.5 179.5,191.833 179.5,192.5C 178.833,192.5 178.5,192.833 178.5,193.5C 176.973,193.427 175.973,194.094 175.5,195.5C 174.833,195.5 174.5,195.833 174.5,196.5C 173.508,196.328 172.842,196.662 172.5,197.5C 171.508,197.328 170.842,197.662 170.5,198.5C 169.209,198.263 168.209,198.596 167.5,199.5C 122.167,199.5 76.8333,199.5 31.5,199.5C 30.791,198.596 29.791,198.263 28.5,198.5C 24.0906,195.633 20.0906,192.299 16.5,188.5C 15.134,185.768 13.8007,183.101 12.5,180.5C 10.8732,161.185 9.3732,141.852 8,122.5C 7.78997,120.942 7.28997,119.609 6.5,118.5C 5.5,116.833 4.16667,115.5 2.5,114.5C 1.73685,112.632 0.736849,110.965 -0.5,109.5C -0.5,105.5 -0.5,101.5 -0.5,97.5C 3.02908,91.99 8.02908,88.3234 14.5,86.5C 15.4565,84.9246 16.1231,83.258 16.5,81.5C 21.7783,74.362 28.7783,70.0287 37.5,68.5C 40.5211,65.6616 43.8544,63.3283 47.5,61.5C 49.861,61.3259 52.1944,60.9926 54.5,60.5C 54.6664,52.8261 54.4997,45.1594 54,37.5C 51.9419,38.2291 50.1086,39.2291 48.5,40.5C 47.5084,40.3284 46.8417,40.6618 46.5,41.5C 45.5084,41.3284 44.8417,41.6618 44.5,42.5C 42.0971,42.448 39.7638,42.7814 37.5,43.5C 25.4948,39.8302 20.9948,31.8302 24,19.5C 25.4578,17.04 27.2911,14.8734 29.5,13C 38.3851,8.72566 47.0518,4.22566 55.5,-0.5 Z M 75.5,8.5 C 76.404,9.20895 76.7373,10.209 76.5,11.5C 75.2875,12.4971 75.4542,13.4971 77,14.5C 77.3988,14.2716 77.5654,13.9382 77.5,13.5C 78.3382,13.8417 78.6716,14.5084 78.5,15.5C 78.0618,15.4346 77.7284,15.6012 77.5,16C 78.7332,17.6667 80.0665,19.1667 81.5,20.5C 81.5,21.1667 81.8333,21.5 82.5,21.5C 83.6883,22.3636 84.8549,23.3636 86,24.5C 86.3988,24.2716 86.5654,23.9382 86.5,23.5C 87.4916,23.3284 88.1583,23.6618 88.5,24.5C 87.2617,24.81 87.2617,25.31 88.5,26C 89.4368,26.6917 90.1034,26.525 90.5,25.5C 95.1304,26.2295 99.7971,26.5628 104.5,26.5C 106.214,25.2616 108.214,24.595 110.5,24.5C 110.973,23.0937 111.973,22.427 113.5,22.5C 113.435,22.9382 113.601,23.2716 114,23.5C 114.995,22.9341 115.828,22.2674 116.5,21.5C 117.167,21.5 117.5,21.1667 117.5,20.5C 118.167,20.5 118.5,20.1667 118.5,19.5C 119.267,18.828 119.934,17.9947 120.5,17C 120.272,16.6012 119.938,16.4346 119.5,16.5C 119.427,14.9731 120.094,13.9731 121.5,13.5C 121.81,14.7383 122.31,14.7383 123,13.5C 123.692,12.5632 123.525,11.8966 122.5,11.5C 122.263,10.209 122.596,9.20895 123.5,8.5C 123.351,7.44802 123.517,6.44802 124,5.5C 129.933,6.14758 135.766,6.81425 141.5,7.5C 140.127,7.34332 138.793,7.50999 137.5,8C 139.218,8.34598 140.885,8.84598 142.5,9.5C 143.107,9.37642 143.44,9.04309 143.5,8.5C 144.492,8.32842 145.158,8.66175 145.5,9.5C 146.492,9.32842 147.158,9.66175 147.5,10.5C 148.492,10.3284 149.158,10.6618 149.5,11.5C 150.492,11.3284 151.158,11.6618 151.5,12.5C 152.492,12.3284 153.158,12.6618 153.5,13.5C 154.492,13.3284 155.158,13.6618 155.5,14.5C 156.492,14.3284 157.158,14.6618 157.5,15.5C 158.492,15.3284 159.158,15.6618 159.5,16.5C 160.492,16.3284 161.158,16.6618 161.5,17.5C 162.492,17.3284 163.158,17.6618 163.5,18.5C 164.492,18.3284 165.158,18.6618 165.5,19.5C 165.062,19.4346 164.728,19.6012 164.5,20C 165.701,20.9025 166.535,22.0692 167,23.5C 167.464,22.9056 167.631,22.2389 167.5,21.5C 168.404,22.209 168.737,23.209 168.5,24.5C 169.718,27.533 169.052,30.1996 166.5,32.5C 165.922,31.453 165.256,31.6197 164.5,33C 164.728,33.3988 165.062,33.5654 165.5,33.5C 165.158,34.3382 164.492,34.6716 163.5,34.5C 160.977,33.7463 158.311,33.0796 155.5,32.5C 154.893,32.6236 154.56,32.9569 154.5,33.5C 152.447,33.5979 150.78,32.9313 149.5,31.5C 150.239,31.631 150.906,31.4643 151.5,31C 149.167,29.8333 146.833,28.6667 144.5,27.5C 143.893,27.6236 143.56,27.9569 143.5,28.5C 141.833,28.5 140.167,28.5 138.5,28.5C 137.922,27.453 137.256,27.6197 136.5,29C 136.728,29.3988 137.062,29.5654 137.5,29.5C 137.5,39.8333 137.5,50.1667 137.5,60.5C 133.802,60.5524 130.135,60.8857 126.5,61.5C 125.279,60.5354 123.946,60.702 122.5,62C 121.262,62.69 121.262,63.19 122.5,63.5C 122.027,64.9063 121.027,65.573 119.5,65.5C 119.565,65.0618 119.399,64.7284 119,64.5C 118.005,65.0659 117.172,65.7326 116.5,66.5C 111.797,66.4372 107.13,66.7705 102.5,67.5C 100.968,69.7813 99.6344,69.7813 98.5,67.5C 96.1815,67.0075 94.1815,66.0075 92.5,64.5C 95.0972,64.2792 95.0972,63.7792 92.5,63C 91.2506,62.2599 90.2506,62.4265 89.5,63.5C 86.5,63.5 83.5,63.5 80.5,63.5C 79.4324,64.4345 78.099,64.7678 76.5,64.5C 75.0057,63.6014 73.5057,63.9347 72,65.5C 69.5737,62.5251 66.7403,61.1918 63.5,61.5C 61.5238,51.2191 60.8572,40.5524 61.5,29.5C 62.547,28.9222 62.3803,28.2555 61,27.5C 60.6012,27.7284 60.4346,28.0618 60.5,28.5C 58.8333,28.5 57.1667,28.5 55.5,28.5C 55.44,27.9569 55.1067,27.6236 54.5,27.5C 52.1667,28.6667 49.8333,29.8333 47.5,31C 48.0944,31.4643 48.7611,31.631 49.5,31.5C 48.2196,32.9313 46.5529,33.5979 44.5,33.5C 44.44,32.9569 44.1067,32.6236 43.5,32.5C 40.6894,33.0796 38.0227,33.7463 35.5,34.5C 34.5084,34.6716 33.8417,34.3382 33.5,33.5C 34.547,32.9222 34.3803,32.2555 33,31.5C 32.6012,31.7284 32.4346,32.0618 32.5,32.5C 29.1423,29.0633 28.809,25.3966 31.5,21.5C 31.369,22.2389 31.5357,22.9056 32,23.5C 32.4652,22.0692 33.2986,20.9025 34.5,20C 34.2716,19.6012 33.9382,19.4346 33.5,19.5C 33.8417,18.6618 34.5084,18.3284 35.5,18.5C 35.8417,17.6618 36.5084,17.3284 37.5,17.5C 37.8417,16.6618 38.5084,16.3284 39.5,16.5C 39.8417,15.6618 40.5084,15.3284 41.5,15.5C 41.8417,14.6618 42.5084,14.3284 43.5,14.5C 43.8417,13.6618 44.5084,13.3284 45.5,13.5C 45.8417,12.6618 46.5084,12.3284 47.5,12.5C 47.8417,11.6618 48.5084,11.3284 49.5,11.5C 49.8417,10.6618 50.5084,10.3284 51.5,10.5C 51.8417,9.66175 52.5084,9.32842 53.5,9.5C 53.8417,8.66175 54.5084,8.32842 55.5,8.5C 55.56,9.04309 55.8933,9.37642 56.5,9.5C 58.1151,8.84598 59.7818,8.34598 61.5,8C 60.2068,7.50999 58.8734,7.34332 57.5,7.5C 63.2339,6.81425 69.0672,6.14758 75,5.5C 75.4828,6.44802 75.6495,7.44802 75.5,8.5 Z M 85.5,11.5 C 87.5,12.8333 89.1667,14.5 90.5,16.5C 87.8333,15.8333 86.1667,14.1667 85.5,11.5 Z M 112.5,12.5 C 112.5,14.5 111.5,15.5 109.5,15.5C 110.167,14.1667 111.167,13.1667 112.5,12.5 Z M 118.5,17.5 C 118.5,18.1667 118.5,18.8333 118.5,19.5C 117.833,19.5 117.5,19.8333 117.5,20.5C 116.833,20.5 116.5,20.8333 116.5,21.5C 115.833,21.5 115.167,21.5 114.5,21.5C 115.5,19.8333 116.833,18.5 118.5,17.5 Z M 81.5,20.5 C 81.5,20.1667 81.5,19.8333 81.5,19.5C 83.0269,19.427 84.0269,20.0937 84.5,21.5C 83.8333,21.5 83.1667,21.5 82.5,21.5C 81.8333,21.5 81.5,21.1667 81.5,20.5 Z M 61.5,69.5 C 62.4916,69.3284 63.1583,69.6618 63.5,70.5C 62.2617,70.81 62.2617,71.31 63.5,72C 64.9308,72.4652 66.0975,73.2986 67,74.5C 67.3988,74.2716 67.5654,73.9382 67.5,73.5C 68.4916,73.3284 69.1583,73.6618 69.5,74.5C 71.861,74.3259 74.1944,73.9926 76.5,73.5C 76.56,74.0431 76.8933,74.3764 77.5,74.5C 78.7946,73.9017 80.1279,73.4017 81.5,73C 80.552,72.5172 79.552,72.3505 78.5,72.5C 82.8333,69.8333 87.1667,69.8333 91.5,72.5C 90.448,72.3505 89.448,72.5172 88.5,73C 91.7789,73.9728 94.7789,75.4728 97.5,77.5C 98.1067,77.3764 98.44,77.0431 98.5,76.5C 99.8333,76.5 101.167,76.5 102.5,76.5C 102.56,77.0431 102.893,77.3764 103.5,77.5C 104.795,76.9017 106.128,76.4017 107.5,76C 106.552,75.5172 105.552,75.3505 104.5,75.5C 105.568,74.5655 106.901,74.2322 108.5,74.5C 110.5,75.8333 112.5,75.8333 114.5,74.5C 116.5,74.5 118.5,74.5 120.5,74.5C 120.56,75.0431 120.893,75.3764 121.5,75.5C 124.383,72.8908 127.717,71.0575 131.5,70C 130.552,69.5172 129.552,69.3505 128.5,69.5C 131.04,67.5873 133.707,67.254 136.5,68.5C 138.415,68.2155 140.081,68.5489 141.5,69.5C 140.448,69.3505 139.448,69.5172 138.5,70C 140.519,70.4497 142.352,71.283 144,72.5C 144.399,72.2716 144.565,71.9382 144.5,71.5C 146.404,71.7376 147.738,72.7376 148.5,74.5C 150.435,75.1495 152.435,75.4828 154.5,75.5C 158.833,72.8333 163.167,72.8333 167.5,75.5C 168.492,75.3284 169.158,75.6618 169.5,76.5C 170.492,76.3284 171.158,76.6618 171.5,77.5C 171.062,77.4346 170.728,77.6012 170.5,78C 172.049,79.214 173.215,80.714 174,82.5C 174.69,83.7383 175.19,83.7383 175.5,82.5C 176.338,82.8417 176.672,83.5084 176.5,84.5C 177.404,85.209 177.737,86.209 177.5,87.5C 166.833,87.5 156.167,87.5 145.5,87.5C 144.922,86.453 144.256,86.6197 143.5,88C 143.728,88.3988 144.062,88.5654 144.5,88.5C 144.5,89.8333 144.5,91.1667 144.5,92.5C 144.062,92.4346 143.728,92.6012 143.5,93C 144.333,93.8333 145.167,94.6667 146,95.5C 146.399,95.2716 146.565,94.9382 146.5,94.5C 160.171,94.3334 173.837,94.5001 187.5,95C 188.056,95.3826 188.389,95.8826 188.5,96.5C 187.167,96.8333 187.167,97.1667 188.5,97.5C 188.5,98.1667 188.833,98.5 189.5,98.5C 189.5,99.1667 189.833,99.5 190.5,99.5C 190.833,103.5 191.167,103.5 191.5,99.5C 192.833,102.5 192.833,105.5 191.5,108.5C 191.307,104.551 190.807,104.551 190,108.5C 189.097,109.701 187.931,110.535 186.5,111C 127.793,111.825 69.1259,111.659 10.5,110.5C 10.5,109.833 10.1667,109.5 9.5,109.5C 8.9101,108.234 8.4101,106.901 8,105.5C 7.51722,106.448 7.35055,107.448 7.5,108.5C 6.16667,105.5 6.16667,102.5 7.5,99.5C 7.83333,103.5 8.16667,103.5 8.5,99.5C 9.5,99.1667 10.1667,98.5 10.5,97.5C 9.83333,97.5 9.16667,97.5 8.5,97.5C 9.28696,95.8958 10.6203,95.2291 12.5,95.5C 49.9978,96.6644 87.6644,96.8311 125.5,96C 128.259,95.1657 129.259,93.6657 128.5,91.5C 127.833,90.1667 127.167,88.8333 126.5,87.5C 91.8269,87.8332 57.1603,87.4999 22.5,86.5C 22.6236,85.8933 22.9569,85.56 23.5,85.5C 23.81,86.7383 24.31,86.7383 25,85.5C 25.7845,83.714 26.9512,82.214 28.5,81C 28.2716,80.6012 27.9382,80.4346 27.5,80.5C 28.0577,79.2101 29.0577,78.3768 30.5,78C 33.4318,77.0467 36.4318,76.5467 39.5,76.5C 39.8417,75.6618 40.5084,75.3284 41.5,75.5C 42.3274,76.4387 42.9941,76.1054 43.5,74.5C 44.1667,74.5 44.5,74.1667 44.5,73.5C 45.1667,73.5 45.5,73.1667 45.5,72.5C 48.3322,71.729 48.6655,71.0623 46.5,70.5C 48.4385,68.8372 50.7718,68.1706 53.5,68.5C 56.2441,67.5094 58.9107,67.8427 61.5,69.5 Z M 45.5,71.5 C 45.5,71.8333 45.5,72.1667 45.5,72.5C 44.8333,72.5 44.5,72.8333 44.5,73.5C 43.8333,73.5 43.5,73.8333 43.5,74.5C 43.1667,74.5 42.8333,74.5 42.5,74.5C 42.5,72.5 43.5,71.5 45.5,71.5 Z M 188.5,97.5 C 188.5,97.1667 188.5,96.8333 188.5,96.5C 190.5,96.5 191.5,97.5 191.5,99.5C 191.167,99.5 190.833,99.5 190.5,99.5C 189.833,99.5 189.5,99.1667 189.5,98.5C 188.833,98.5 188.5,98.1667 188.5,97.5 Z M 8.5,109.5 C 8.83333,109.5 9.16667,109.5 9.5,109.5C 10.1667,109.5 10.5,109.833 10.5,110.5C 10.5,110.833 10.5,111.167 10.5,111.5C 9.16667,111.5 8.5,110.833 8.5,109.5 Z M 178.5,178.5 C 178.737,179.791 178.404,180.791 177.5,181.5C 177.631,180.761 177.464,180.094 177,179.5C 176.153,181.193 175.32,182.86 174.5,184.5C 173.5,184.833 172.833,185.5 172.5,186.5C 171.833,186.5 171.5,186.833 171.5,187.5C 169.86,188.32 168.193,189.153 166.5,190C 167.094,190.464 167.761,190.631 168.5,190.5C 167.791,191.404 166.791,191.737 165.5,191.5C 121.335,192.665 77.0019,192.831 32.5,192C 31.5842,191.722 30.9175,191.222 30.5,190.5C 31.2389,190.631 31.9056,190.464 32.5,190C 31.255,189.209 29.9217,188.709 28.5,188.5C 28.5,187.833 28.1667,187.5 27.5,187.5C 26.8333,186.167 25.8333,185.167 24.5,184.5C 24.5,183.833 24.1667,183.5 23.5,183.5C 23.2914,182.078 22.7914,180.745 22,179.5C 21.5357,180.094 21.369,180.761 21.5,181.5C 19.8906,178.851 19.0572,175.851 19,172.5C 17.9465,155.239 16.4465,138.073 14.5,121C 70.8323,120.5 127.166,120.333 183.5,120.5C 182.74,140.064 181.073,159.397 178.5,178.5 Z M 35.5,129.5 C 36.1667,129.5 36.8333,129.5 37.5,129.5C 37.0269,130.906 36.0269,131.573 34.5,131.5C 34.5,131.167 34.5,130.833 34.5,130.5C 35.1667,130.5 35.5,130.167 35.5,129.5 Z M 41.5,136.5 C 41.5,136.833 41.5,137.167 41.5,137.5C 40.8333,137.5 40.5,137.833 40.5,138.5C 40.1667,138.5 39.8333,138.5 39.5,138.5C 39.5,137.167 40.1667,136.5 41.5,136.5 Z M 157.5,137.5 C 157.5,137.167 157.5,136.833 157.5,136.5C 158.833,136.5 159.5,137.167 159.5,138.5C 159.167,138.5 158.833,138.5 158.5,138.5C 158.5,137.833 158.167,137.5 157.5,137.5 Z M 41.5,137.5 C 56.244,136.86 70.744,137.527 85,139.5C 85.4643,138.906 85.631,138.239 85.5,137.5C 87.7311,139.642 87.7311,141.642 85.5,143.5C 85.5654,143.062 85.3988,142.728 85,142.5C 83.9326,143.191 82.7659,143.691 81.5,144C 82.448,144.483 83.448,144.649 84.5,144.5C 69.8333,145.833 55.1667,145.833 40.5,144.5C 44.5,144.167 44.5,143.833 40.5,143.5C 40.5,141.833 40.5,140.167 40.5,138.5C 41.1667,138.5 41.5,138.167 41.5,137.5 Z M 113.5,137.5 C 113.369,138.239 113.536,138.906 114,139.5C 128.256,137.527 142.756,136.86 157.5,137.5C 158.167,137.5 158.5,137.833 158.5,138.5C 158.5,140.167 158.5,141.833 158.5,143.5C 154.5,143.833 154.5,144.167 158.5,144.5C 143.833,145.833 129.167,145.833 114.5,144.5C 115.552,144.649 116.552,144.483 117.5,144C 116.234,143.691 115.067,143.191 114,142.5C 113.601,142.728 113.435,143.062 113.5,143.5C 110.833,141.5 110.833,139.5 113.5,137.5 Z M 156.5,168.5 C 157.492,168.328 158.158,168.662 158.5,169.5C 158.5,171.833 158.5,174.167 158.5,176.5C 158.158,177.338 157.492,177.672 156.5,177.5C 143.01,176.504 129.344,176.171 115.5,176.5C 114.452,174.067 113.786,174.067 113.5,176.5C 112.751,175.469 112.085,174.302 111.5,173C 112.085,171.698 112.751,170.531 113.5,169.5C 113.786,171.933 114.452,171.933 115.5,169.5C 129.344,169.829 143.01,169.496 156.5,168.5 Z M 22.5,183.5 C 22.8333,183.5 23.1667,183.5 23.5,183.5C 24.1667,183.5 24.5,183.833 24.5,184.5C 24.5,185.167 24.5,185.833 24.5,186.5C 23.0937,186.027 22.427,185.027 22.5,183.5 Z M 172.5,186.5 C 173.167,186.5 173.833,186.5 174.5,186.5C 174.027,187.906 173.027,188.573 171.5,188.5C 171.5,188.167 171.5,187.833 171.5,187.5C 172.167,187.5 172.5,187.167 172.5,186.5 Z M 25.5,187.5 C 26.1667,187.5 26.8333,187.5 27.5,187.5C 28.1667,187.5 28.5,187.833 28.5,188.5C 28.5,188.833 28.5,189.167 28.5,189.5C 26.9731,189.573 25.9731,188.906 25.5,187.5 Z"/></g>
<g><path style="opacity:0.008" fill="#31a4e5" d="M 82.5,-0.5 C 82.8333,-0.5 83.1667,-0.5 83.5,-0.5C 83.3147,0.170143 82.9813,0.170143 82.5,-0.5 Z"/></g>
<g><path style="opacity:0.008" fill="#30a3e4" d="M 115.5,-0.5 C 115.833,-0.5 116.167,-0.5 116.5,-0.5C 116.5,-0.166667 116.5,0.166667 116.5,0.5C 116.167,0.166667 115.833,-0.166667 115.5,-0.5 Z"/></g>
<g><path style="opacity:0.011" fill="#30a3e4" d="M 115.5,0.5 C 115.66,2.19919 115.494,3.86586 115,5.5C 114.22,3.61305 114.387,1.94639 115.5,0.5 Z"/></g>
<g><path style="opacity:0.012" fill="#30a3e4" d="M 83.5,6.5 C 83.3398,4.80081 83.5065,3.13414 84,1.5C 84.7796,3.38695 84.6129,5.05361 83.5,6.5 Z"/></g>
<g><path style="opacity:0.008" fill="#30a2e4" d="M 92.5,17.5 C 92.8966,16.475 93.5632,16.3083 94.5,17C 93.9056,17.4643 93.2389,17.631 92.5,17.5 Z"/></g>
<g><path style="opacity:0.014" fill="#30a3e4" d="M 96.5,18.5 C 98.2884,17.3775 100.288,17.2109 102.5,18C 100.527,18.4955 98.5273,18.6621 96.5,18.5 Z"/></g>
<g><path style="opacity:0.008" fill="#30a3e4" d="M 21.5,19.5 C 22.525,19.8966 22.6917,20.5632 22,21.5C 21.5357,20.9056 21.369,20.2389 21.5,19.5 Z"/></g>
<g><path style="opacity:0.008" fill="#30a3e4" d="M 176.5,22.5 C 176.351,21.448 176.517,20.448 177,19.5C 177.74,20.7494 177.573,21.7494 176.5,22.5 Z"/></g>
<g><path style="opacity:0.008" fill="#30a3e4" d="M 20.5,22.5 C 21.6291,24.6282 21.7958,26.9615 21,29.5C 20.5034,27.1902 20.3367,24.8568 20.5,22.5 Z"/></g>
<g><path style="opacity:0.008" fill="#30a3e4" d="M 177.5,23.5 C 178.622,25.2884 178.789,27.2884 178,29.5C 177.505,27.5273 177.338,25.5273 177.5,23.5 Z"/></g>
<g><path style="opacity:0.01" fill="#30a3e4" d="M 21.5,30.5 C 22.525,30.8966 22.6917,31.5632 22,32.5C 21.5357,31.9056 21.369,31.2389 21.5,30.5 Z"/></g>
<g><path style="opacity:0.01" fill="#30a3e4" d="M 176.5,32.5 C 176.369,31.7611 176.536,31.0944 177,30.5C 177.692,31.4368 177.525,32.1034 176.5,32.5 Z"/></g>
<g><path style="opacity:0.012" fill="#30a3e5" d="M 22.5,33.5 C 23.8333,34.1667 23.8333,34.1667 22.5,33.5 Z"/></g>
<g><path style="opacity:0.008" fill="#30a2e3" d="M 175.5,32.5 C 175.833,32.5 176.167,32.5 176.5,32.5C 176.672,33.4916 176.338,34.1583 175.5,34.5C 175.5,33.8333 175.5,33.1667 175.5,32.5 Z"/></g>
<g><path style="opacity:0.006" fill="#30a3e4" d="M 174.5,34.5 C 174.833,34.5 175.167,34.5 175.5,34.5C 175.672,35.4916 175.338,36.1583 174.5,36.5C 174.5,35.8333 174.5,35.1667 174.5,34.5 Z"/></g>
<g><path style="opacity:0.008" fill="#30a4e4" d="M 23.5,35.5 C 24.8333,36.1667 24.8333,36.1667 23.5,35.5 Z"/></g>
<g><path style="opacity:0.012" fill="#31a3e4" d="M 173.5,36.5 C 173.833,36.5 174.167,36.5 174.5,36.5C 174.315,37.1701 173.981,37.1701 173.5,36.5 Z"/></g>
<g><path style="opacity:0.012" fill="#31a3e4" d="M 172.5,37.5 C 172.833,37.5 173.167,37.5 173.5,37.5C 173.315,38.1701 172.981,38.1701 172.5,37.5 Z"/></g>
<g><path style="opacity:0.012" fill="#31a4e4" d="M 171.5,38.5 C 171.833,38.5 172.167,38.5 172.5,38.5C 172.315,39.1701 171.981,39.1701 171.5,38.5 Z"/></g>
<g><path style="opacity:0.005" fill="#2fa3e4" d="M 51.5,40.5 C 51.56,39.9569 51.8933,39.6236 52.5,39.5C 53.6642,46.1418 53.8309,52.8085 53,59.5C 52.8279,52.9867 52.3279,46.6534 51.5,40.5 Z"/></g>
<g><path style="opacity:0.005" fill="#30a3e4" d="M 145.5,39.5 C 146.239,39.369 146.906,39.5357 147.5,40C 146.684,47.4205 146.184,54.9205 146,62.5C 145.5,54.8406 145.334,47.1739 145.5,39.5 Z"/></g>
<g><path style="opacity:0.012" fill="#31a3e4" d="M 170.5,39.5 C 170.833,39.5 171.167,39.5 171.5,39.5C 171.315,40.1701 170.981,40.1701 170.5,39.5 Z"/></g>
<g><path style="opacity:0.012" fill="#30a3e4" d="M 48.5,41.5 C 48.5,41.1667 48.5,40.8333 48.5,40.5C 51.1667,40.8333 51.1667,41.1667 48.5,41.5 Z"/></g>
<g><path style="opacity:0.012" fill="#31a3e4" d="M 169.5,40.5 C 169.833,40.5 170.167,40.5 170.5,40.5C 170.315,41.1701 169.981,41.1701 169.5,40.5 Z"/></g>
<g><path style="opacity:0.008" fill="#30a2e4" d="M 46.5,42.5 C 46.5,42.1667 46.5,41.8333 46.5,41.5C 47.1667,41.5 47.8333,41.5 48.5,41.5C 48.1583,42.3382 47.4916,42.6716 46.5,42.5 Z"/></g>
<g><path style="opacity:0.006" fill="#30a4e4" d="M 167.5,42.5 C 167.5,42.1667 167.5,41.8333 167.5,41.5C 168.167,41.5 168.833,41.5 169.5,41.5C 169.158,42.3382 168.492,42.6716 167.5,42.5 Z"/></g>
<g><path style="opacity:0.008" fill="#30a3e4" d="M 44.5,42.5 C 45.1667,42.5 45.8333,42.5 46.5,42.5C 45.8333,43.8333 45.1667,43.8333 44.5,42.5 Z"/></g>
<g><path style="opacity:0.008" fill="#30a3e4" d="M 154.5,42.5 C 154.103,43.525 153.437,43.6917 152.5,43C 153.094,42.5357 153.761,42.369 154.5,42.5 Z"/></g>
<g><path style="opacity:0.008" fill="#30a3e4" d="M 165.5,43.5 C 165.5,43.1667 165.5,42.8333 165.5,42.5C 166.167,42.5 166.833,42.5 167.5,42.5C 167.158,43.3382 166.492,43.6716 165.5,43.5 Z"/></g>
<g><path style="opacity:0.01" fill="#30a3e4" d="M 37.5,43.5 C 36.3991,44.5983 35.0657,44.765 33.5,44C 34.7932,43.51 36.1266,43.3433 37.5,43.5 Z"/></g>
<g><path style="opacity:0.012" fill="#30a3e4" d="M 40.5,44.5 C 41.2506,43.4265 42.2506,43.2599 43.5,44C 42.552,44.4828 41.552,44.6495 40.5,44.5 Z"/></g>
<g><path style="opacity:0.012" fill="#30a3e3" d="M 155.5,44.5 C 156.251,43.4265 157.251,43.2599 158.5,44C 157.552,44.4828 156.552,44.6495 155.5,44.5 Z"/></g>
<g><path style="opacity:0.01" fill="#31a3e3" d="M 161.5,43.5 C 162.833,43.5 164.167,43.5 165.5,43.5C 164.167,44.8333 162.833,44.8333 161.5,43.5 Z"/></g>
<g><path style="opacity:0.012" fill="#30a2e5" d="M 47.5,60.5 C 48.2506,59.4265 49.2506,59.2599 50.5,60C 49.552,60.4828 48.552,60.6495 47.5,60.5 Z"/></g>
<g><path style="opacity:0.004" fill="#31a4e4" d="M 47.5,60.5 C 47.5,60.8333 47.5,61.1667 47.5,61.5C 44.8333,61.1667 44.8333,60.8333 47.5,60.5 Z"/></g>
<g><path style="opacity:0.012" fill="#30a3e5" d="M 43.5,61.5 C 44.8333,62.1667 44.8333,62.1667 43.5,61.5 Z"/></g>
<g><path style="opacity:0.008" fill="#2fa3e5" d="M 147.5,62.5 C 148.833,63.1667 148.833,63.1667 147.5,62.5 Z"/></g>
<g><path style="opacity:0.004" fill="#32a4e4" d="M 149.5,65.5 C 150.167,64.1667 150.833,64.1667 151.5,65.5C 150.833,65.5 150.167,65.5 149.5,65.5 Z"/></g>
<g><path style="opacity:0.009" fill="#2fa3e4" d="M 157.5,65.5 C 159.966,64.3659 162.633,64.1993 165.5,65C 162.854,65.4974 160.187,65.6641 157.5,65.5 Z"/></g>
<g><path style="opacity:0.008" fill="#30a3e4" d="M 151.5,65.5 C 152.833,66.1667 152.833,66.1667 151.5,65.5 Z"/></g>
<g><path style="opacity:0.01" fill="#30a3e4" d="M 153.5,66.5 C 153.897,65.475 154.563,65.3083 155.5,66C 154.906,66.4643 154.239,66.631 153.5,66.5 Z"/></g>
<g><path style="opacity:0.004" fill="#30a3e3" d="M 37.5,68.5 C 32.4612,68.5489 32.2945,67.8823 37,66.5C 37.4643,67.0944 37.631,67.7611 37.5,68.5 Z"/></g>
<g><path style="opacity:0.008" fill="#32a2e4" d="M 16.5,81.5 C 16.1667,81.5 15.8333,81.5 15.5,81.5C 15.8333,78.8333 16.1667,78.8333 16.5,81.5 Z"/></g>
<g><path style="opacity:0.008" fill="#30a3e5" d="M 15.5,81.5 C 14.8333,82.1667 14.8333,82.1667 15.5,81.5 Z"/></g>
<g><path style="opacity:0.012" fill="#31a3e3" d="M 184.5,82.5 C 184.369,81.7611 184.536,81.0944 185,80.5C 185.692,81.4368 185.525,82.1034 184.5,82.5 Z"/></g>
<g><path style="opacity:0.01" fill="#30a3e4" d="M 185.5,86.5 C 185.351,85.448 185.517,84.448 186,83.5C 186.5,84.6667 187.333,85.5 188.5,86C 187.552,86.4828 186.552,86.6495 185.5,86.5 Z"/></g>
<g><path style="opacity:0.012" fill="#30a3e4" d="M 189.5,86.5 C 190.833,87.1667 190.833,87.1667 189.5,86.5 Z"/></g>
<g><path style="opacity:0.012" fill="#30a4e5" d="M 6.5,87.5 C 7.83333,88.1667 7.83333,88.1667 6.5,87.5 Z"/></g>
<g><path style="opacity:0.716" fill="#30a3e4" d="M 138.5,87.5 C 138.5,88.1667 138.833,88.5 139.5,88.5C 139.747,90.8583 139.081,92.8583 137.5,94.5C 136.167,94.1667 134.833,93.8333 133.5,93.5C 133.167,92.1667 132.833,90.8333 132.5,89.5C 134.114,87.9254 136.114,87.2587 138.5,87.5 Z"/></g>
<g><path style="opacity:0.008" fill="#31a4e5" d="M 192.5,88.5 C 191.833,87.1667 191.833,87.1667 192.5,88.5 Z"/></g>
<g><path style="opacity:0.008" fill="#30a3e4" d="M 192.5,88.5 C 193.833,89.1667 193.833,89.1667 192.5,88.5 Z"/></g>
<g><path style="opacity:0.004" fill="#30a4e5" d="M 195.5,90.5 C 194.833,89.1667 194.833,89.1667 195.5,90.5 Z"/></g>
<g><path style="opacity:0.008" fill="#30a4e5" d="M 195.5,90.5 C 196.167,90.5 196.5,90.8333 196.5,91.5C 196.167,91.1667 195.833,90.8333 195.5,90.5 Z"/></g>
<g><path style="opacity:0.004" fill="#30a3e5" d="M 196.5,91.5 C 197.833,92.1667 197.833,92.1667 196.5,91.5 Z"/></g>
<g><path style="opacity:0.012" fill="#30a3e5" d="M 199.5,94.5 C 199.5,94.8333 199.5,95.1667 199.5,95.5C 198.83,95.0187 198.83,94.6853 199.5,94.5 Z"/></g>
<g><path style="opacity:0.004" fill="#30a4e4" d="M 8.5,97.5 C 9.16667,97.5 9.83333,97.5 10.5,97.5C 10.1667,98.5 9.5,99.1667 8.5,99.5C 8.5,98.8333 8.5,98.1667 8.5,97.5 Z"/></g>
<g><path style="opacity:0.008" fill="#2fa3e4" d="M -0.5,112.5 C 0.833333,113.167 0.833333,113.167 -0.5,112.5 Z"/></g>
<g><path style="opacity:0.008" fill="#31a3e3" d="M 198.5,111.5 C 198.833,111.5 199.167,111.5 199.5,111.5C 199.5,112.167 199.5,112.833 199.5,113.5C 199.167,113.5 198.833,113.5 198.5,113.5C 198.5,112.833 198.5,112.167 198.5,111.5 Z"/></g>
<g><path style="opacity:0.012" fill="#32a3e4" d="M 197.5,113.5 C 197.833,113.5 198.167,113.5 198.5,113.5C 198.315,114.17 197.981,114.17 197.5,113.5 Z"/></g>
<g><path style="opacity:0.012" fill="#33a2e4" d="M 196.5,114.5 C 196.833,114.5 197.167,114.5 197.5,114.5C 197.315,115.17 196.981,115.17 196.5,114.5 Z"/></g>
<g><path style="opacity:0.004" fill="#30a2e4" d="M 2.5,114.5 C 2.5,115.167 2.5,115.833 2.5,116.5C 1.16667,115.833 1.16667,115.167 2.5,114.5 Z"/></g>
<g><path style="opacity:0.004" fill="#31a4e5" d="M 195.5,115.5 C 195.833,115.5 196.167,115.5 196.5,115.5C 196.315,116.17 195.981,116.17 195.5,115.5 Z"/></g>
<g><path style="opacity:0.004" fill="#30a3e4" d="M 2.5,116.5 C 3.83333,117.167 3.83333,117.167 2.5,116.5 Z"/></g>
<g><path style="opacity:0.004" fill="#34a3e5" d="M 194.5,116.5 C 194.833,116.5 195.167,116.5 195.5,116.5C 195.315,117.17 194.981,117.17 194.5,116.5 Z"/></g>
<g><path style="opacity:0.012" fill="#32a3e4" d="M 193.5,117.5 C 193.833,117.5 194.167,117.5 194.5,117.5C 194.315,118.17 193.981,118.17 193.5,117.5 Z"/></g>
<g><path style="opacity:0.016" fill="#31a4e4" d="M 6.5,118.5 C 5.83333,119.167 5.83333,119.167 6.5,118.5 Z"/></g>
<g><path style="opacity:0.016" fill="#30a3e4" d="M 192.5,118.5 C 192.833,118.5 193.167,118.5 193.5,118.5C 193.315,119.17 192.981,119.17 192.5,118.5 Z"/></g>
<g><path style="opacity:0.008" fill="#30a3e3" d="M 16.5,121.5 C 71.8333,121.5 127.167,121.5 182.5,121.5C 182.665,124.518 182.498,127.518 182,130.5C 181.503,127.854 181.336,125.187 181.5,122.5C 126.833,122.5 72.1667,122.5 17.5,122.5C 17.6641,125.187 17.4974,127.854 17,130.5C 16.502,127.518 16.3354,124.518 16.5,121.5 Z"/></g>
<g><path style="opacity:0.01" fill="#30a3e4" d="M 191.5,122.5 C 192.641,125.64 192.808,128.973 192,132.5C 191.502,129.183 191.335,125.85 191.5,122.5 Z"/></g>
<g><path style="opacity:0.01" fill="#30a3e4" d="M 6.5,123.5 C 7.64084,126.64 7.8075,129.973 7,133.5C 6.50166,130.183 6.33499,126.85 6.5,123.5 Z"/></g>
<g><path style="opacity:0.814" fill="#30a3e4" d="M 39.5,128.5 C 55.1667,128.5 70.8333,128.5 86.5,128.5C 89.1667,130.5 91.5,132.833 93.5,135.5C 94.0916,138.127 94.4249,140.794 94.5,143.5C 93.3263,144.514 92.6596,145.847 92.5,147.5C 91.1667,148.167 90.1667,149.167 89.5,150.5C 87.4261,151.514 85.4261,152.514 83.5,153.5C 68.4712,153.768 53.4712,153.434 38.5,152.5C 36.8577,151.197 35.1911,149.864 33.5,148.5C 31.8568,144.7 31.1901,140.7 31.5,136.5C 32.7368,135.035 33.7368,133.368 34.5,131.5C 36.0269,131.573 37.0269,130.906 37.5,129.5C 38.4916,129.672 39.1583,129.338 39.5,128.5 Z M 41.5,136.5 C 41.5,136.833 41.5,137.167 41.5,137.5C 40.8333,137.5 40.5,137.833 40.5,138.5C 40.1667,138.5 39.8333,138.5 39.5,138.5C 39.5,137.167 40.1667,136.5 41.5,136.5 Z M 41.5,137.5 C 56.244,136.86 70.744,137.527 85,139.5C 85.4643,138.906 85.631,138.239 85.5,137.5C 87.7311,139.642 87.7311,141.642 85.5,143.5C 85.5654,143.062 85.3988,142.728 85,142.5C 83.9326,143.191 82.7659,143.691 81.5,144C 82.448,144.483 83.448,144.649 84.5,144.5C 69.8333,145.833 55.1667,145.833 40.5,144.5C 44.5,144.167 44.5,143.833 40.5,143.5C 40.5,141.833 40.5,140.167 40.5,138.5C 41.1667,138.5 41.5,138.167 41.5,137.5 Z"/></g>
<g><path style="opacity:0.818" fill="#30a3e4" d="M 112.5,128.5 C 128.167,128.5 143.833,128.5 159.5,128.5C 159.842,129.338 160.508,129.672 161.5,129.5C 161.973,130.906 162.973,131.573 164.5,131.5C 164.5,132.167 164.833,132.5 165.5,132.5C 165.328,133.492 165.662,134.158 166.5,134.5C 166.328,135.492 166.662,136.158 167.5,136.5C 167.81,140.7 167.143,144.7 165.5,148.5C 164.5,148.833 163.833,149.5 163.5,150.5C 161.973,150.427 160.973,151.094 160.5,152.5C 145.529,153.434 130.529,153.768 115.5,153.5C 114.07,152.463 112.403,151.796 110.5,151.5C 109.5,149.833 108.167,148.5 106.5,147.5C 106.5,146.833 106.167,146.5 105.5,146.5C 105.737,145.209 105.404,144.209 104.5,143.5C 104.5,141.5 104.5,139.5 104.5,137.5C 106.453,133.88 109.119,130.88 112.5,128.5 Z M 157.5,137.5 C 157.5,137.167 157.5,136.833 157.5,136.5C 158.833,136.5 159.5,137.167 159.5,138.5C 159.167,138.5 158.833,138.5 158.5,138.5C 158.5,137.833 158.167,137.5 157.5,137.5 Z M 113.5,137.5 C 113.369,138.239 113.536,138.906 114,139.5C 128.256,137.527 142.756,136.86 157.5,137.5C 158.167,137.5 158.5,137.833 158.5,138.5C 158.5,140.167 158.5,141.833 158.5,143.5C 154.5,143.833 154.5,144.167 158.5,144.5C 143.833,145.833 129.167,145.833 114.5,144.5C 115.552,144.649 116.552,144.483 117.5,144C 116.234,143.691 115.067,143.191 114,142.5C 113.601,142.728 113.435,143.062 113.5,143.5C 110.833,141.5 110.833,139.5 113.5,137.5 Z"/></g>
<g><path style="opacity:0.01" fill="#30a3e4" d="M 190.5,136.5 C 191.641,139.64 191.808,142.973 191,146.5C 190.502,143.183 190.335,139.85 190.5,136.5 Z"/></g>
<g><path style="opacity:0.01" fill="#30a3e4" d="M 7.5,136.5 C 8.64084,139.64 8.8075,142.973 8,146.5C 7.50166,143.183 7.33499,139.85 7.5,136.5 Z"/></g>
<g><path style="opacity:0.01" fill="#30a3e4" d="M 8.5,150.5 C 9.64084,153.64 9.8075,156.973 9,160.5C 8.50166,157.183 8.33499,153.85 8.5,150.5 Z"/></g>
<g><path style="opacity:0.01" fill="#30a3e3" d="M 189.5,150.5 C 190.638,153.304 190.805,156.304 190,159.5C 189.502,156.518 189.335,153.518 189.5,150.5 Z"/></g>
<g><path style="opacity:0.84" fill="#30a3e4" d="M 40.5,160.5 C 46.5594,160.254 52.5594,160.587 58.5,161.5C 58.5,163.167 58.5,164.833 58.5,166.5C 53.0651,167.123 47.7317,167.79 42.5,168.5C 41.5084,168.328 40.8417,168.662 40.5,169.5C 39.0532,170.134 38.3866,171.301 38.5,173C 38.3866,174.699 39.0532,175.866 40.5,176.5C 40.8417,177.338 41.5084,177.672 42.5,177.5C 55.9938,178.661 69.6604,178.827 83.5,178C 84.4158,177.722 85.0825,177.222 85.5,176.5C 86.2485,175.469 86.9152,174.302 87.5,173C 86.9152,171.698 86.2485,170.531 85.5,169.5C 82.8774,167.735 79.8774,167.068 76.5,167.5C 75.6993,165.958 75.366,164.292 75.5,162.5C 76.5,162.167 77.1667,161.5 77.5,160.5C 80.8806,160.46 84.2139,160.793 87.5,161.5C 87.9731,162.906 88.9731,163.573 90.5,163.5C 90.5,164.167 90.8333,164.5 91.5,164.5C 91.427,166.027 92.0937,167.027 93.5,167.5C 93.2627,168.791 93.596,169.791 94.5,170.5C 94.5,172.167 94.5,173.833 94.5,175.5C 93.596,176.209 93.2627,177.209 93.5,178.5C 92.0937,178.973 91.427,179.973 91.5,181.5C 90.5,181.833 89.8333,182.5 89.5,183.5C 88.5084,183.328 87.8417,183.662 87.5,184.5C 71.8686,185.454 56.202,185.787 40.5,185.5C 39.791,184.596 38.791,184.263 37.5,184.5C 37.5,183.833 37.1667,183.5 36.5,183.5C 35.8333,182.167 34.8333,181.167 33.5,180.5C 33.0679,179.29 32.4013,178.29 31.5,177.5C 31.5,174.5 31.5,171.5 31.5,168.5C 33.4707,166.192 35.4707,163.858 37.5,161.5C 38.791,161.737 39.791,161.404 40.5,160.5 Z"/></g>
<g><path style="opacity:0.716" fill="#30a3e4" d="M 65.5,160.5 C 66.5,160.5 67.5,160.5 68.5,160.5C 70.0808,162.142 70.7475,164.142 70.5,166.5C 69.8333,166.5 69.5,166.833 69.5,167.5C 65.6509,167.981 63.6509,166.314 63.5,162.5C 64.5,162.167 65.1667,161.5 65.5,160.5 Z"/></g>
<g><path style="opacity:0.845" fill="#30a3e4" d="M 158.5,160.5 C 159.209,161.404 160.209,161.737 161.5,161.5C 163.529,163.858 165.529,166.192 167.5,168.5C 167.5,171.5 167.5,174.5 167.5,177.5C 165.863,179.475 164.196,181.475 162.5,183.5C 160.847,183.66 159.514,184.326 158.5,185.5C 142.798,185.787 127.131,185.454 111.5,184.5C 109.858,183.197 108.191,181.864 106.5,180.5C 106.672,179.508 106.338,178.842 105.5,178.5C 104.167,174.833 104.167,171.167 105.5,167.5C 106.906,167.027 107.573,166.027 107.5,164.5C 108.5,164.167 109.167,163.5 109.5,162.5C 110.492,162.672 111.158,162.338 111.5,161.5C 127.131,160.546 142.798,160.213 158.5,160.5 Z M 156.5,168.5 C 157.492,168.328 158.158,168.662 158.5,169.5C 158.5,171.833 158.5,174.167 158.5,176.5C 158.158,177.338 157.492,177.672 156.5,177.5C 143.01,176.504 129.344,176.171 115.5,176.5C 114.452,174.067 113.786,174.067 113.5,176.5C 112.751,175.469 112.085,174.302 111.5,173C 112.085,171.698 112.751,170.531 113.5,169.5C 113.786,171.933 114.452,171.933 115.5,169.5C 129.344,169.829 143.01,169.496 156.5,168.5 Z"/></g>
<g><path style="opacity:0.01" fill="#30a3e4" d="M 188.5,163.5 C 189.641,166.64 189.808,169.973 189,173.5C 188.502,170.183 188.335,166.85 188.5,163.5 Z"/></g>
<g><path style="opacity:0.01" fill="#30a3e4" d="M 9.5,163.5 C 10.6408,166.64 10.8075,169.973 10,173.5C 9.50166,170.183 9.33499,166.85 9.5,163.5 Z"/></g>
<g><path style="opacity:0.01" fill="#30a3e4" d="M 85.5,169.5 C 85.4891,172.001 84.8224,172.168 83.5,170C 84.0944,169.536 84.7611,169.369 85.5,169.5 Z"/></g>
<g><path style="opacity:0.01" fill="#30a3e4" d="M 113.5,169.5 C 114.167,169.5 114.833,169.5 115.5,169.5C 114.452,171.933 113.786,171.933 113.5,169.5 Z"/></g>
<g><path style="opacity:0.01" fill="#30a3e3" d="M 85.5,176.5 C 82.9991,176.489 82.8324,175.822 85,174.5C 85.4643,175.094 85.631,175.761 85.5,176.5 Z"/></g>
<g><path style="opacity:0.012" fill="#31a3e4" d="M 115.5,176.5 C 114.833,176.5 114.167,176.5 113.5,176.5C 113.786,174.067 114.452,174.067 115.5,176.5 Z"/></g>
<g><path style="opacity:0.009" fill="#30a3e3" d="M 11.5,180.5 C 10.4017,179.399 10.235,178.066 11,176.5C 11.49,177.793 11.6567,179.127 11.5,180.5 Z"/></g>
<g><path style="opacity:0.009" fill="#30a3e4" d="M 187.5,180.5 C 187.343,179.127 187.51,177.793 188,176.5C 188.765,178.066 188.598,179.399 187.5,180.5 Z"/></g>
<g><path style="opacity:0.008" fill="#31a4e4" d="M 11.5,180.5 C 11.8333,180.5 12.1667,180.5 12.5,180.5C 12.1667,184.5 11.8333,184.5 11.5,180.5 Z"/></g>
<g><path style="opacity:0.008" fill="#30a2e4" d="M 186.5,180.5 C 186.833,180.5 187.167,180.5 187.5,180.5C 187.737,181.791 187.404,182.791 186.5,183.5C 186.5,182.5 186.5,181.5 186.5,180.5 Z"/></g>
<g><path style="opacity:0.008" fill="#30a2e3" d="M 185.5,183.5 C 185.833,183.5 186.167,183.5 186.5,183.5C 186.672,184.492 186.338,185.158 185.5,185.5C 185.5,184.833 185.5,184.167 185.5,183.5 Z"/></g>
<g><path style="opacity:0.008" fill="#30a3e4" d="M 24.5,184.5 C 25.8333,185.167 26.8333,186.167 27.5,187.5C 26.8333,187.5 26.1667,187.5 25.5,187.5C 25.5,186.833 25.1667,186.5 24.5,186.5C 24.5,185.833 24.5,185.167 24.5,184.5 Z"/></g>
<g><path style="opacity:0.004" fill="#31a1e4" d="M 174.5,184.5 C 174.5,185.167 174.5,185.833 174.5,186.5C 173.833,186.5 173.167,186.5 172.5,186.5C 172.833,185.5 173.5,184.833 174.5,184.5 Z"/></g>
<g><path style="opacity:0.004" fill="#30a2e4" d="M 184.5,185.5 C 184.833,185.5 185.167,185.5 185.5,185.5C 185.672,186.492 185.338,187.158 184.5,187.5C 184.5,186.833 184.5,186.167 184.5,185.5 Z"/></g>
<g><path style="opacity:0.012" fill="#30a2e4" d="M 183.5,187.5 C 183.833,187.5 184.167,187.5 184.5,187.5C 184.315,188.17 183.981,188.17 183.5,187.5 Z"/></g>
<g><path style="opacity:0.012" fill="#32a3e5" d="M 16.5,188.5 C 15.8333,189.167 15.8333,189.167 16.5,188.5 Z"/></g>
<g><path style="opacity:0.012" fill="#31a3e4" d="M 182.5,188.5 C 182.833,188.5 183.167,188.5 183.5,188.5C 183.315,189.17 182.981,189.17 182.5,188.5 Z"/></g>
<g><path style="opacity:0.008" fill="#2fa3e4" d="M 16.5,190.5 C 17.8333,191.167 17.8333,191.167 16.5,190.5 Z"/></g>
<g><path style="opacity:0.008" fill="#2fa4e5" d="M 181.5,190.5 C 182.833,191.167 182.833,191.167 181.5,190.5 Z"/></g>
<g><path style="opacity:0.008" fill="#30a4e5" d="M 180.5,191.5 C 180.833,191.5 181.167,191.5 181.5,191.5C 181.315,192.17 180.981,192.17 180.5,191.5 Z"/></g>
<g><path style="opacity:0.012" fill="#30a3e4" d="M 179.5,192.5 C 179.833,192.5 180.167,192.5 180.5,192.5C 180.315,193.17 179.981,193.17 179.5,192.5 Z"/></g>
<g><path style="opacity:0.008" fill="#2fa3e4" d="M 178.5,193.5 C 178.833,193.5 179.167,193.5 179.5,193.5C 179.315,194.17 178.981,194.17 178.5,193.5 Z"/></g>
<g><path style="opacity:0.004" fill="#30a3e4" d="M 178.5,194.5 C 177.833,195.167 177.833,195.167 178.5,194.5 Z"/></g>
<g><path style="opacity:0.012" fill="#31a5e4" d="M 175.5,195.5 C 176.833,196.167 176.833,196.167 175.5,195.5 Z"/></g>
<g><path style="opacity:0.012" fill="#30a3e4" d="M 174.5,196.5 C 174.833,196.5 175.167,196.5 175.5,196.5C 175.315,197.17 174.981,197.17 174.5,196.5 Z"/></g>
<g><path style="opacity:0.008" fill="#2fa3e4" d="M 172.5,198.5 C 172.5,198.167 172.5,197.833 172.5,197.5C 173.167,197.5 173.833,197.5 174.5,197.5C 174.158,198.338 173.492,198.672 172.5,198.5 Z"/></g>
<g><path style="opacity:0.01" fill="#30a3e4" d="M 26.5,199.5 C 26.8417,198.662 27.5084,198.328 28.5,198.5C 28.5,198.833 28.5,199.167 28.5,199.5C 27.8333,199.5 27.1667,199.5 26.5,199.5 Z"/></g>
<g><path style="opacity:0.01" fill="#30a3e4" d="M 170.5,199.5 C 170.5,199.167 170.5,198.833 170.5,198.5C 171.167,198.5 171.833,198.5 172.5,198.5C 172.5,198.833 172.5,199.167 172.5,199.5C 171.833,199.5 171.167,199.5 170.5,199.5 Z"/></g>
</svg>
