<svg xmlns="http://www.w3.org/2000/svg" xmlns:xlink="http://www.w3.org/1999/xlink" width="500" zoomAndPan="magnify" viewBox="0 0 375 247.499998" height="330" preserveAspectRatio="xMidYMid meet" version="1.0"><defs><clipPath id="870b0313f2"><path d="M 5 164 L 92 164 L 92 246.960938 L 5 246.960938 Z M 5 164 " clip-rule="nonzero"/></clipPath><clipPath id="903df350cc"><path d="M 143 62.832031 L 155 62.832031 L 155 71 L 143 71 Z M 143 62.832031 " clip-rule="nonzero"/></clipPath><clipPath id="ac15c0164a"><path d="M 95 164 L 182 164 L 182 246.960938 L 95 246.960938 Z M 95 164 " clip-rule="nonzero"/></clipPath><clipPath id="d6067789be"><path d="M 193 149 L 282 149 L 282 246.960938 L 193 246.960938 Z M 193 149 " clip-rule="nonzero"/></clipPath><clipPath id="a1f7281af6"><path d="M 187.5 63 L 374.621094 63 L 374.621094 118 L 187.5 118 Z M 187.5 63 " clip-rule="nonzero"/></clipPath><clipPath id="441f3549a1"><path d="M 305 199 L 364 199 L 364 246.960938 L 305 246.960938 Z M 305 199 " clip-rule="nonzero"/></clipPath></defs><path fill="#f8fbfd" d="M 17.539062 156.296875 C 19.304688 156.296875 20.742188 154.863281 20.742188 153.09375 C 20.742188 151.328125 19.304688 149.886719 17.539062 149.886719 C 15.769531 149.886719 14.335938 151.328125 14.335938 153.09375 C 14.335938 154.863281 15.769531 156.296875 17.539062 156.296875 Z M 17.539062 156.296875 " fill-opacity="1" fill-rule="nonzero"/><path fill="#f8fbfd" d="M 5.742188 160.527344 L 29.355469 160.527344 L 29.355469 145.648438 L 5.742188 145.648438 Z M 17.539062 146.359375 C 21.25 146.359375 24.269531 149.378906 24.269531 153.09375 C 24.269531 156.808594 21.25 159.824219 17.539062 159.824219 C 13.828125 159.824219 10.808594 156.804688 10.808594 153.09375 C 10.808594 149.382812 13.828125 146.359375 17.539062 146.359375 Z M 17.539062 146.359375 " fill-opacity="1" fill-rule="nonzero"/><path fill="#f8fbfd" d="M 19.65625 142.117188 L 50.609375 142.117188 C 54.039062 142.117188 56.832031 139.328125 56.832031 135.898438 C 56.832031 132.46875 54.039062 129.679688 50.609375 129.679688 L 19.65625 129.679688 C 16.226562 129.679688 13.433594 132.46875 13.433594 135.898438 C 13.433594 139.328125 16.226562 142.117188 19.65625 142.117188 Z M 19.65625 142.117188 " fill-opacity="1" fill-rule="nonzero"/><path fill="#f8fbfd" d="M 160.019531 110.328125 C 160.675781 110.164062 162.246094 106.386719 160.96875 99.238281 C 159.714844 92.179688 156.980469 89.164062 156.269531 89.164062 C 156.265625 89.164062 156.253906 89.164062 156.246094 89.164062 C 155.515625 89.292969 154.058594 93.308594 155.292969 100.25 C 156.574219 107.417969 159.449219 110.265625 160.019531 110.324219 Z M 160.019531 110.328125 " fill-opacity="1" fill-rule="nonzero"/><path fill="#f8fbfd" d="M 130.578125 132.5625 C 131.464844 138.097656 136.230469 142.117188 141.90625 142.117188 L 157.863281 142.117188 C 163.847656 142.117188 168.878906 137.445312 169.3125 131.472656 C 170.214844 119.125 169.820312 96.144531 157.277344 79.835938 L 140.882812 79.835938 C 138.265625 84.082031 126.222656 105.457031 130.578125 132.5625 Z M 137.832031 112.921875 L 151.375 112.921875 C 152.347656 112.921875 153.136719 113.710938 153.136719 114.683594 C 153.136719 115.65625 152.347656 116.449219 151.375 116.449219 L 137.832031 116.449219 C 136.855469 116.449219 136.066406 115.65625 136.066406 114.683594 C 136.066406 113.710938 136.855469 112.921875 137.832031 112.921875 Z M 163.722656 130.332031 L 137.832031 130.332031 C 136.855469 130.332031 136.066406 129.539062 136.066406 128.566406 C 136.066406 127.59375 136.855469 126.804688 137.832031 126.804688 L 163.722656 126.804688 C 164.695312 126.804688 165.488281 127.59375 165.488281 128.566406 C 165.488281 129.539062 164.695312 130.332031 163.722656 130.332031 Z M 165.488281 121.625 C 165.488281 122.597656 164.695312 123.386719 163.722656 123.386719 L 137.832031 123.386719 C 136.855469 123.386719 136.066406 122.597656 136.066406 121.625 C 136.066406 120.648438 136.855469 119.859375 137.832031 119.859375 L 163.722656 119.859375 C 164.695312 119.859375 165.488281 120.648438 165.488281 121.625 Z M 155.625 85.691406 C 157.03125 85.433594 159.179688 85.902344 161.332031 89.5625 C 162.71875 91.910156 163.816406 95.128906 164.441406 98.617188 C 165.066406 102.109375 165.140625 105.507812 164.660156 108.1875 C 163.902344 112.367188 162.0625 113.542969 160.640625 113.796875 C 160.421875 113.832031 160.199219 113.855469 159.980469 113.855469 C 155.976562 113.855469 152.96875 107.289062 151.824219 100.867188 C 150.617188 94.101562 151.292969 86.464844 155.625 85.6875 Z M 155.625 85.691406 " fill-opacity="1" fill-rule="nonzero"/><path fill="#f8fbfd" d="M 59.890625 113.707031 L 28.933594 113.707031 C 25.503906 113.707031 22.714844 116.496094 22.714844 119.925781 C 22.714844 123.355469 25.503906 126.148438 28.933594 126.148438 L 59.890625 126.148438 C 63.316406 126.148438 66.109375 123.355469 66.109375 119.925781 C 66.109375 116.496094 63.316406 113.707031 59.890625 113.707031 Z M 59.890625 113.707031 " fill-opacity="1" fill-rule="nonzero"/><g clip-path="url(#870b0313f2)"><path fill="#f8fbfd" d="M 5.742188 246.953125 L 91.738281 246.953125 L 91.738281 164.054688 L 31.171875 164.054688 C 31.152344 164.054688 31.140625 164.066406 31.117188 164.066406 C 31.097656 164.066406 31.085938 164.054688 31.066406 164.054688 L 5.738281 164.054688 L 5.738281 246.953125 Z M 48.742188 170.128906 C 68.246094 170.128906 84.117188 186 84.117188 205.507812 C 84.117188 225.011719 68.246094 240.882812 48.742188 240.882812 C 29.234375 240.882812 13.359375 225.011719 13.359375 205.507812 C 13.359375 186 29.234375 170.128906 48.742188 170.128906 Z M 48.742188 170.128906 " fill-opacity="1" fill-rule="nonzero"/></g><path fill="#f8fbfd" d="M 32.882812 160.527344 L 91.738281 160.527344 L 91.738281 145.648438 L 32.882812 145.648438 Z M 56.460938 152.144531 L 63.734375 152.144531 C 64.707031 152.144531 65.5 152.933594 65.5 153.910156 C 65.5 154.882812 64.707031 155.671875 63.734375 155.671875 L 56.460938 155.671875 C 55.484375 155.671875 54.695312 154.882812 54.695312 153.910156 C 54.695312 152.933594 55.484375 152.144531 56.460938 152.144531 Z M 39.492188 152.144531 L 46.765625 152.144531 C 47.738281 152.144531 48.527344 152.933594 48.527344 153.910156 C 48.527344 154.882812 47.738281 155.671875 46.765625 155.671875 L 39.492188 155.671875 C 38.519531 155.671875 37.730469 154.882812 37.730469 153.910156 C 37.730469 152.933594 38.519531 152.144531 39.492188 152.144531 Z M 39.492188 152.144531 " fill-opacity="1" fill-rule="nonzero"/><path fill="#f8fbfd" d="M 48.742188 237.355469 C 66.304688 237.355469 80.585938 223.066406 80.585938 205.507812 C 80.585938 187.945312 66.300781 173.65625 48.742188 173.65625 C 31.179688 173.65625 16.890625 187.945312 16.890625 205.507812 C 16.890625 223.070312 31.179688 237.355469 48.742188 237.355469 Z M 23.925781 204.308594 C 23.925781 204.246094 23.925781 204.1875 23.933594 204.125 C 24.65625 191.050781 35.488281 180.628906 48.742188 180.628906 C 60.257812 180.628906 69.945312 188.507812 72.765625 199.148438 C 72.804688 199.261719 72.835938 199.371094 72.855469 199.488281 C 73.335938 201.421875 73.625 203.429688 73.625 205.511719 C 73.625 219.226562 62.464844 230.386719 48.746094 230.386719 C 35.03125 230.386719 23.867188 219.226562 23.867188 205.511719 C 23.867188 205.105469 23.910156 204.707031 23.925781 204.308594 Z M 23.925781 204.308594 " fill-opacity="1" fill-rule="nonzero"/><path fill="#f8fbfd" d="M 48.742188 226.855469 C 60.511719 226.855469 70.089844 217.277344 70.089844 205.507812 C 70.089844 204.542969 70 203.601562 69.875 202.667969 C 64.53125 206.039062 59.445312 207.738281 54.691406 207.738281 C 53.554688 207.738281 52.4375 207.644531 51.339844 207.445312 C 48.441406 206.925781 46.203125 205.84375 44.042969 204.804688 C 41.273438 203.472656 38.855469 202.363281 35.453125 202.503906 C 32.773438 202.644531 30.066406 203.652344 27.394531 205.433594 C 27.394531 205.457031 27.390625 205.480469 27.390625 205.507812 C 27.390625 217.277344 36.972656 226.855469 48.742188 226.855469 Z M 48.742188 226.855469 " fill-opacity="1" fill-rule="nonzero"/><path fill="#f8fbfd" d="M 45.570312 201.625 C 47.613281 202.605469 49.539062 203.535156 51.960938 203.972656 C 57.132812 204.894531 62.734375 203.222656 69.058594 198.96875 C 66.289062 190.386719 58.234375 184.15625 48.742188 184.15625 C 38.492188 184.15625 29.90625 191.421875 27.863281 201.074219 C 30.300781 199.839844 32.777344 199.113281 35.265625 198.980469 C 39.617188 198.753906 42.636719 200.210938 45.570312 201.625 Z M 45.570312 201.625 " fill-opacity="1" fill-rule="nonzero"/><path fill="#f8fbfd" d="M 107.066406 149.886719 C 105.296875 149.886719 103.859375 151.328125 103.859375 153.09375 C 103.859375 154.863281 105.296875 156.296875 107.066406 156.296875 C 108.832031 156.296875 110.269531 154.863281 110.269531 153.09375 C 110.269531 151.328125 108.832031 149.886719 107.066406 149.886719 Z M 107.066406 149.886719 " fill-opacity="1" fill-rule="nonzero"/><path fill="#f8fbfd" d="M 181.265625 145.648438 L 122.410156 145.648438 L 122.410156 160.527344 L 181.265625 160.527344 Z M 136.292969 155.671875 L 129.015625 155.671875 C 128.042969 155.671875 127.253906 154.882812 127.253906 153.910156 C 127.253906 152.933594 128.042969 152.144531 129.015625 152.144531 L 136.292969 152.144531 C 137.265625 152.144531 138.054688 152.933594 138.054688 153.910156 C 138.054688 154.882812 137.265625 155.671875 136.292969 155.671875 Z M 153.261719 155.671875 L 145.988281 155.671875 C 145.011719 155.671875 144.222656 154.882812 144.222656 153.910156 C 144.222656 152.933594 145.011719 152.144531 145.988281 152.144531 L 153.261719 152.144531 C 154.234375 152.144531 155.027344 152.933594 155.027344 153.910156 C 155.027344 154.882812 154.234375 155.671875 153.261719 155.671875 Z M 153.261719 155.671875 " fill-opacity="1" fill-rule="nonzero"/><path fill="#f8fbfd" d="M 95.269531 145.648438 L 95.269531 160.527344 L 118.882812 160.527344 L 118.882812 145.648438 Z M 107.066406 159.824219 C 103.351562 159.824219 100.332031 156.804688 100.332031 153.09375 C 100.332031 149.382812 103.351562 146.359375 107.066406 146.359375 C 110.78125 146.359375 113.796875 149.378906 113.796875 153.09375 C 113.796875 156.808594 110.777344 159.824219 107.066406 159.824219 Z M 107.066406 159.824219 " fill-opacity="1" fill-rule="nonzero"/><path fill="#f8fbfd" d="M 141.675781 74.601562 L 141.675781 76.304688 L 156.371094 76.304688 L 156.371094 74.601562 C 156.371094 74.300781 156.125 74.058594 155.828125 74.058594 L 142.222656 74.058594 C 141.921875 74.058594 141.679688 74.300781 141.679688 74.601562 Z M 141.675781 74.601562 " fill-opacity="1" fill-rule="nonzero"/><g clip-path="url(#903df350cc)"><path fill="#f8fbfd" d="M 143.476562 62.875 L 143.320312 70.53125 L 154.753906 70.53125 L 154.753906 63.066406 Z M 143.476562 62.875 " fill-opacity="1" fill-rule="nonzero"/></g><path fill="#f8fbfd" d="M 138.269531 237.355469 C 155.832031 237.355469 170.117188 223.066406 170.117188 205.507812 C 170.117188 187.945312 155.832031 173.65625 138.269531 173.65625 C 120.703125 173.65625 106.421875 187.945312 106.421875 205.507812 C 106.421875 223.070312 120.707031 237.355469 138.269531 237.355469 Z M 138.269531 180.625 C 151.988281 180.625 163.148438 191.785156 163.148438 205.507812 C 163.148438 219.226562 151.988281 230.382812 138.265625 230.382812 C 134.1875 230.382812 130.351562 229.375 126.949219 227.628906 C 126.917969 227.621094 126.894531 227.601562 126.863281 227.589844 C 118.875 223.441406 113.390625 215.109375 113.390625 205.507812 C 113.390625 191.785156 124.550781 180.625 138.265625 180.625 Z M 138.269531 180.625 " fill-opacity="1" fill-rule="nonzero"/><g clip-path="url(#ac15c0164a)"><path fill="#f8fbfd" d="M 95.269531 246.953125 L 181.265625 246.953125 L 181.265625 164.054688 L 120.699219 164.054688 C 120.679688 164.054688 120.667969 164.066406 120.644531 164.066406 C 120.625 164.066406 120.613281 164.054688 120.59375 164.054688 L 95.265625 164.054688 L 95.265625 246.953125 Z M 138.269531 170.128906 C 157.773438 170.128906 173.648438 186 173.648438 205.507812 C 173.648438 225.011719 157.773438 240.882812 138.269531 240.882812 C 118.761719 240.882812 102.890625 225.011719 102.890625 205.507812 C 102.890625 186 118.761719 170.128906 138.269531 170.128906 Z M 138.269531 170.128906 " fill-opacity="1" fill-rule="nonzero"/></g><path fill="#f8fbfd" d="M 127.296875 223.78125 L 137.605469 213.511719 C 138.292969 212.832031 139.410156 212.824219 140.097656 213.519531 C 140.78125 214.207031 140.78125 215.324219 140.089844 216.011719 L 130.648438 225.421875 C 133.019531 226.332031 135.578125 226.855469 138.269531 226.855469 C 150.039062 226.855469 159.621094 217.277344 159.621094 205.507812 C 159.621094 198.128906 155.859375 191.617188 150.152344 187.777344 L 138.453125 199.480469 C 138.109375 199.824219 137.65625 199.996094 137.207031 199.996094 C 136.753906 199.996094 136.300781 199.824219 135.957031 199.480469 C 135.269531 198.792969 135.269531 197.675781 135.957031 196.984375 L 146.929688 186.011719 C 144.28125 184.828125 141.351562 184.15625 138.265625 184.15625 C 126.496094 184.15625 116.914062 193.734375 116.914062 205.507812 C 116.914062 213.261719 121.085938 220.046875 127.292969 223.78125 Z M 127.296875 223.78125 " fill-opacity="1" fill-rule="nonzero"/><path fill="#f8fbfd" d="M 193.386719 143.953125 L 281.699219 143.953125 L 281.699219 126.292969 L 193.386719 126.292969 Z M 240.488281 132.179688 L 272.867188 132.179688 C 274.492188 132.179688 275.8125 133.496094 275.8125 135.121094 C 275.8125 136.75 274.492188 138.066406 272.867188 138.066406 L 240.488281 138.066406 C 238.859375 138.066406 237.542969 136.75 237.542969 135.121094 C 237.542969 133.496094 238.859375 132.179688 240.488281 132.179688 Z M 216.9375 132.179688 L 219.878906 132.179688 C 221.507812 132.179688 222.824219 133.496094 222.824219 135.121094 C 222.824219 136.75 221.507812 138.066406 219.878906 138.066406 L 216.9375 138.066406 C 215.308594 138.066406 213.992188 136.75 213.992188 135.121094 C 213.992188 133.496094 215.308594 132.179688 216.9375 132.179688 Z M 202.21875 132.179688 L 205.164062 132.179688 C 206.789062 132.179688 208.105469 133.496094 208.105469 135.121094 C 208.105469 136.75 206.789062 138.066406 205.164062 138.066406 L 202.21875 138.066406 C 200.59375 138.066406 199.273438 136.75 199.273438 135.121094 C 199.273438 133.496094 200.59375 132.179688 202.21875 132.179688 Z M 202.21875 132.179688 " fill-opacity="1" fill-rule="nonzero"/><g clip-path="url(#d6067789be)"><path fill="#f8fbfd" d="M 193.386719 246.984375 L 281.699219 246.984375 L 281.699219 149.839844 L 193.386719 149.839844 Z M 237.542969 167.503906 C 255.394531 167.503906 269.921875 182.03125 269.921875 199.882812 C 269.921875 217.738281 255.394531 232.265625 237.542969 232.265625 C 219.691406 232.265625 205.164062 217.738281 205.164062 199.882812 C 205.164062 182.03125 219.6875 167.503906 237.542969 167.503906 Z M 237.542969 167.503906 " fill-opacity="1" fill-rule="nonzero"/></g><path fill="#f8fbfd" d="M 237.542969 226.378906 C 252.152344 226.378906 264.035156 214.492188 264.035156 199.882812 C 264.035156 185.277344 252.152344 173.390625 237.542969 173.390625 C 222.933594 173.390625 211.050781 185.277344 211.050781 199.882812 C 211.050781 214.492188 222.933594 226.378906 237.542969 226.378906 Z M 237.542969 188.109375 C 244.042969 188.109375 249.316406 193.382812 249.316406 199.882812 C 249.316406 206.386719 244.042969 211.660156 237.542969 211.660156 C 231.039062 211.660156 225.769531 206.386719 225.769531 199.882812 C 225.769531 193.382812 231.039062 188.109375 237.542969 188.109375 Z M 237.542969 188.109375 " fill-opacity="1" fill-rule="nonzero"/><g clip-path="url(#a1f7281af6)"><path fill="#f8fbfd" d="M 372.953125 65.945312 C 371.328125 65.945312 370.007812 67.261719 370.007812 68.890625 L 370.007812 71.832031 L 293.101562 71.832031 C 291.855469 66.988281 287.597656 63.34375 282.445312 63.023438 C 279.15625 62.820312 276.027344 63.949219 273.636719 66.191406 C 272.007812 67.726562 270.855469 69.691406 270.300781 71.832031 L 234.230469 71.832031 C 232.980469 66.988281 228.722656 63.34375 223.570312 63.023438 C 220.285156 62.820312 217.152344 63.949219 214.761719 66.191406 C 213.132812 67.726562 211.980469 69.691406 211.429688 71.832031 L 193.386719 71.832031 L 193.386719 68.890625 C 193.386719 67.261719 192.070312 65.945312 190.445312 65.945312 C 188.816406 65.945312 187.5 67.261719 187.5 68.890625 L 187.5 80.664062 C 187.5 82.289062 188.816406 83.609375 190.445312 83.609375 C 192.070312 83.609375 193.386719 82.289062 193.386719 80.664062 L 193.386719 77.722656 L 322.910156 77.722656 L 322.910156 117.460938 L 358.234375 117.460938 L 358.234375 77.722656 L 370.007812 77.722656 L 370.007812 80.664062 C 370.007812 82.289062 371.328125 83.609375 372.953125 83.609375 C 374.578125 83.609375 375.898438 82.289062 375.898438 80.664062 L 375.898438 68.890625 C 375.898438 67.261719 374.578125 65.945312 372.953125 65.945312 Z M 217.722656 71.832031 C 218.007812 71.339844 218.363281 70.886719 218.796875 70.484375 C 219.992188 69.359375 221.554688 68.796875 223.207031 68.902344 C 225.1875 69.023438 226.9375 70.1875 227.910156 71.832031 Z M 276.59375 71.832031 C 276.882812 71.339844 277.238281 70.886719 277.667969 70.484375 C 278.867188 69.359375 280.429688 68.796875 282.082031 68.902344 C 284.0625 69.023438 285.8125 70.1875 286.785156 71.832031 Z M 276.59375 71.832031 " fill-opacity="1" fill-rule="nonzero"/></g><path fill="#f8fbfd" d="M 222.898438 95.691406 L 202.21875 106.03125 L 202.21875 110.101562 L 246.375 110.101562 L 246.375 106.128906 Z M 222.898438 95.691406 " fill-opacity="1" fill-rule="nonzero"/><path fill="#f8fbfd" d="M 305.246094 106.128906 L 281.773438 95.691406 L 261.09375 106.03125 L 261.09375 110.101562 L 305.246094 110.101562 Z M 305.246094 106.128906 " fill-opacity="1" fill-rule="nonzero"/><g clip-path="url(#441f3549a1)"><path fill="#f8fbfd" d="M 310.824219 246.984375 L 358.542969 246.984375 L 363.777344 199.882812 L 305.59375 199.882812 Z M 343.515625 205.773438 C 343.515625 204.144531 344.832031 202.828125 346.460938 202.828125 C 348.085938 202.828125 349.402344 204.144531 349.402344 205.773438 L 349.402344 241.097656 C 349.402344 242.722656 348.085938 244.039062 346.460938 244.039062 C 344.832031 244.039062 343.515625 242.722656 343.515625 241.097656 Z M 331.742188 205.773438 C 331.742188 204.144531 333.058594 202.828125 334.683594 202.828125 C 336.3125 202.828125 337.628906 204.144531 337.628906 205.773438 L 337.628906 241.097656 C 337.628906 242.722656 336.3125 244.039062 334.683594 244.039062 C 333.058594 244.039062 331.742188 242.722656 331.742188 241.097656 Z M 319.964844 205.773438 C 319.964844 204.144531 321.285156 202.828125 322.910156 202.828125 C 324.535156 202.828125 325.855469 204.144531 325.855469 205.773438 L 325.855469 241.097656 C 325.855469 242.722656 324.535156 244.039062 322.910156 244.039062 C 321.285156 244.039062 319.964844 242.722656 319.964844 241.097656 Z M 319.964844 205.773438 " fill-opacity="1" fill-rule="nonzero"/></g><path fill="#f8fbfd" d="M 367.066406 188.109375 L 302.304688 188.109375 C 300.683594 188.109375 299.359375 189.429688 299.359375 191.054688 C 299.359375 192.675781 300.683594 193.996094 302.304688 193.996094 L 367.066406 193.996094 C 368.6875 193.996094 370.007812 192.675781 370.007812 191.054688 C 370.007812 189.429688 368.6875 188.109375 367.066406 188.109375 Z M 367.066406 188.109375 " fill-opacity="1" fill-rule="nonzero"/><path fill="#f8fbfd" d="M 325.855469 179.277344 C 325.855469 180.902344 327.175781 182.222656 328.796875 182.222656 L 352.347656 182.222656 C 353.96875 182.222656 355.289062 180.902344 355.289062 179.277344 C 355.289062 177.65625 353.96875 176.335938 352.347656 176.335938 L 328.796875 176.335938 C 327.175781 176.335938 325.855469 177.65625 325.855469 179.277344 Z M 325.855469 179.277344 " fill-opacity="1" fill-rule="nonzero"/><path fill="#f8fbfd" d="M 343.515625 164.558594 L 319.964844 164.558594 C 318.34375 164.558594 317.023438 165.882812 317.023438 167.503906 C 317.023438 169.125 318.34375 170.445312 319.964844 170.445312 L 343.515625 170.445312 C 345.136719 170.445312 346.460938 169.125 346.460938 167.503906 C 346.460938 165.882812 345.136719 164.558594 343.515625 164.558594 Z M 343.515625 164.558594 " fill-opacity="1" fill-rule="nonzero"/></svg>