<svg xmlns="http://www.w3.org/2000/svg" xmlns:xlink="http://www.w3.org/1999/xlink" width="500" zoomAndPan="magnify" viewBox="0 0 375 247.499998" height="330" preserveAspectRatio="xMidYMid meet" version="1.0"><defs><g/><clipPath id="9ed30878b1"><path d="M 40.523438 75.761719 L 113 75.761719 L 113 188.785156 L 40.523438 188.785156 Z M 40.523438 75.761719 " clip-rule="nonzero"/></clipPath><clipPath id="3b5ab94d08"><path d="M 218.148438 77.074219 L 237.527344 77.074219 L 237.527344 96.453125 L 218.148438 96.453125 Z M 218.148438 77.074219 " clip-rule="nonzero"/></clipPath><clipPath id="427b50a5ee"><path d="M 227.839844 77.074219 C 222.488281 77.074219 218.148438 81.414062 218.148438 86.765625 C 218.148438 92.117188 222.488281 96.453125 227.839844 96.453125 C 233.1875 96.453125 237.527344 92.117188 237.527344 86.765625 C 237.527344 81.414062 233.1875 77.074219 227.839844 77.074219 Z M 227.839844 77.074219 " clip-rule="nonzero"/></clipPath><clipPath id="559ee7e7bf"><path d="M 237.535156 53.855469 L 266.609375 53.855469 L 266.609375 82.929688 L 237.535156 82.929688 Z M 237.535156 53.855469 " clip-rule="nonzero"/></clipPath><clipPath id="06b4265f73"><path d="M 252.074219 53.855469 C 244.046875 53.855469 237.535156 60.363281 237.535156 68.394531 C 237.535156 76.421875 244.046875 82.929688 252.074219 82.929688 C 260.101562 82.929688 266.609375 76.421875 266.609375 68.394531 C 266.609375 60.363281 260.101562 53.855469 252.074219 53.855469 Z M 252.074219 53.855469 " clip-rule="nonzero"/></clipPath><clipPath id="02e375709c"><path d="M 241.011719 86.769531 L 266.457031 86.769531 L 266.457031 112.21875 L 241.011719 112.21875 Z M 241.011719 86.769531 " clip-rule="nonzero"/></clipPath><clipPath id="33d3790762"><path d="M 253.808594 86.769531 C 246.742188 86.769531 241.011719 92.5 241.011719 99.570312 C 241.011719 106.640625 246.742188 112.371094 253.808594 112.371094 C 260.878906 112.371094 266.609375 106.640625 266.609375 99.570312 C 266.609375 92.5 260.878906 86.769531 253.808594 86.769531 Z M 253.808594 86.769531 " clip-rule="nonzero"/></clipPath></defs><g clip-path="url(#9ed30878b1)"><path fill="#f8fbfd" d="M 102.699219 120.8125 L 76.75 75.765625 L 50.796875 120.8125 C 47.066406 126.949219 40.535156 141.855469 40.535156 149.738281 C 40.535156 171.300781 56.75 188.769531 76.75 188.769531 C 96.761719 188.769531 112.976562 171.300781 112.976562 149.738281 C 112.976562 141.855469 106.429688 126.949219 102.699219 120.8125 Z M 102.699219 120.8125 " fill-opacity="1" fill-rule="nonzero"/></g><g clip-path="url(#3b5ab94d08)"><g clip-path="url(#427b50a5ee)"><path stroke-linecap="butt" transform="matrix(0.748488, 0, 0, 0.748488, 218.148611, 77.076035)" fill="none" stroke-linejoin="miter" d="M 12.947749 -0.00242643 C 5.797917 -0.00242643 -0.00023185 5.795722 -0.00023185 12.945554 C -0.00023185 20.095386 5.797917 25.888316 12.947749 25.888316 C 20.092362 25.888316 25.89051 20.095386 25.89051 12.945554 C 25.89051 5.795722 20.092362 -0.00242643 12.947749 -0.00242643 Z M 12.947749 -0.00242643 " stroke="#f8fbfd" stroke-width="8" stroke-opacity="1" stroke-miterlimit="4"/></g></g><g clip-path="url(#559ee7e7bf)"><g clip-path="url(#06b4265f73)"><path stroke-linecap="butt" transform="matrix(0.748488, 0, 0, 0.748488, 237.536713, 53.855973)" fill="none" stroke-linejoin="miter" d="M 19.422501 -0.000673031 C 8.697753 -0.000673031 -0.00207928 8.69394 -0.00207928 19.423907 C -0.00207928 30.148655 8.697753 38.843268 19.422501 38.843268 C 30.147249 38.843268 38.841862 30.148655 38.841862 19.423907 C 38.841862 8.69394 30.147249 -0.000673031 19.422501 -0.000673031 Z M 19.422501 -0.000673031 " stroke="#f8fbfd" stroke-width="8" stroke-opacity="1" stroke-miterlimit="4"/></g></g><g clip-path="url(#02e375709c)"><g clip-path="url(#33d3790762)"><path stroke-linecap="butt" transform="matrix(0.748488, 0, 0, 0.748488, 241.009771, 86.770086)" fill="none" stroke-linejoin="miter" d="M 17.099573 -0.000740716 C 7.658664 -0.000740716 0.0026029 7.65532 0.0026029 17.101449 C 0.0026029 26.547577 7.658664 34.203638 17.099573 34.203638 C 26.545702 34.203638 34.201763 26.547577 34.201763 17.101449 C 34.201763 7.65532 26.545702 -0.000740716 17.099573 -0.000740716 Z M 17.099573 -0.000740716 " stroke="#f8fbfd" stroke-width="8" stroke-opacity="1" stroke-miterlimit="4"/></g></g><g fill="#f8fbfd" fill-opacity="1"><g transform="translate(4.236271, 170.658486)"><g><path d="M 3.953125 -67.953125 C 3.953125 -69.472656 4 -70.613281 4.09375 -71.375 C 4.195312 -72.132812 4.484375 -73.007812 4.953125 -74 C 5.867188 -75.78125 8.4375 -76.671875 12.65625 -76.671875 C 16.6875 -76.671875 19.195312 -75.78125 20.1875 -74 C 20.707031 -73.007812 21.015625 -72.117188 21.109375 -71.328125 C 21.210938 -70.535156 21.265625 -69.378906 21.265625 -67.859375 L 21.265625 -22.0625 C 21.265625 -19.6875 21.460938 -18.1875 21.859375 -17.5625 C 22.253906 -16.9375 23.128906 -16.625 24.484375 -16.625 C 25.835938 -16.625 26.742188 -16.570312 27.203125 -16.46875 C 27.660156 -16.375 28.222656 -16.09375 28.890625 -15.625 C 30.203125 -14.769531 30.859375 -12.429688 30.859375 -8.609375 C 30.859375 -4.453125 30.203125 -1.910156 28.890625 -0.984375 C 27.171875 0.203125 23.082031 0.398438 16.625 -0.390625 C 11.539062 -1.054688 8.242188 -2.738281 6.734375 -5.4375 C 4.878906 -8.664062 3.953125 -13.8125 3.953125 -20.875 Z M 3.953125 -67.953125 "/></g></g></g><g fill="#31a4e5" fill-opacity="1"><g transform="translate(46.771433, 170.658486)"><g><path d="M 37.78125 -46.59375 C 38.175781 -50.28125 40.785156 -52.125 45.609375 -52.125 C 48.171875 -52.125 50.078125 -51.925781 51.328125 -51.53125 C 52.585938 -51.132812 53.460938 -50.441406 53.953125 -49.453125 C 54.453125 -48.472656 54.75 -47.601562 54.84375 -46.84375 C 54.945312 -46.082031 55 -44.941406 55 -43.421875 L 55 -8.796875 C 55 -7.285156 54.945312 -6.148438 54.84375 -5.390625 C 54.75 -4.628906 54.472656 -3.753906 54.015625 -2.765625 C 53.085938 -1.054688 50.828125 -0.203125 47.234375 -0.203125 C 43.640625 -0.203125 41.234375 -0.644531 40.015625 -1.53125 C 38.796875 -2.425781 38.085938 -3.726562 37.890625 -5.4375 C 35.453125 -1.945312 31.378906 -0.203125 25.671875 -0.203125 C 19.960938 -0.203125 14.664062 -2.804688 9.78125 -8.015625 C 4.90625 -13.222656 2.46875 -19.269531 2.46875 -26.15625 C 2.46875 -33.050781 4.925781 -39.085938 9.84375 -44.265625 C 14.757812 -49.441406 20.148438 -52.03125 26.015625 -52.03125 C 28.253906 -52.03125 30.296875 -51.632812 32.140625 -50.84375 C 33.992188 -50.050781 35.28125 -49.304688 36 -48.609375 C 36.726562 -47.921875 37.320312 -47.25 37.78125 -46.59375 Z M 19.78125 -26.015625 C 19.78125 -23.835938 20.632812 -21.875 22.34375 -20.125 C 24.0625 -18.382812 26.140625 -17.515625 28.578125 -17.515625 C 31.023438 -17.515625 33.054688 -18.398438 34.671875 -20.171875 C 36.285156 -21.953125 37.09375 -23.914062 37.09375 -26.0625 C 37.09375 -28.207031 36.316406 -30.203125 34.765625 -32.046875 C 33.222656 -33.898438 31.144531 -34.828125 28.53125 -34.828125 C 25.925781 -34.828125 23.816406 -33.898438 22.203125 -32.046875 C 20.585938 -30.203125 19.78125 -28.191406 19.78125 -26.015625 Z M 19.78125 -26.015625 "/></g></g></g><g fill="#f8fbfd" fill-opacity="1"><g transform="translate(115.924695, 170.658486)"><g><path d="M 27.109375 -0.203125 C 20.441406 -0.203125 14.914062 -2.722656 10.53125 -7.765625 C 6.144531 -12.804688 3.953125 -18.957031 3.953125 -26.21875 L 3.953125 -43.53125 C 3.953125 -45.113281 4 -46.265625 4.09375 -46.984375 C 4.195312 -47.710938 4.484375 -48.570312 4.953125 -49.5625 C 5.867188 -51.34375 8.4375 -52.234375 12.65625 -52.234375 C 17.28125 -52.234375 19.988281 -50.976562 20.78125 -48.46875 C 21.164062 -47.414062 21.359375 -45.734375 21.359375 -43.421875 L 21.359375 -26.109375 C 21.359375 -23.410156 22.132812 -21.300781 23.6875 -19.78125 C 25.238281 -18.269531 27.316406 -17.515625 29.921875 -17.515625 C 32.523438 -17.515625 34.632812 -18.300781 36.25 -19.875 C 37.863281 -21.457031 38.671875 -23.535156 38.671875 -26.109375 L 38.671875 -43.625 C 38.671875 -45.144531 38.71875 -46.28125 38.8125 -47.03125 C 38.914062 -47.789062 39.234375 -48.664062 39.765625 -49.65625 C 40.617188 -51.375 43.160156 -52.234375 47.390625 -52.234375 C 51.535156 -52.234375 54.070312 -51.34375 55 -49.5625 C 55.457031 -48.570312 55.734375 -47.695312 55.828125 -46.9375 C 55.929688 -46.175781 55.984375 -45.039062 55.984375 -43.53125 L 55.984375 -8.5 C 55.984375 -7.050781 55.929688 -5.945312 55.828125 -5.1875 C 55.734375 -4.4375 55.425781 -3.597656 54.90625 -2.671875 C 53.914062 -0.953125 51.375 -0.09375 47.28125 -0.09375 C 43.257812 -0.09375 40.785156 -0.882812 39.859375 -2.46875 C 39.203125 -3.59375 38.875 -4.945312 38.875 -6.53125 C 38.613281 -6.070312 38.019531 -5.410156 37.09375 -4.546875 C 36.164062 -3.691406 35.273438 -2.96875 34.421875 -2.375 C 32.179688 -0.925781 29.742188 -0.203125 27.109375 -0.203125 Z M 27.109375 -0.203125 "/></g></g></g><g fill="#f8fbfd" fill-opacity="1"><g transform="translate(186.057411, 170.658486)"><g><path d="M 32.9375 -52.125 C 39.53125 -52.125 45.019531 -49.601562 49.40625 -44.5625 C 53.789062 -39.519531 55.984375 -33.367188 55.984375 -26.109375 L 55.984375 -8.703125 C 55.984375 -7.191406 55.929688 -6.054688 55.828125 -5.296875 C 55.734375 -4.535156 55.457031 -3.691406 55 -2.765625 C 54.070312 -0.984375 51.5 -0.09375 47.28125 -0.09375 C 42.601562 -0.09375 39.898438 -1.316406 39.171875 -3.765625 C 38.773438 -4.878906 38.578125 -6.554688 38.578125 -8.796875 L 38.578125 -26.21875 C 38.578125 -28.914062 37.800781 -31.023438 36.25 -32.546875 C 34.707031 -34.066406 32.628906 -34.828125 30.015625 -34.828125 C 27.410156 -34.828125 25.300781 -34.035156 23.6875 -32.453125 C 22.070312 -30.867188 21.265625 -28.789062 21.265625 -26.21875 L 21.265625 -8.703125 C 21.265625 -7.191406 21.210938 -6.054688 21.109375 -5.296875 C 21.015625 -4.535156 20.707031 -3.691406 20.1875 -2.765625 C 19.320312 -0.984375 16.78125 -0.09375 12.5625 -0.09375 C 8.40625 -0.09375 5.867188 -0.984375 4.953125 -2.765625 C 4.484375 -3.753906 4.195312 -4.628906 4.09375 -5.390625 C 4 -6.148438 3.953125 -7.285156 3.953125 -8.796875 L 3.953125 -43.828125 C 3.953125 -45.273438 4 -46.378906 4.09375 -47.140625 C 4.195312 -47.898438 4.515625 -48.738281 5.046875 -49.65625 C 5.972656 -51.300781 8.507812 -52.125 12.65625 -52.125 C 16.6875 -52.125 19.160156 -51.367188 20.078125 -49.859375 C 20.742188 -48.734375 21.078125 -47.378906 21.078125 -45.796875 C 21.335938 -46.265625 21.925781 -46.925781 22.84375 -47.78125 C 23.769531 -48.632812 24.660156 -49.328125 25.515625 -49.859375 C 27.765625 -51.367188 30.238281 -52.125 32.9375 -52.125 Z M 32.9375 -52.125 "/></g></g></g><g fill="#f8fbfd" fill-opacity="1"><g transform="translate(256.190128, 170.658486)"><g><path d="M 38.921875 -73.84375 C 39.421875 -74.800781 40.296875 -75.476562 41.546875 -75.875 C 42.796875 -76.269531 44.457031 -76.46875 46.53125 -76.46875 C 48.613281 -76.46875 50.28125 -76.269531 51.53125 -75.875 C 52.789062 -75.476562 53.664062 -74.785156 54.15625 -73.796875 C 54.65625 -72.804688 54.953125 -71.929688 55.046875 -71.171875 C 55.148438 -70.410156 55.203125 -69.273438 55.203125 -67.765625 L 55.203125 -8.703125 C 55.203125 -7.191406 55.148438 -6.054688 55.046875 -5.296875 C 54.953125 -4.535156 54.640625 -3.691406 54.109375 -2.765625 C 53.117188 -0.984375 50.332031 -0.09375 45.75 -0.09375 C 41.164062 -0.09375 38.609375 -1.710938 38.078125 -4.953125 C 35.316406 -1.785156 31.460938 -0.203125 26.515625 -0.203125 C 20.578125 -0.203125 15.164062 -2.789062 10.28125 -7.96875 C 5.40625 -13.144531 2.96875 -19.175781 2.96875 -26.0625 C 2.96875 -32.957031 5.421875 -39.007812 10.328125 -44.21875 C 15.242188 -49.425781 20.640625 -52.03125 26.515625 -52.03125 C 31.390625 -52.03125 35.179688 -50.382812 37.890625 -47.09375 L 37.890625 -67.859375 C 37.890625 -69.378906 37.9375 -70.515625 38.03125 -71.265625 C 38.132812 -72.023438 38.429688 -72.882812 38.921875 -73.84375 Z M 22.84375 -20.078125 C 24.5625 -18.296875 26.640625 -17.40625 29.078125 -17.40625 C 31.523438 -17.40625 33.554688 -18.296875 35.171875 -20.078125 C 36.785156 -21.859375 37.59375 -23.820312 37.59375 -25.96875 C 37.59375 -28.113281 36.816406 -30.109375 35.265625 -31.953125 C 33.710938 -33.796875 31.617188 -34.71875 28.984375 -34.71875 C 26.347656 -34.71875 24.238281 -33.8125 22.65625 -32 C 21.070312 -30.1875 20.28125 -28.191406 20.28125 -26.015625 C 20.28125 -23.835938 21.132812 -21.859375 22.84375 -20.078125 Z M 22.84375 -20.078125 "/></g></g></g><g fill="#f8fbfd" fill-opacity="1"><g transform="translate(325.531493, 170.658486)"><g><path d="M 39.359375 -51.53125 C 40.617188 -51.132812 41.660156 -50.457031 42.484375 -49.5 C 43.304688 -48.550781 43.71875 -47.019531 43.71875 -44.90625 C 43.71875 -42.800781 43.09375 -40.492188 41.84375 -37.984375 C 40.59375 -35.484375 38.78125 -34.234375 36.40625 -34.234375 C 35.21875 -34.234375 34.078125 -34.492188 32.984375 -35.015625 C 31.898438 -35.546875 30.46875 -35.8125 28.6875 -35.8125 C 26.90625 -35.8125 25.238281 -35.179688 23.6875 -33.921875 C 22.132812 -32.671875 21.359375 -31.15625 21.359375 -29.375 L 21.359375 -8.609375 C 21.359375 -7.085938 21.3125 -5.945312 21.21875 -5.1875 C 21.125 -4.4375 20.8125 -3.566406 20.28125 -2.578125 C 19.289062 -0.859375 16.71875 0 12.5625 0 C 9.394531 0 7.117188 -0.5625 5.734375 -1.6875 C 4.679688 -2.601562 4.085938 -4.019531 3.953125 -5.9375 C 3.953125 -6.59375 3.953125 -7.546875 3.953125 -8.796875 L 3.953125 -43.53125 C 3.953125 -45.039062 4 -46.175781 4.09375 -46.9375 C 4.195312 -47.695312 4.484375 -48.535156 4.953125 -49.453125 C 5.867188 -51.234375 8.4375 -52.125 12.65625 -52.125 C 16.613281 -52.125 19.085938 -51.367188 20.078125 -49.859375 C 20.804688 -48.804688 21.171875 -47.71875 21.171875 -46.59375 C 21.492188 -47.050781 21.96875 -47.609375 22.59375 -48.265625 C 23.226562 -48.929688 24.566406 -49.820312 26.609375 -50.9375 C 28.648438 -52.0625 30.445312 -52.625 32 -52.625 C 33.550781 -52.625 34.851562 -52.539062 35.90625 -52.375 C 36.957031 -52.207031 38.109375 -51.925781 39.359375 -51.53125 Z M 39.359375 -51.53125 "/></g></g></g></svg>