<svg xmlns="http://www.w3.org/2000/svg" xmlns:xlink="http://www.w3.org/1999/xlink" width="500" zoomAndPan="magnify" viewBox="0 0 375.12 255.12" height="330" preserveAspectRatio="xMidYMid meet" version="1.0"><defs><g/><clipPath id="de90ed9221"><path d="M 40.292969 75.65625 L 112.792969 75.65625 L 112.792969 188.515625 L 40.292969 188.515625 Z M 40.292969 75.65625 " clip-rule="nonzero"/></clipPath><clipPath id="0856a4696e"><path d="M 217.667969 76.964844 L 237.019531 76.964844 L 237.019531 96.316406 L 217.667969 96.316406 Z M 217.667969 76.964844 " clip-rule="nonzero"/></clipPath><clipPath id="fb730ee138"><path d="M 227.34375 76.964844 C 222 76.964844 217.667969 81.296875 217.667969 86.640625 C 217.667969 91.984375 222 96.316406 227.34375 96.316406 C 232.6875 96.316406 237.019531 91.984375 237.019531 86.640625 C 237.019531 81.296875 232.6875 76.964844 227.34375 76.964844 Z M 227.34375 76.964844 " clip-rule="nonzero"/></clipPath><clipPath id="6fe60572e4"><path d="M 237.027344 53.777344 L 266.058594 53.777344 L 266.058594 82.8125 L 237.027344 82.8125 Z M 237.027344 53.777344 " clip-rule="nonzero"/></clipPath><clipPath id="bb39031169"><path d="M 251.542969 53.777344 C 243.527344 53.777344 237.027344 60.277344 237.027344 68.296875 C 237.027344 76.3125 243.527344 82.8125 251.542969 82.8125 C 259.5625 82.8125 266.058594 76.3125 266.058594 68.296875 C 266.058594 60.277344 259.5625 53.777344 251.542969 53.777344 Z M 251.542969 53.777344 " clip-rule="nonzero"/></clipPath><clipPath id="cad5a74bab"><path d="M 240.496094 86.648438 L 265.90625 86.648438 L 265.90625 112.058594 L 240.496094 112.058594 Z M 240.496094 86.648438 " clip-rule="nonzero"/></clipPath><clipPath id="31ac73ba7a"><path d="M 253.277344 86.648438 C 246.21875 86.648438 240.496094 92.371094 240.496094 99.429688 C 240.496094 106.488281 246.21875 112.210938 253.277344 112.210938 C 260.335938 112.210938 266.058594 106.488281 266.058594 99.429688 C 266.058594 92.371094 260.335938 86.648438 253.277344 86.648438 Z M 253.277344 86.648438 " clip-rule="nonzero"/></clipPath></defs><g clip-path="url(#de90ed9221)"><path fill="#31a4e5" d="M 102.382812 120.636719 L 76.472656 75.65625 L 50.554688 120.636719 C 46.828125 126.769531 40.304688 141.652344 40.304688 149.523438 C 40.304688 171.054688 56.496094 188.5 76.472656 188.5 C 96.449219 188.5 112.644531 171.054688 112.644531 149.523438 C 112.644531 141.652344 106.105469 126.769531 102.382812 120.636719 Z M 102.382812 120.636719 " fill-opacity="1" fill-rule="nonzero"/></g><g clip-path="url(#0856a4696e)"><g clip-path="url(#fb730ee138)"><path stroke-linecap="butt" transform="matrix(0.747422, 0, 0, 0.747422, 217.666679, 76.966261)" fill="none" stroke-linejoin="miter" d="M 12.947268 -0.00189573 C 5.797691 -0.00189573 0.00172557 5.79407 0.00172557 12.943647 C 0.00172557 20.093224 5.797691 25.889189 12.947268 25.889189 C 20.096845 25.889189 25.892811 20.093224 25.892811 12.943647 C 25.892811 5.79407 20.096845 -0.00189573 12.947268 -0.00189573 Z M 12.947268 -0.00189573 " stroke="#31a4e5" stroke-width="8" stroke-opacity="1" stroke-miterlimit="4"/></g></g><g clip-path="url(#6fe60572e4)"><g clip-path="url(#bb39031169)"><path stroke-linecap="butt" transform="matrix(0.747422, 0, 0, 0.747422, 237.027167, 53.779269)" fill="none" stroke-linejoin="miter" d="M 19.421163 -0.00257591 C 8.696797 -0.00257591 0.000235984 8.693986 0.000235984 19.423577 C 0.000235984 30.147943 8.696797 38.844504 19.421163 38.844504 C 30.150755 38.844504 38.84209 30.147943 38.84209 19.423577 C 38.84209 8.693986 30.150755 -0.00257591 19.421163 -0.00257591 Z M 19.421163 -0.00257591 " stroke="#31a4e5" stroke-width="8" stroke-opacity="1" stroke-miterlimit="4"/></g></g><g clip-path="url(#cad5a74bab)"><g clip-path="url(#31ac73ba7a)"><path stroke-linecap="butt" transform="matrix(0.747422, 0, 0, 0.747422, 240.495279, 86.646505)" fill="none" stroke-linejoin="miter" d="M 17.10154 0.00258578 C 7.657618 0.00258578 0.00109025 7.659114 0.00109025 17.103036 C 0.00109025 26.546958 7.657618 34.203486 17.10154 34.203486 C 26.545463 34.203486 34.201991 26.546958 34.201991 17.103036 C 34.201991 7.659114 26.545463 0.00258578 17.10154 0.00258578 Z M 17.10154 0.00258578 " stroke="#31a4e5" stroke-width="8" stroke-opacity="1" stroke-miterlimit="4"/></g></g><g fill="#31a4e5" fill-opacity="1"><g transform="translate(4.059, 170.415428)"><g><path d="M 3.953125 -67.859375 C 3.953125 -69.378906 4 -70.515625 4.09375 -71.265625 C 4.195312 -72.023438 4.476562 -72.898438 4.9375 -73.890625 C 5.863281 -75.671875 8.429688 -76.5625 12.640625 -76.5625 C 16.660156 -76.5625 19.164062 -75.671875 20.15625 -73.890625 C 20.675781 -72.898438 20.984375 -72.007812 21.078125 -71.21875 C 21.179688 -70.425781 21.234375 -69.273438 21.234375 -67.765625 L 21.234375 -22.03125 C 21.234375 -19.65625 21.429688 -18.15625 21.828125 -17.53125 C 22.222656 -16.90625 23.09375 -16.59375 24.4375 -16.59375 C 25.789062 -16.59375 26.695312 -16.539062 27.15625 -16.4375 C 27.625 -16.34375 28.1875 -16.066406 28.84375 -15.609375 C 30.15625 -14.753906 30.8125 -12.414062 30.8125 -8.59375 C 30.8125 -4.445312 30.15625 -1.910156 28.84375 -0.984375 C 27.132812 0.203125 23.050781 0.398438 16.59375 -0.390625 C 11.519531 -1.054688 8.226562 -2.738281 6.71875 -5.4375 C 4.875 -8.65625 3.953125 -13.789062 3.953125 -20.84375 Z M 3.953125 -67.859375 "/></g></g></g><g fill="#ffffff" fill-opacity="1"><g transform="translate(46.533582, 170.415428)"><g><path d="M 37.734375 -46.53125 C 38.128906 -50.21875 40.726562 -52.0625 45.53125 -52.0625 C 48.101562 -52.0625 50.015625 -51.863281 51.265625 -51.46875 C 52.515625 -51.070312 53.382812 -50.378906 53.875 -49.390625 C 54.375 -48.398438 54.671875 -47.523438 54.765625 -46.765625 C 54.867188 -46.015625 54.921875 -44.878906 54.921875 -43.359375 L 54.921875 -8.796875 C 54.921875 -7.273438 54.867188 -6.132812 54.765625 -5.375 C 54.671875 -4.625 54.394531 -3.753906 53.9375 -2.765625 C 53.007812 -1.054688 50.75 -0.203125 47.15625 -0.203125 C 43.570312 -0.203125 41.171875 -0.644531 39.953125 -1.53125 C 38.734375 -2.414062 38.023438 -3.71875 37.828125 -5.4375 C 35.390625 -1.945312 31.320312 -0.203125 25.625 -0.203125 C 19.9375 -0.203125 14.65625 -2.800781 9.78125 -8 C 4.90625 -13.207031 2.46875 -19.25 2.46875 -26.125 C 2.46875 -33.007812 4.921875 -39.035156 9.828125 -44.203125 C 14.734375 -49.367188 20.117188 -51.953125 25.984375 -51.953125 C 28.222656 -51.953125 30.265625 -51.554688 32.109375 -50.765625 C 33.953125 -49.984375 35.234375 -49.242188 35.953125 -48.546875 C 36.679688 -47.859375 37.273438 -47.1875 37.734375 -46.53125 Z M 19.75 -25.96875 C 19.75 -23.800781 20.601562 -21.84375 22.3125 -20.09375 C 24.03125 -18.351562 26.109375 -17.484375 28.546875 -17.484375 C 30.984375 -17.484375 33.007812 -18.367188 34.625 -20.140625 C 36.238281 -21.921875 37.046875 -23.878906 37.046875 -26.015625 C 37.046875 -28.160156 36.269531 -30.15625 34.71875 -32 C 33.175781 -33.84375 31.101562 -34.765625 28.5 -34.765625 C 25.894531 -34.765625 23.785156 -33.84375 22.171875 -32 C 20.554688 -30.15625 19.75 -28.144531 19.75 -25.96875 Z M 19.75 -25.96875 "/></g></g></g><g fill="#31a4e5" fill-opacity="1"><g transform="translate(115.588353, 170.415428)"><g><path d="M 27.0625 -0.203125 C 20.414062 -0.203125 14.898438 -2.71875 10.515625 -7.75 C 6.140625 -12.789062 3.953125 -18.929688 3.953125 -26.171875 L 3.953125 -43.46875 C 3.953125 -45.039062 4 -46.1875 4.09375 -46.90625 C 4.195312 -47.632812 4.476562 -48.492188 4.9375 -49.484375 C 5.863281 -51.265625 8.429688 -52.15625 12.640625 -52.15625 C 17.253906 -52.15625 19.957031 -50.90625 20.75 -48.40625 C 21.144531 -47.351562 21.34375 -45.671875 21.34375 -43.359375 L 21.34375 -26.078125 C 21.34375 -23.378906 22.113281 -21.269531 23.65625 -19.75 C 25.207031 -18.238281 27.28125 -17.484375 29.875 -17.484375 C 32.476562 -17.484375 34.585938 -18.269531 36.203125 -19.84375 C 37.816406 -21.425781 38.625 -23.503906 38.625 -26.078125 L 38.625 -43.5625 C 38.625 -45.070312 38.671875 -46.207031 38.765625 -46.96875 C 38.867188 -47.726562 39.179688 -48.601562 39.703125 -49.59375 C 40.566406 -51.300781 43.101562 -52.15625 47.3125 -52.15625 C 51.46875 -52.15625 54.003906 -51.265625 54.921875 -49.484375 C 55.378906 -48.492188 55.65625 -47.617188 55.75 -46.859375 C 55.851562 -46.109375 55.90625 -44.976562 55.90625 -43.46875 L 55.90625 -8.5 C 55.90625 -7.050781 55.851562 -5.945312 55.75 -5.1875 C 55.65625 -4.425781 55.347656 -3.585938 54.828125 -2.671875 C 53.835938 -0.953125 51.300781 -0.09375 47.21875 -0.09375 C 43.195312 -0.09375 40.726562 -0.882812 39.8125 -2.46875 C 39.15625 -3.59375 38.828125 -4.941406 38.828125 -6.515625 C 38.554688 -6.054688 37.957031 -5.398438 37.03125 -4.546875 C 36.113281 -3.691406 35.226562 -2.96875 34.375 -2.375 C 32.132812 -0.925781 29.695312 -0.203125 27.0625 -0.203125 Z M 27.0625 -0.203125 "/></g></g></g><g fill="#31a4e5" fill-opacity="1"><g transform="translate(185.621185, 170.415428)"><g><path d="M 32.890625 -52.0625 C 39.472656 -52.0625 44.953125 -49.539062 49.328125 -44.5 C 53.710938 -39.457031 55.90625 -33.316406 55.90625 -26.078125 L 55.90625 -8.6875 C 55.90625 -7.175781 55.851562 -6.039062 55.75 -5.28125 C 55.65625 -4.53125 55.378906 -3.691406 54.921875 -2.765625 C 54.003906 -0.984375 51.4375 -0.09375 47.21875 -0.09375 C 42.539062 -0.09375 39.84375 -1.3125 39.125 -3.75 C 38.726562 -4.875 38.53125 -6.554688 38.53125 -8.796875 L 38.53125 -26.171875 C 38.53125 -28.878906 37.753906 -30.988281 36.203125 -32.5 C 34.648438 -34.007812 32.570312 -34.765625 29.96875 -34.765625 C 27.375 -34.765625 25.269531 -33.972656 23.65625 -32.390625 C 22.039062 -30.816406 21.234375 -28.742188 21.234375 -26.171875 L 21.234375 -8.6875 C 21.234375 -7.175781 21.179688 -6.039062 21.078125 -5.28125 C 20.984375 -4.53125 20.675781 -3.691406 20.15625 -2.765625 C 19.300781 -0.984375 16.765625 -0.09375 12.546875 -0.09375 C 8.398438 -0.09375 5.863281 -0.984375 4.9375 -2.765625 C 4.476562 -3.753906 4.195312 -4.625 4.09375 -5.375 C 4 -6.132812 3.953125 -7.273438 3.953125 -8.796875 L 3.953125 -43.765625 C 3.953125 -45.210938 4 -46.3125 4.09375 -47.0625 C 4.195312 -47.820312 4.507812 -48.664062 5.03125 -49.59375 C 5.957031 -51.238281 8.492188 -52.0625 12.640625 -52.0625 C 16.660156 -52.0625 19.128906 -51.300781 20.046875 -49.78125 C 20.710938 -48.664062 21.046875 -47.316406 21.046875 -45.734375 C 21.304688 -46.191406 21.894531 -46.847656 22.8125 -47.703125 C 23.738281 -48.566406 24.628906 -49.257812 25.484375 -49.78125 C 27.722656 -51.300781 30.191406 -52.0625 32.890625 -52.0625 Z M 32.890625 -52.0625 "/></g></g></g><g fill="#31a4e5" fill-opacity="1"><g transform="translate(255.654016, 170.415428)"><g><path d="M 38.859375 -73.734375 C 39.359375 -74.691406 40.234375 -75.367188 41.484375 -75.765625 C 42.734375 -76.160156 44.394531 -76.359375 46.46875 -76.359375 C 48.550781 -76.359375 50.21875 -76.160156 51.46875 -75.765625 C 52.71875 -75.367188 53.585938 -74.675781 54.078125 -73.6875 C 54.578125 -72.695312 54.875 -71.820312 54.96875 -71.0625 C 55.070312 -70.3125 55.125 -69.179688 55.125 -67.671875 L 55.125 -8.6875 C 55.125 -7.175781 55.070312 -6.039062 54.96875 -5.28125 C 54.875 -4.53125 54.5625 -3.691406 54.03125 -2.765625 C 53.039062 -0.984375 50.257812 -0.09375 45.6875 -0.09375 C 41.113281 -0.09375 38.5625 -1.707031 38.03125 -4.9375 C 35.257812 -1.78125 31.40625 -0.203125 26.46875 -0.203125 C 20.539062 -0.203125 15.140625 -2.785156 10.265625 -7.953125 C 5.398438 -13.117188 2.96875 -19.140625 2.96875 -26.015625 C 2.96875 -32.898438 5.421875 -38.941406 10.328125 -44.140625 C 15.234375 -49.347656 20.613281 -51.953125 26.46875 -51.953125 C 31.34375 -51.953125 35.128906 -50.304688 37.828125 -47.015625 L 37.828125 -67.765625 C 37.828125 -69.273438 37.875 -70.410156 37.96875 -71.171875 C 38.070312 -71.929688 38.367188 -72.785156 38.859375 -73.734375 Z M 22.8125 -20.046875 C 24.53125 -18.273438 26.609375 -17.390625 29.046875 -17.390625 C 31.484375 -17.390625 33.503906 -18.273438 35.109375 -20.046875 C 36.722656 -21.828125 37.53125 -23.785156 37.53125 -25.921875 C 37.53125 -28.066406 36.753906 -30.0625 35.203125 -31.90625 C 33.660156 -33.75 31.570312 -34.671875 28.9375 -34.671875 C 26.300781 -34.671875 24.191406 -33.765625 22.609375 -31.953125 C 21.035156 -30.140625 20.25 -28.144531 20.25 -25.96875 C 20.25 -23.800781 21.101562 -21.828125 22.8125 -20.046875 Z M 22.8125 -20.046875 "/></g></g></g><g fill="#31a4e5" fill-opacity="1"><g transform="translate(324.896623, 170.415428)"><g><path d="M 39.3125 -51.46875 C 40.5625 -51.070312 41.597656 -50.394531 42.421875 -49.4375 C 43.242188 -48.476562 43.65625 -46.945312 43.65625 -44.84375 C 43.65625 -42.738281 43.03125 -40.429688 41.78125 -37.921875 C 40.53125 -35.421875 38.71875 -34.171875 36.34375 -34.171875 C 35.164062 -34.171875 34.03125 -34.4375 32.9375 -34.96875 C 31.851562 -35.5 30.421875 -35.765625 28.640625 -35.765625 C 26.867188 -35.765625 25.207031 -35.132812 23.65625 -33.875 C 22.113281 -32.625 21.34375 -31.113281 21.34375 -29.34375 L 21.34375 -8.59375 C 21.34375 -7.082031 21.289062 -5.945312 21.1875 -5.1875 C 21.09375 -4.425781 20.78125 -3.550781 20.25 -2.5625 C 19.257812 -0.851562 16.691406 0 12.546875 0 C 9.378906 0 7.109375 -0.554688 5.734375 -1.671875 C 4.679688 -2.597656 4.085938 -4.015625 3.953125 -5.921875 C 3.953125 -6.585938 3.953125 -7.546875 3.953125 -8.796875 L 3.953125 -43.46875 C 3.953125 -44.976562 4 -46.109375 4.09375 -46.859375 C 4.195312 -47.617188 4.476562 -48.460938 4.9375 -49.390625 C 5.863281 -51.171875 8.429688 -52.0625 12.640625 -52.0625 C 16.597656 -52.0625 19.066406 -51.300781 20.046875 -49.78125 C 20.773438 -48.726562 21.140625 -47.644531 21.140625 -46.53125 C 21.472656 -46.988281 21.953125 -47.546875 22.578125 -48.203125 C 23.203125 -48.859375 24.535156 -49.742188 26.578125 -50.859375 C 28.617188 -51.984375 30.410156 -52.546875 31.953125 -52.546875 C 33.503906 -52.546875 34.804688 -52.460938 35.859375 -52.296875 C 36.910156 -52.140625 38.0625 -51.863281 39.3125 -51.46875 Z M 39.3125 -51.46875 "/></g></g></g></svg>